<?xml version="1.0" standalone="no"?>
<!DOCTYPE svg PUBLIC "-//W3C//DTD SVG 1.1//EN" "http://www.w3.org/Graphics/SVG/1.1/DTD/svg11.dtd">
<svg version="1.1" width="1200" height="566" onload="init(evt)" viewBox="0 0 1200 566" xmlns="http://www.w3.org/2000/svg" xmlns:xlink="http://www.w3.org/1999/xlink">
<style type="text/css">
	text { font-family:Verdana; font-size:12px; fill:rgb(0,0,0); }
	#search { opacity:0.1; cursor:pointer; }
	#search:hover, #search.show { opacity:1; }
	#subtitle { text-anchor:middle; font-color:rgb(160,160,160); }
	#title { text-anchor:middle; font-size:17px}
	#unzoom { cursor:pointer; }
	#frames > *:hover { stroke:black; stroke-width:0.5; cursor:pointer; }
	.hide { display:none; }
	.parent { opacity:0.5; }
</style>
<script type="text/ecmascript">
<![CDATA[
	"use strict";
	var details, searchbtn, unzoombtn, matchedtxt, svg, searching;
	function init(evt) {
		details = document.getElementById("details").firstChild;
		searchbtn = document.getElementById("search");
		unzoombtn = document.getElementById("unzoom");
		matchedtxt = document.getElementById("matched");
		svg = document.getElementsByTagName("svg")[0];
		searching = 0;
	}

	window.addEventListener("click", function(e) {
		var target = find_group(e.target);
		if (target) {
			if (target.nodeName == "a") {
				if (e.ctrlKey === false) return;
				e.preventDefault();
			}
			if (target.classList.contains("parent")) unzoom();
			zoom(target);
		}
		else if (e.target.id == "unzoom") unzoom();
		else if (e.target.id == "search") search_prompt();
	}, false)

	// mouse-over for info
	// show
	window.addEventListener("mouseover", function(e) {
		var target = find_group(e.target);
		if (target) details.nodeValue = "Function: " + g_to_text(target);
	}, false)

	// clear
	window.addEventListener("mouseout", function(e) {
		var target = find_group(e.target);
		if (target) details.nodeValue = ' ';
	}, false)

	// ctrl-F for search
	window.addEventListener("keydown",function (e) {
		if (e.keyCode === 114 || (e.ctrlKey && e.keyCode === 70)) {
			e.preventDefault();
			search_prompt();
		}
	}, false)

	// functions
	function find_child(node, selector) {
		var children = node.querySelectorAll(selector);
		if (children.length) return children[0];
		return;
	}
	function find_group(node) {
		var parent = node.parentElement;
		if (!parent) return;
		if (parent.id == "frames") return node;
		return find_group(parent);
	}
	function orig_save(e, attr, val) {
		if (e.attributes["_orig_" + attr] != undefined) return;
		if (e.attributes[attr] == undefined) return;
		if (val == undefined) val = e.attributes[attr].value;
		e.setAttribute("_orig_" + attr, val);
	}
	function orig_load(e, attr) {
		if (e.attributes["_orig_"+attr] == undefined) return;
		e.attributes[attr].value = e.attributes["_orig_" + attr].value;
		e.removeAttribute("_orig_"+attr);
	}
	function g_to_text(e) {
		var text = find_child(e, "title").firstChild.nodeValue;
		return (text)
	}
	function g_to_func(e) {
		var func = g_to_text(e);
		// if there's any manipulation we want to do to the function
		// name before it's searched, do it here before returning.
		return (func);
	}
	function update_text(e) {
		var r = find_child(e, "rect");
		var t = find_child(e, "text");
		var w = parseFloat(r.attributes.width.value) -3;
		var txt = find_child(e, "title").textContent.replace(/\([^(]*\)$/,"");
		t.attributes.x.value = parseFloat(r.attributes.x.value) + 3;

		// Smaller than this size won't fit anything
		if (w < 2 * 12 * 0.59) {
			t.textContent = "";
			return;
		}

		t.textContent = txt;
		// Fit in full text width
		if (/^ *$/.test(txt) || t.getSubStringLength(0, txt.length) < w)
			return;

		for (var x = txt.length - 2; x > 0; x--) {
			if (t.getSubStringLength(0, x + 2) <= w) {
				t.textContent = txt.substring(0, x) + "..";
				return;
			}
		}
		t.textContent = "";
	}

	// zoom
	function zoom_reset(e) {
		if (e.attributes != undefined) {
			orig_load(e, "x");
			orig_load(e, "width");
		}
		if (e.childNodes == undefined) return;
		for (var i = 0, c = e.childNodes; i < c.length; i++) {
			zoom_reset(c[i]);
		}
	}
	function zoom_child(e, x, ratio) {
		if (e.attributes != undefined) {
			if (e.attributes.x != undefined) {
				orig_save(e, "x");
				e.attributes.x.value = (parseFloat(e.attributes.x.value) - x - 10) * ratio + 10;
				if (e.tagName == "text")
					e.attributes.x.value = find_child(e.parentNode, "rect[x]").attributes.x.value + 3;
			}
			if (e.attributes.width != undefined) {
				orig_save(e, "width");
				e.attributes.width.value = parseFloat(e.attributes.width.value) * ratio;
			}
		}

		if (e.childNodes == undefined) return;
		for (var i = 0, c = e.childNodes; i < c.length; i++) {
			zoom_child(c[i], x - 10, ratio);
		}
	}
	function zoom_parent(e) {
		if (e.attributes) {
			if (e.attributes.x != undefined) {
				orig_save(e, "x");
				e.attributes.x.value = 10;
			}
			if (e.attributes.width != undefined) {
				orig_save(e, "width");
				e.attributes.width.value = parseInt(svg.width.baseVal.value) - (10 * 2);
			}
		}
		if (e.childNodes == undefined) return;
		for (var i = 0, c = e.childNodes; i < c.length; i++) {
			zoom_parent(c[i]);
		}
	}
	function zoom(node) {
		var attr = find_child(node, "rect").attributes;
		var width = parseFloat(attr.width.value);
		var xmin = parseFloat(attr.x.value);
		var xmax = parseFloat(xmin + width);
		var ymin = parseFloat(attr.y.value);
		var ratio = (svg.width.baseVal.value - 2 * 10) / width;

		// XXX: Workaround for JavaScript float issues (fix me)
		var fudge = 0.0001;

		unzoombtn.classList.remove("hide");

		var el = document.getElementById("frames").children;
		for (var i = 0; i < el.length; i++) {
			var e = el[i];
			var a = find_child(e, "rect").attributes;
			var ex = parseFloat(a.x.value);
			var ew = parseFloat(a.width.value);
			var upstack;
			// Is it an ancestor
			if (0 == 0) {
				upstack = parseFloat(a.y.value) > ymin;
			} else {
				upstack = parseFloat(a.y.value) < ymin;
			}
			if (upstack) {
				// Direct ancestor
				if (ex <= xmin && (ex+ew+fudge) >= xmax) {
					e.classList.add("parent");
					zoom_parent(e);
					update_text(e);
				}
				// not in current path
				else
					e.classList.add("hide");
			}
			// Children maybe
			else {
				// no common path
				if (ex < xmin || ex + fudge >= xmax) {
					e.classList.add("hide");
				}
				else {
					zoom_child(e, xmin, ratio);
					update_text(e);
				}
			}
		}
	}
	function unzoom() {
		unzoombtn.classList.add("hide");
		var el = document.getElementById("frames").children;
		for(var i = 0; i < el.length; i++) {
			el[i].classList.remove("parent");
			el[i].classList.remove("hide");
			zoom_reset(el[i]);
			update_text(el[i]);
		}
	}

	// search
	function reset_search() {
		var el = document.querySelectorAll("#frames rect");
		for (var i = 0; i < el.length; i++) {
			orig_load(el[i], "fill")
		}
	}
	function search_prompt() {
		if (!searching) {
			var term = prompt("Enter a search term (regexp " +
			    "allowed, eg: ^ext4_)", "");
			if (term != null) {
				search(term)
			}
		} else {
			reset_search();
			searching = 0;
			searchbtn.classList.remove("show");
			searchbtn.firstChild.nodeValue = "Search"
			matchedtxt.classList.add("hide");
			matchedtxt.firstChild.nodeValue = ""
		}
	}
	function search(term) {
		var re = new RegExp(term);
		var el = document.getElementById("frames").children;
		var matches = new Object();
		var maxwidth = 0;
		for (var i = 0; i < el.length; i++) {
			var e = el[i];
			var func = g_to_func(e);
			var rect = find_child(e, "rect");
			if (func == null || rect == null)
				continue;

			// Save max width. Only works as we have a root frame
			var w = parseFloat(rect.attributes.width.value);
			if (w > maxwidth)
				maxwidth = w;

			if (func.match(re)) {
				// highlight
				var x = parseFloat(rect.attributes.x.value);
				orig_save(rect, "fill");
				rect.attributes.fill.value = "rgb(230,0,230)";

				// remember matches
				if (matches[x] == undefined) {
					matches[x] = w;
				} else {
					if (w > matches[x]) {
						// overwrite with parent
						matches[x] = w;
					}
				}
				searching = 1;
			}
		}
		if (!searching)
			return;

		searchbtn.classList.add("show");
		searchbtn.firstChild.nodeValue = "Reset Search";

		// calculate percent matched, excluding vertical overlap
		var count = 0;
		var lastx = -1;
		var lastw = 0;
		var keys = Array();
		for (k in matches) {
			if (matches.hasOwnProperty(k))
				keys.push(k);
		}
		// sort the matched frames by their x location
		// ascending, then width descending
		keys.sort(function(a, b){
			return a - b;
		});
		// Step through frames saving only the biggest bottom-up frames
		// thanks to the sort order. This relies on the tree property
		// where children are always smaller than their parents.
		var fudge = 0.0001;	// JavaScript floating point
		for (var k in keys) {
			var x = parseFloat(keys[k]);
			var w = matches[keys[k]];
			if (x >= lastx + lastw - fudge) {
				count += w;
				lastx = x;
				lastw = w;
			}
		}
		// display matched percent
		matchedtxt.classList.remove("hide");
		var pct = 100 * count / maxwidth;
		if (pct != 100) pct = pct.toFixed(1)
		matchedtxt.firstChild.nodeValue = "Matched: " + pct + "%";
	}
]]>
</script>
<rect x="0" y="0" width="100%" height="100%" fill="rgb(240,240,220)"/>
<text id="title" x="600" y="24">Flame Graph</text>
<text id="details" x="10" y="549"> </text>
<text id="unzoom" x="10" y="24" class="hide">Reset Zoom</text>
<text id="search" x="1090" y="24">Search</text>
<text id="matched" x="1090" y="549"> </text>
<g id="frames">
<g>
<title>all (93 samples, 100.00%)</title><rect x="10.0" y="515.0" width="1180.0" height="15" fill="#f37272" rx="2" ry="2"/>
<text x="13.0" y="526.0">all</text>
</g>
<g>
<title>[not_walkable_Java] (1 samples, 1.08%)</title><rect x="10.0" y="499.0" width="12.7" height="15" fill="#f27171" rx="2" ry="2"/>
<text x="13.0" y="510.0"></text>
</g>
<g>
<title>OptoRuntime::new_array_nozero_C(Klass*, int, JavaThread*) (1 samples, 1.08%)</title><rect x="10.0" y="483.0" width="12.7" height="15" fill="#cfcf3e" rx="2" ry="2"/>
<text x="13.0" y="494.0"></text>
</g>
<g>
<title>OptoRuntime::is_deoptimized_caller_frame(JavaThread*) (1 samples, 1.08%)</title><rect x="10.0" y="467.0" width="12.7" height="15" fill="#e0e044" rx="2" ry="2"/>
<text x="13.0" y="478.0"></text>
</g>
<g>
<title>frame::sender(RegisterMap*) const (1 samples, 1.08%)</title><rect x="10.0" y="451.0" width="12.7" height="15" fill="#caca3c" rx="2" ry="2"/>
<text x="13.0" y="462.0"></text>
</g>
<g>
<title>OopMapStream::find_next() (1 samples, 1.08%)</title><rect x="10.0" y="435.0" width="12.7" height="15" fill="#caca3c" rx="2" ry="2"/>
<text x="13.0" y="446.0"></text>
</g>
<g>
<title>one/nio/server/SelectorThread.run (92 samples, 98.92%)</title><rect x="22.7" y="499.0" width="1167.3" height="15" fill="#6bfc6b" rx="2" ry="2"/>
<text x="25.7" y="510.0">one/nio/server/SelectorThread.run</text>
</g>
<g>
<title>one/nio/net/NativeSelector$2.next (5 samples, 5.38%)</title><rect x="22.7" y="483.0" width="63.4" height="15" fill="#55e655" rx="2" ry="2"/>
<text x="25.7" y="494.0">one/nio..</text>
</g>
<g>
<title>one/nio/net/NativeSelector$2.next (5 samples, 5.38%)</title><rect x="22.7" y="467.0" width="63.4" height="15" fill="#5eef5e" rx="2" ry="2"/>
<text x="25.7" y="478.0">one/nio..</text>
</g>
<g>
<title>one/nio/net/NativeSelector.epollWait (1 samples, 1.08%)</title><rect x="73.4" y="451.0" width="12.7" height="15" fill="#56e756" rx="2" ry="2"/>
<text x="76.4" y="462.0"></text>
</g>
<g>
<title>one/nio/net/NativeSelector.select (19 samples, 20.43%)</title><rect x="86.1" y="483.0" width="241.1" height="15" fill="#68f968" rx="2" ry="2"/>
<text x="89.1" y="494.0">one/nio/net/NativeSelector.select</text>
</g>
<g>
<title>one/nio/net/NativeSelector$2.&lt;init&gt; (2 samples, 2.15%)</title><rect x="86.1" y="467.0" width="25.4" height="15" fill="#58e958" rx="2" ry="2"/>
<text x="89.1" y="478.0">o..</text>
</g>
<g>
<title>one/nio/net/NativeSelector$2.findNext (2 samples, 2.15%)</title><rect x="86.1" y="451.0" width="25.4" height="15" fill="#5aeb5a" rx="2" ry="2"/>
<text x="89.1" y="462.0">o..</text>
</g>
<g>
<title>one/nio/net/NativeSelector.epollWait (17 samples, 18.28%)</title><rect x="111.5" y="467.0" width="215.7" height="15" fill="#6afb6a" rx="2" ry="2"/>
<text x="114.5" y="478.0">one/nio/net/NativeSelector.e..</text>
</g>
<g>
<title>Java_one_nio_net_NativeSelector_epollWait (2 samples, 2.15%)</title><rect x="136.9" y="451.0" width="25.4" height="15" fill="#eb6767" rx="2" ry="2"/>
<text x="139.9" y="462.0">J..</text>
</g>
<g>
<title>clock_gettime (8 samples, 8.60%)</title><rect x="162.3" y="451.0" width="101.5" height="15" fill="#f97a7a" rx="2" ry="2"/>
<text x="165.3" y="462.0">clock_gettime</text>
</g>
<g>
<title>clock_gettime (1 samples, 1.08%)</title><rect x="251.1" y="435.0" width="12.7" height="15" fill="#f47474" rx="2" ry="2"/>
<text x="254.1" y="446.0"></text>
</g>
<g>
<title>[vdso] (1 samples, 1.08%)</title><rect x="251.1" y="419.0" width="12.7" height="15" fill="#e25b5b" rx="2" ry="2"/>
<text x="254.1" y="430.0"></text>
</g>
<g>
<title>epoll_wait (5 samples, 5.38%)</title><rect x="263.8" y="451.0" width="63.4" height="15" fill="#e86464" rx="2" ry="2"/>
<text x="266.8" y="462.0">epoll_w..</text>
</g>
<g>
<title>one/nio/net/Session.process (68 samples, 73.12%)</title><rect x="327.2" y="483.0" width="862.8" height="15" fill="#67f867" rx="2" ry="2"/>
<text x="330.2" y="494.0">one/nio/net/Session.process</text>
</g>
<g>
<title>one/nio/http/HttpSession.processRead (68 samples, 73.12%)</title><rect x="327.2" y="467.0" width="862.8" height="15" fill="#62f362" rx="2" ry="2"/>
<text x="330.2" y="478.0">one/nio/http/HttpSession.processRead</text>
</g>
<g>
<title>one/nio/http/HttpSession.processHttpBuffer (53 samples, 56.99%)</title><rect x="339.9" y="451.0" width="672.5" height="15" fill="#69fa69" rx="2" ry="2"/>
<text x="342.9" y="462.0">one/nio/http/HttpSession.processHttpBuffer</text>
</g>
<g>
<title>one/nio/http/HttpSession.handleParsedRequest (49 samples, 52.69%)</title><rect x="339.9" y="435.0" width="621.7" height="15" fill="#59ea59" rx="2" ry="2"/>
<text x="342.9" y="446.0">one/nio/http/HttpSession.handleParsedRequest</text>
</g>
<g>
<title>one/nio/http/HttpServer.handleRequest (49 samples, 52.69%)</title><rect x="339.9" y="419.0" width="621.7" height="15" fill="#56e756" rx="2" ry="2"/>
<text x="342.9" y="430.0">one/nio/http/HttpServer.handleRequest</text>
</g>
<g>
<title>one/nio/http/PathMapper.find (1 samples, 1.08%)</title><rect x="339.9" y="403.0" width="12.7" height="15" fill="#55e655" rx="2" ry="2"/>
<text x="342.9" y="414.0"></text>
</g>
<g>
<title>java/util/HashMap.get (1 samples, 1.08%)</title><rect x="339.9" y="387.0" width="12.7" height="15" fill="#62f362" rx="2" ry="2"/>
<text x="342.9" y="398.0"></text>
</g>
<g>
<title>java/util/HashMap.getNode (1 samples, 1.08%)</title><rect x="339.9" y="371.0" width="12.7" height="15" fill="#53e453" rx="2" ry="2"/>
<text x="342.9" y="382.0"></text>
</g>
<g>
<title>java/lang/String.equals (1 samples, 1.08%)</title><rect x="339.9" y="355.0" width="12.7" height="15" fill="#64f564" rx="2" ry="2"/>
<text x="342.9" y="366.0"></text>
</g>
<g>
<title>ru/mail/polis/service/re1nex/MyService.handleDefault (48 samples, 51.61%)</title><rect x="352.6" y="403.0" width="609.0" height="15" fill="#67f867" rx="2" ry="2"/>
<text x="355.6" y="414.0">ru/mail/polis/service/re1nex/MyService.handleDefault</text>
</g>
<g>
<title>ch/qos/logback/classic/Logger.error (32 samples, 34.41%)</title><rect x="365.3" y="387.0" width="406.0" height="15" fill="#65f665" rx="2" ry="2"/>
<text x="368.3" y="398.0">ch/qos/logback/classic/Logger.error</text>
</g>
<g>
<title>ch/qos/logback/classic/Logger.filterAndLog_2 (32 samples, 34.41%)</title><rect x="365.3" y="371.0" width="406.0" height="15" fill="#56e756" rx="2" ry="2"/>
<text x="368.3" y="382.0">ch/qos/logback/classic/Logger.filterAndLog_2</text>
</g>
<g>
<title>ch/qos/logback/classic/Logger.buildLoggingEventAndAppend (32 samples, 34.41%)</title><rect x="365.3" y="355.0" width="406.0" height="15" fill="#5ced5c" rx="2" ry="2"/>
<text x="368.3" y="366.0">ch/qos/logback/classic/Logger.buildLoggingEventAndAppend</text>
</g>
<g>
<title>ch/qos/logback/classic/Logger.callAppenders (32 samples, 34.41%)</title><rect x="365.3" y="339.0" width="406.0" height="15" fill="#59ea59" rx="2" ry="2"/>
<text x="368.3" y="350.0">ch/qos/logback/classic/Logger.callAppenders</text>
</g>
<g>
<title>ch/qos/logback/classic/Logger.appendLoopOnAppenders (32 samples, 34.41%)</title><rect x="365.3" y="323.0" width="406.0" height="15" fill="#5dee5d" rx="2" ry="2"/>
<text x="368.3" y="334.0">ch/qos/logback/classic/Logger.appendLoopOnAppenders</text>
</g>
<g>
<title>ch/qos/logback/core/spi/AppenderAttachableImpl.appendLoopOnAppenders (32 samples, 34.41%)</title><rect x="365.3" y="307.0" width="406.0" height="15" fill="#56e756" rx="2" ry="2"/>
<text x="368.3" y="318.0">ch/qos/logback/core/spi/AppenderAttachableImpl.appendLoo..</text>
</g>
<g>
<title>ch/qos/logback/core/UnsynchronizedAppenderBase.doAppend (32 samples, 34.41%)</title><rect x="365.3" y="291.0" width="406.0" height="15" fill="#5bec5b" rx="2" ry="2"/>
<text x="368.3" y="302.0">ch/qos/logback/core/UnsynchronizedAppenderBase.doAppend</text>
</g>
<g>
<title>ch/qos/logback/core/OutputStreamAppender.append (29 samples, 31.18%)</title><rect x="378.0" y="275.0" width="367.9" height="15" fill="#5ff05f" rx="2" ry="2"/>
<text x="381.0" y="286.0">ch/qos/logback/core/OutputStreamAppender.append</text>
</g>
<g>
<title>ch/qos/logback/core/OutputStreamAppender.subAppend (29 samples, 31.18%)</title><rect x="378.0" y="259.0" width="367.9" height="15" fill="#54e554" rx="2" ry="2"/>
<text x="381.0" y="270.0">ch/qos/logback/core/OutputStreamAppender.subAppend</text>
</g>
<g>
<title>ch/qos/logback/classic/spi/LoggingEvent.prepareForDeferredProcessing (11 samples, 11.83%)</title><rect x="378.0" y="243.0" width="139.5" height="15" fill="#60f160" rx="2" ry="2"/>
<text x="381.0" y="254.0">ch/qos/logback/cl..</text>
</g>
<g>
<title>ch/qos/logback/classic/spi/LoggingEvent.getFormattedMessage (6 samples, 6.45%)</title><rect x="378.0" y="227.0" width="76.1" height="15" fill="#50e150" rx="2" ry="2"/>
<text x="381.0" y="238.0">ch/qos/l..</text>
</g>
<g>
<title>org/slf4j/helpers/MessageFormatter.arrayFormat (6 samples, 6.45%)</title><rect x="378.0" y="211.0" width="76.1" height="15" fill="#5bec5b" rx="2" ry="2"/>
<text x="381.0" y="222.0">org/slf4..</text>
</g>
<g>
<title>org/slf4j/helpers/MessageFormatter.arrayFormat (6 samples, 6.45%)</title><rect x="378.0" y="195.0" width="76.1" height="15" fill="#5bec5b" rx="2" ry="2"/>
<text x="381.0" y="206.0">org/slf4..</text>
</g>
<g>
<title>java/lang/String.indexOf (3 samples, 3.23%)</title><rect x="378.0" y="179.0" width="38.0" height="15" fill="#59ea59" rx="2" ry="2"/>
<text x="381.0" y="190.0">jav..</text>
</g>
<g>
<title>java/lang/String.indexOf (3 samples, 3.23%)</title><rect x="378.0" y="163.0" width="38.0" height="15" fill="#66f766" rx="2" ry="2"/>
<text x="381.0" y="174.0">jav..</text>
</g>
<g>
<title>jbyte_arraycopy (1 samples, 1.08%)</title><rect x="403.3" y="147.0" width="12.7" height="15" fill="#e86464" rx="2" ry="2"/>
<text x="406.3" y="158.0"></text>
</g>
<g>
<title>java/lang/StringBuilder.append (3 samples, 3.23%)</title><rect x="416.0" y="179.0" width="38.1" height="15" fill="#63f463" rx="2" ry="2"/>
<text x="419.0" y="190.0">jav..</text>
</g>
<g>
<title>java/lang/AbstractStringBuilder.append (3 samples, 3.23%)</title><rect x="416.0" y="163.0" width="38.1" height="15" fill="#60f160" rx="2" ry="2"/>
<text x="419.0" y="174.0">jav..</text>
</g>
<g>
<title>java/lang/AbstractStringBuilder.checkRange (1 samples, 1.08%)</title><rect x="416.0" y="147.0" width="12.7" height="15" fill="#6bfc6b" rx="2" ry="2"/>
<text x="419.0" y="158.0"></text>
</g>
<g>
<title>java/lang/AbstractStringBuilder.ensureCapacityInternal (1 samples, 1.08%)</title><rect x="428.7" y="147.0" width="12.7" height="15" fill="#64f564" rx="2" ry="2"/>
<text x="431.7" y="158.0"></text>
</g>
<g>
<title>java/lang/String.length (1 samples, 1.08%)</title><rect x="441.4" y="147.0" width="12.7" height="15" fill="#68f968" rx="2" ry="2"/>
<text x="444.4" y="158.0"></text>
</g>
<g>
<title>ch/qos/logback/classic/spi/LoggingEvent.getMDCPropertyMap (5 samples, 5.38%)</title><rect x="454.1" y="227.0" width="63.4" height="15" fill="#64f564" rx="2" ry="2"/>
<text x="457.1" y="238.0">ch/qos/..</text>
</g>
<g>
<title>ch/qos/logback/classic/util/LogbackMDCAdapter.getPropertyMap (3 samples, 3.23%)</title><rect x="479.5" y="211.0" width="38.0" height="15" fill="#59ea59" rx="2" ry="2"/>
<text x="482.5" y="222.0">ch/..</text>
</g>
<g>
<title>java/lang/ThreadLocal.get (3 samples, 3.23%)</title><rect x="479.5" y="195.0" width="38.0" height="15" fill="#63f463" rx="2" ry="2"/>
<text x="482.5" y="206.0">jav..</text>
</g>
<g>
<title>java/lang/ThreadLocal$ThreadLocalMap.getEntry (3 samples, 3.23%)</title><rect x="479.5" y="179.0" width="38.0" height="15" fill="#50e150" rx="2" ry="2"/>
<text x="482.5" y="190.0">jav..</text>
</g>
<g>
<title>java/lang/ThreadLocal$ThreadLocalMap.getEntryAfterMiss (3 samples, 3.23%)</title><rect x="479.5" y="163.0" width="38.0" height="15" fill="#5ff05f" rx="2" ry="2"/>
<text x="482.5" y="174.0">jav..</text>
</g>
<g>
<title>ch/qos/logback/classic/spi/LoggingEvent.getFormattedMessage (2 samples, 2.15%)</title><rect x="492.2" y="147.0" width="25.3" height="15" fill="#69fa69" rx="2" ry="2"/>
<text x="495.2" y="158.0">c..</text>
</g>
<g>
<title>ch/qos/logback/core/OutputStreamAppender.writeBytes (12 samples, 12.90%)</title><rect x="517.5" y="243.0" width="152.3" height="15" fill="#62f362" rx="2" ry="2"/>
<text x="520.5" y="254.0">ch/qos/logback/core..</text>
</g>
<g>
<title>ch/qos/logback/core/joran/spi/ConsoleTarget$1.flush (1 samples, 1.08%)</title><rect x="530.2" y="227.0" width="12.7" height="15" fill="#63f463" rx="2" ry="2"/>
<text x="533.2" y="238.0"></text>
</g>
<g>
<title>java/io/PrintStream.flush (1 samples, 1.08%)</title><rect x="530.2" y="211.0" width="12.7" height="15" fill="#5ff05f" rx="2" ry="2"/>
<text x="533.2" y="222.0"></text>
</g>
<g>
<title>jlong_disjoint_arraycopy (1 samples, 1.08%)</title><rect x="530.2" y="195.0" width="12.7" height="15" fill="#ed6a6a" rx="2" ry="2"/>
<text x="533.2" y="206.0"></text>
</g>
<g>
<title>ch/qos/logback/core/joran/spi/ConsoleTarget$1.write (10 samples, 10.75%)</title><rect x="542.9" y="227.0" width="126.9" height="15" fill="#5aeb5a" rx="2" ry="2"/>
<text x="545.9" y="238.0">ch/qos/logback/c..</text>
</g>
<g>
<title>java/io/FilterOutputStream.write (10 samples, 10.75%)</title><rect x="542.9" y="211.0" width="126.9" height="15" fill="#65f665" rx="2" ry="2"/>
<text x="545.9" y="222.0">java/io/FilterOu..</text>
</g>
<g>
<title>java/io/PrintStream.write (10 samples, 10.75%)</title><rect x="542.9" y="195.0" width="126.9" height="15" fill="#68f968" rx="2" ry="2"/>
<text x="545.9" y="206.0">java/io/PrintStr..</text>
</g>
<g>
<title>java/io/BufferedOutputStream.write (10 samples, 10.75%)</title><rect x="542.9" y="179.0" width="126.9" height="15" fill="#64f564" rx="2" ry="2"/>
<text x="545.9" y="190.0">java/io/Buffered..</text>
</g>
<g>
<title>java/io/FileOutputStream.write (10 samples, 10.75%)</title><rect x="542.9" y="163.0" width="126.9" height="15" fill="#54e554" rx="2" ry="2"/>
<text x="545.9" y="174.0">java/io/FileOutp..</text>
</g>
<g>
<title>java/io/FileOutputStream.writeBytes (10 samples, 10.75%)</title><rect x="542.9" y="147.0" width="126.9" height="15" fill="#50e150" rx="2" ry="2"/>
<text x="545.9" y="158.0">java/io/FileOutp..</text>
</g>
<g>
<title>Java_java_io_FileOutputStream_writeBytes (10 samples, 10.75%)</title><rect x="542.9" y="131.0" width="126.9" height="15" fill="#e25c5c" rx="2" ry="2"/>
<text x="545.9" y="142.0">Java_java_io_Fil..</text>
</g>
<g>
<title>handleWrite (1 samples, 1.08%)</title><rect x="542.9" y="115.0" width="12.7" height="15" fill="#f57575" rx="2" ry="2"/>
<text x="545.9" y="126.0"></text>
</g>
<g>
<title>jni_GetArrayLength (1 samples, 1.08%)</title><rect x="555.6" y="115.0" width="12.7" height="15" fill="#e66161" rx="2" ry="2"/>
<text x="558.6" y="126.0"></text>
</g>
<g>
<title>jni_GetObjectField (1 samples, 1.08%)</title><rect x="568.3" y="115.0" width="12.7" height="15" fill="#f37272" rx="2" ry="2"/>
<text x="571.3" y="126.0"></text>
</g>
<g>
<title>writeBytes (7 samples, 7.53%)</title><rect x="581.0" y="115.0" width="88.8" height="15" fill="#f67676" rx="2" ry="2"/>
<text x="584.0" y="126.0">writeBytes</text>
</g>
<g>
<title>JavaThread::check_and_handle_async_exceptions(bool) (1 samples, 1.08%)</title><rect x="581.0" y="99.0" width="12.7" height="15" fill="#d9d941" rx="2" ry="2"/>
<text x="584.0" y="110.0"></text>
</g>
<g>
<title>__libc_write (3 samples, 3.23%)</title><rect x="593.7" y="99.0" width="38.0" height="15" fill="#e15a5a" rx="2" ry="2"/>
<text x="596.7" y="110.0">__l..</text>
</g>
<g>
<title>jni_GetArrayLength (1 samples, 1.08%)</title><rect x="631.7" y="99.0" width="12.7" height="15" fill="#e15a5a" rx="2" ry="2"/>
<text x="634.7" y="110.0"></text>
</g>
<g>
<title>ThreadInVMfromNative::~ThreadInVMfromNative() (1 samples, 1.08%)</title><rect x="631.7" y="83.0" width="12.7" height="15" fill="#d1d13f" rx="2" ry="2"/>
<text x="634.7" y="94.0"></text>
</g>
<g>
<title>jni_GetObjectField (2 samples, 2.15%)</title><rect x="644.4" y="99.0" width="25.4" height="15" fill="#e86464" rx="2" ry="2"/>
<text x="647.4" y="110.0">j..</text>
</g>
<g>
<title>AccessInternal::PostRuntimeDispatch&lt;G1BarrierSet::AccessBarrier&lt;802934ul, G1BarrierSet&gt;, (AccessInternal::BarrierType)3, 802934ul&gt;::oop_access_barrier(oopDesc*, long) (1 samples, 1.08%)</title><rect x="657.1" y="83.0" width="12.7" height="15" fill="#dbdb42" rx="2" ry="2"/>
<text x="660.1" y="94.0"></text>
</g>
<g>
<title>java_lang_ref_Reference::is_referent_field(oopDesc*, long) (1 samples, 1.08%)</title><rect x="657.1" y="67.0" width="12.7" height="15" fill="#e1e144" rx="2" ry="2"/>
<text x="660.1" y="78.0"></text>
</g>
<g>
<title>ch/qos/logback/core/encoder/LayoutWrappingEncoder.encode (6 samples, 6.45%)</title><rect x="669.8" y="243.0" width="76.1" height="15" fill="#55e655" rx="2" ry="2"/>
<text x="672.8" y="254.0">ch/qos/l..</text>
</g>
<g>
<title>ch/qos/logback/classic/layout/TTLLLayout.doLayout (6 samples, 6.45%)</title><rect x="669.8" y="227.0" width="76.1" height="15" fill="#5aeb5a" rx="2" ry="2"/>
<text x="672.8" y="238.0">ch/qos/l..</text>
</g>
<g>
<title>ch/qos/logback/classic/layout/TTLLLayout.doLayout (6 samples, 6.45%)</title><rect x="669.8" y="211.0" width="76.1" height="15" fill="#64f564" rx="2" ry="2"/>
<text x="672.8" y="222.0">ch/qos/l..</text>
</g>
<g>
<title>ch/qos/logback/core/util/CachingDateFormatter.format (2 samples, 2.15%)</title><rect x="682.5" y="195.0" width="25.3" height="15" fill="#6afb6a" rx="2" ry="2"/>
<text x="685.5" y="206.0">c..</text>
</g>
<g>
<title>java/text/DateFormat.format (2 samples, 2.15%)</title><rect x="682.5" y="179.0" width="25.3" height="15" fill="#63f463" rx="2" ry="2"/>
<text x="685.5" y="190.0">j..</text>
</g>
<g>
<title>java/text/SimpleDateFormat.format (2 samples, 2.15%)</title><rect x="682.5" y="163.0" width="25.3" height="15" fill="#59ea59" rx="2" ry="2"/>
<text x="685.5" y="174.0">j..</text>
</g>
<g>
<title>java/text/SimpleDateFormat.format (2 samples, 2.15%)</title><rect x="682.5" y="147.0" width="25.3" height="15" fill="#6afb6a" rx="2" ry="2"/>
<text x="685.5" y="158.0">j..</text>
</g>
<g>
<title>java/text/SimpleDateFormat.subFormat (1 samples, 1.08%)</title><rect x="682.5" y="131.0" width="12.7" height="15" fill="#55e655" rx="2" ry="2"/>
<text x="685.5" y="142.0"></text>
</g>
<g>
<title>java/text/SimpleDateFormat.zeroPaddingNumber (1 samples, 1.08%)</title><rect x="682.5" y="115.0" width="12.7" height="15" fill="#54e554" rx="2" ry="2"/>
<text x="685.5" y="126.0"></text>
</g>
<g>
<title>java/text/DecimalFormat.format (1 samples, 1.08%)</title><rect x="682.5" y="99.0" width="12.7" height="15" fill="#5ff05f" rx="2" ry="2"/>
<text x="685.5" y="110.0"></text>
</g>
<g>
<title>java/text/DecimalFormat.format (1 samples, 1.08%)</title><rect x="682.5" y="83.0" width="12.7" height="15" fill="#68f968" rx="2" ry="2"/>
<text x="685.5" y="94.0"></text>
</g>
<g>
<title>java/text/DecimalFormat.subformat (1 samples, 1.08%)</title><rect x="682.5" y="67.0" width="12.7" height="15" fill="#64f564" rx="2" ry="2"/>
<text x="685.5" y="78.0"></text>
</g>
<g>
<title>java/lang/StringBuffer.append (1 samples, 1.08%)</title><rect x="682.5" y="51.0" width="12.7" height="15" fill="#6bfc6b" rx="2" ry="2"/>
<text x="685.5" y="62.0"></text>
</g>
<g>
<title>java/lang/AbstractStringBuilder.append (1 samples, 1.08%)</title><rect x="682.5" y="35.0" width="12.7" height="15" fill="#55e655" rx="2" ry="2"/>
<text x="685.5" y="46.0"></text>
</g>
<g>
<title>java/util/Calendar.setTime (1 samples, 1.08%)</title><rect x="695.2" y="131.0" width="12.6" height="15" fill="#5bec5b" rx="2" ry="2"/>
<text x="698.2" y="142.0"></text>
</g>
<g>
<title>java/util/Calendar.setTimeInMillis (1 samples, 1.08%)</title><rect x="695.2" y="115.0" width="12.6" height="15" fill="#65f665" rx="2" ry="2"/>
<text x="698.2" y="126.0"></text>
</g>
<g>
<title>java/util/GregorianCalendar.computeFields (1 samples, 1.08%)</title><rect x="695.2" y="99.0" width="12.6" height="15" fill="#6afb6a" rx="2" ry="2"/>
<text x="698.2" y="110.0"></text>
</g>
<g>
<title>java/util/GregorianCalendar.computeFields (1 samples, 1.08%)</title><rect x="695.2" y="83.0" width="12.6" height="15" fill="#60f160" rx="2" ry="2"/>
<text x="698.2" y="94.0"></text>
</g>
<g>
<title>sun/util/calendar/ZoneInfo.getOffsets (1 samples, 1.08%)</title><rect x="695.2" y="67.0" width="12.6" height="15" fill="#66f766" rx="2" ry="2"/>
<text x="698.2" y="78.0"></text>
</g>
<g>
<title>java/lang/StringBuilder.append (3 samples, 3.23%)</title><rect x="707.8" y="195.0" width="38.1" height="15" fill="#6bfc6b" rx="2" ry="2"/>
<text x="710.8" y="206.0">jav..</text>
</g>
<g>
<title>java/lang/AbstractStringBuilder.append (3 samples, 3.23%)</title><rect x="707.8" y="179.0" width="38.1" height="15" fill="#56e756" rx="2" ry="2"/>
<text x="710.8" y="190.0">jav..</text>
</g>
<g>
<title>java/lang/AbstractStringBuilder.ensureCapacityInternal (3 samples, 3.23%)</title><rect x="707.8" y="163.0" width="38.1" height="15" fill="#6bfc6b" rx="2" ry="2"/>
<text x="710.8" y="174.0">jav..</text>
</g>
<g>
<title>java/util/Arrays.copyOf (1 samples, 1.08%)</title><rect x="733.2" y="147.0" width="12.7" height="15" fill="#60f160" rx="2" ry="2"/>
<text x="736.2" y="158.0"></text>
</g>
<g>
<title>java/lang/ThreadLocal.get (1 samples, 1.08%)</title><rect x="745.9" y="275.0" width="12.7" height="15" fill="#6cfd6c" rx="2" ry="2"/>
<text x="748.9" y="286.0"></text>
</g>
<g>
<title>java/lang/ThreadLocal$ThreadLocalMap.getEntry (1 samples, 1.08%)</title><rect x="745.9" y="259.0" width="12.7" height="15" fill="#5eef5e" rx="2" ry="2"/>
<text x="748.9" y="270.0"></text>
</g>
<g>
<title>java/lang/ThreadLocal$ThreadLocalMap.getEntryAfterMiss (1 samples, 1.08%)</title><rect x="745.9" y="243.0" width="12.7" height="15" fill="#60f160" rx="2" ry="2"/>
<text x="748.9" y="254.0"></text>
</g>
<g>
<title>java/lang/ThreadLocal.set (1 samples, 1.08%)</title><rect x="758.6" y="275.0" width="12.7" height="15" fill="#6cfd6c" rx="2" ry="2"/>
<text x="761.6" y="286.0"></text>
</g>
<g>
<title>java/lang/ThreadLocal.getMap (1 samples, 1.08%)</title><rect x="758.6" y="259.0" width="12.7" height="15" fill="#67f867" rx="2" ry="2"/>
<text x="761.6" y="270.0"></text>
</g>
<g>
<title>one/nio/http/HttpSession.sendResponse (15 samples, 16.13%)</title><rect x="771.3" y="387.0" width="190.3" height="15" fill="#68f968" rx="2" ry="2"/>
<text x="774.3" y="398.0">one/nio/http/HttpSession...</text>
</g>
<g>
<title>one/nio/http/HttpSession.writeResponse (11 samples, 11.83%)</title><rect x="784.0" y="371.0" width="139.5" height="15" fill="#61f261" rx="2" ry="2"/>
<text x="787.0" y="382.0">one/nio/http/Http..</text>
</g>
<g>
<title>one/nio/http/Response.toBytes (4 samples, 4.30%)</title><rect x="784.0" y="355.0" width="50.7" height="15" fill="#63f463" rx="2" ry="2"/>
<text x="787.0" y="366.0">one/n..</text>
</g>
<g>
<title>one/nio/util/ByteArrayBuilder.append (3 samples, 3.23%)</title><rect x="796.7" y="339.0" width="38.0" height="15" fill="#6dfe6d" rx="2" ry="2"/>
<text x="799.7" y="350.0">one..</text>
</g>
<g>
<title>one/nio/util/Utf8.length (3 samples, 3.23%)</title><rect x="796.7" y="323.0" width="38.0" height="15" fill="#6cfd6c" rx="2" ry="2"/>
<text x="799.7" y="334.0">one..</text>
</g>
<g>
<title>java/lang/String.charAt (3 samples, 3.23%)</title><rect x="796.7" y="307.0" width="38.0" height="15" fill="#59ea59" rx="2" ry="2"/>
<text x="799.7" y="318.0">jav..</text>
</g>
<g>
<title>jbyte_disjoint_arraycopy (2 samples, 2.15%)</title><rect x="809.4" y="291.0" width="25.3" height="15" fill="#fb7c7c" rx="2" ry="2"/>
<text x="812.4" y="302.0">j..</text>
</g>
<g>
<title>one/nio/net/Session.write (7 samples, 7.53%)</title><rect x="834.7" y="355.0" width="88.8" height="15" fill="#61f261" rx="2" ry="2"/>
<text x="837.7" y="366.0">one/nio/ne..</text>
</g>
<g>
<title>one/nio/net/Session.write (7 samples, 7.53%)</title><rect x="834.7" y="339.0" width="88.8" height="15" fill="#63f463" rx="2" ry="2"/>
<text x="837.7" y="350.0">one/nio/ne..</text>
</g>
<g>
<title>one/nio/net/Session$ArrayQueueItem.write (7 samples, 7.53%)</title><rect x="834.7" y="323.0" width="88.8" height="15" fill="#66f766" rx="2" ry="2"/>
<text x="837.7" y="334.0">one/nio/ne..</text>
</g>
<g>
<title>one/nio/net/NativeSocket.write (6 samples, 6.45%)</title><rect x="847.4" y="307.0" width="76.1" height="15" fill="#67f867" rx="2" ry="2"/>
<text x="850.4" y="318.0">one/nio/..</text>
</g>
<g>
<title>__send (6 samples, 6.45%)</title><rect x="847.4" y="291.0" width="76.1" height="15" fill="#f87979" rx="2" ry="2"/>
<text x="850.4" y="302.0">__send</text>
</g>
<g>
<title>one/nio/http/Request.getHeader (3 samples, 3.23%)</title><rect x="923.5" y="371.0" width="38.1" height="15" fill="#57e857" rx="2" ry="2"/>
<text x="926.5" y="382.0">one..</text>
</g>
<g>
<title>java/lang/String.regionMatches (2 samples, 2.15%)</title><rect x="936.2" y="355.0" width="25.4" height="15" fill="#62f362" rx="2" ry="2"/>
<text x="939.2" y="366.0">j..</text>
</g>
<g>
<title>java/lang/StringLatin1.regionMatchesCI (2 samples, 2.15%)</title><rect x="936.2" y="339.0" width="25.4" height="15" fill="#5eef5e" rx="2" ry="2"/>
<text x="939.2" y="350.0">j..</text>
</g>
<g>
<title>gettimeofday (1 samples, 1.08%)</title><rect x="936.2" y="323.0" width="12.7" height="15" fill="#e66060" rx="2" ry="2"/>
<text x="939.2" y="334.0"></text>
</g>
<g>
<title>os::javaTimeMillis() (1 samples, 1.08%)</title><rect x="948.9" y="323.0" width="12.7" height="15" fill="#dfdf43" rx="2" ry="2"/>
<text x="951.9" y="334.0"></text>
</g>
<g>
<title>gettimeofday (1 samples, 1.08%)</title><rect x="948.9" y="307.0" width="12.7" height="15" fill="#fa7c7c" rx="2" ry="2"/>
<text x="951.9" y="318.0"></text>
</g>
<g>
<title>[vdso] (1 samples, 1.08%)</title><rect x="948.9" y="291.0" width="12.7" height="15" fill="#fb7c7c" rx="2" ry="2"/>
<text x="951.9" y="302.0"></text>
</g>
<g>
<title>one/nio/http/HttpSession.parseRequest (2 samples, 2.15%)</title><rect x="961.6" y="435.0" width="25.4" height="15" fill="#63f463" rx="2" ry="2"/>
<text x="964.6" y="446.0">o..</text>
</g>
<g>
<title>one/nio/http/Request.&lt;init&gt; (1 samples, 1.08%)</title><rect x="961.6" y="419.0" width="12.7" height="15" fill="#5ced5c" rx="2" ry="2"/>
<text x="964.6" y="430.0"></text>
</g>
<g>
<title>java/lang/String.indexOf (1 samples, 1.08%)</title><rect x="961.6" y="403.0" width="12.7" height="15" fill="#62f362" rx="2" ry="2"/>
<text x="964.6" y="414.0"></text>
</g>
<g>
<title>java/lang/String.indexOf (1 samples, 1.08%)</title><rect x="961.6" y="387.0" width="12.7" height="15" fill="#61f261" rx="2" ry="2"/>
<text x="964.6" y="398.0"></text>
</g>
<g>
<title>one/nio/util/Utf8.read (1 samples, 1.08%)</title><rect x="974.3" y="419.0" width="12.7" height="15" fill="#63f463" rx="2" ry="2"/>
<text x="977.3" y="430.0"></text>
</g>
<g>
<title>one/nio/util/Utf8.read (1 samples, 1.08%)</title><rect x="974.3" y="403.0" width="12.7" height="15" fill="#60f160" rx="2" ry="2"/>
<text x="977.3" y="414.0"></text>
</g>
<g>
<title>one/nio/http/HttpSession.startParsingRequestBody (1 samples, 1.08%)</title><rect x="987.0" y="435.0" width="12.7" height="15" fill="#54e554" rx="2" ry="2"/>
<text x="990.0" y="446.0"></text>
</g>
<g>
<title>one/nio/http/Request.setBody (1 samples, 1.08%)</title><rect x="987.0" y="419.0" width="12.7" height="15" fill="#61f261" rx="2" ry="2"/>
<text x="990.0" y="430.0"></text>
</g>
<g>
<title>one/nio/http/Request.getHeader (1 samples, 1.08%)</title><rect x="999.7" y="435.0" width="12.7" height="15" fill="#50e150" rx="2" ry="2"/>
<text x="1002.7" y="446.0"></text>
</g>
<g>
<title>java/lang/String.regionMatches (1 samples, 1.08%)</title><rect x="999.7" y="419.0" width="12.7" height="15" fill="#65f665" rx="2" ry="2"/>
<text x="1002.7" y="430.0"></text>
</g>
<g>
<title>java/lang/StringLatin1.regionMatchesCI (1 samples, 1.08%)</title><rect x="999.7" y="403.0" width="12.7" height="15" fill="#5ff05f" rx="2" ry="2"/>
<text x="1002.7" y="414.0"></text>
</g>
<g>
<title>one/nio/net/Session.read (14 samples, 15.05%)</title><rect x="1012.4" y="451.0" width="177.6" height="15" fill="#68f968" rx="2" ry="2"/>
<text x="1015.4" y="462.0">one/nio/net/Session.read</text>
</g>
<g>
<title>one/nio/net/NativeSocket.read (14 samples, 15.05%)</title><rect x="1012.4" y="435.0" width="177.6" height="15" fill="#5ff05f" rx="2" ry="2"/>
<text x="1015.4" y="446.0">one/nio/net/NativeSocke..</text>
</g>
<g>
<title>Java_one_nio_net_NativeSocket_read (8 samples, 8.60%)</title><rect x="1012.4" y="419.0" width="101.5" height="15" fill="#e45e5e" rx="2" ry="2"/>
<text x="1015.4" y="430.0">Java_one_nio..</text>
</g>
<g>
<title>/usr/lib/x86_64-linux-gnu/libc-2.31.so (1 samples, 1.08%)</title><rect x="1050.4" y="403.0" width="12.7" height="15" fill="#ef6d6d" rx="2" ry="2"/>
<text x="1053.4" y="414.0"></text>
</g>
<g>
<title>HandleMark::pop_and_restore() (2 samples, 2.15%)</title><rect x="1063.1" y="403.0" width="25.4" height="15" fill="#d7d741" rx="2" ry="2"/>
<text x="1066.1" y="414.0">H..</text>
</g>
<g>
<title>jni_SetByteArrayRegion (1 samples, 1.08%)</title><rect x="1088.5" y="403.0" width="12.7" height="15" fill="#e25b5b" rx="2" ry="2"/>
<text x="1091.5" y="414.0"></text>
</g>
<g>
<title>void AccessInternal::arraycopy_conjoint&lt;signed char&gt;(signed char*, signed char*, unsigned long) (1 samples, 1.08%)</title><rect x="1101.2" y="403.0" width="12.7" height="15" fill="#e0e044" rx="2" ry="2"/>
<text x="1104.2" y="414.0"></text>
</g>
<g>
<title>__pthread_enable_asynccancel (1 samples, 1.08%)</title><rect x="1113.9" y="419.0" width="12.7" height="15" fill="#ec6969" rx="2" ry="2"/>
<text x="1116.9" y="430.0"></text>
</g>
<g>
<title>jni_SetByteArrayRegion (1 samples, 1.08%)</title><rect x="1126.6" y="419.0" width="12.6" height="15" fill="#f47373" rx="2" ry="2"/>
<text x="1129.6" y="430.0"></text>
</g>
<g>
<title>recv (4 samples, 4.30%)</title><rect x="1139.2" y="419.0" width="50.8" height="15" fill="#ee6c6c" rx="2" ry="2"/>
<text x="1142.2" y="430.0">recv</text>
</g>
</g>
</svg>
