<?xml version="1.0" standalone="no"?>
<!DOCTYPE svg PUBLIC "-//W3C//DTD SVG 1.1//EN" "http://www.w3.org/Graphics/SVG/1.1/DTD/svg11.dtd">
<svg version="1.1" width="1200" height="566" onload="init(evt)" viewBox="0 0 1200 566" xmlns="http://www.w3.org/2000/svg" xmlns:xlink="http://www.w3.org/1999/xlink">
<style type="text/css">
	text { font-family:Verdana; font-size:12px; fill:rgb(0,0,0); }
	#search { opacity:0.1; cursor:pointer; }
	#search:hover, #search.show { opacity:1; }
	#subtitle { text-anchor:middle; font-color:rgb(160,160,160); }
	#title { text-anchor:middle; font-size:17px}
	#unzoom { cursor:pointer; }
	#frames > *:hover { stroke:black; stroke-width:0.5; cursor:pointer; }
	.hide { display:none; }
	.parent { opacity:0.5; }
</style>
<script type="text/ecmascript">
<![CDATA[
	"use strict";
	var details, searchbtn, unzoombtn, matchedtxt, svg, searching;
	function init(evt) {
		details = document.getElementById("details").firstChild;
		searchbtn = document.getElementById("search");
		unzoombtn = document.getElementById("unzoom");
		matchedtxt = document.getElementById("matched");
		svg = document.getElementsByTagName("svg")[0];
		searching = 0;
	}

	window.addEventListener("click", function(e) {
		var target = find_group(e.target);
		if (target) {
			if (target.nodeName == "a") {
				if (e.ctrlKey === false) return;
				e.preventDefault();
			}
			if (target.classList.contains("parent")) unzoom();
			zoom(target);
		}
		else if (e.target.id == "unzoom") unzoom();
		else if (e.target.id == "search") search_prompt();
	}, false)

	// mouse-over for info
	// show
	window.addEventListener("mouseover", function(e) {
		var target = find_group(e.target);
		if (target) details.nodeValue = "Function: " + g_to_text(target);
	}, false)

	// clear
	window.addEventListener("mouseout", function(e) {
		var target = find_group(e.target);
		if (target) details.nodeValue = ' ';
	}, false)

	// ctrl-F for search
	window.addEventListener("keydown",function (e) {
		if (e.keyCode === 114 || (e.ctrlKey && e.keyCode === 70)) {
			e.preventDefault();
			search_prompt();
		}
	}, false)

	// functions
	function find_child(node, selector) {
		var children = node.querySelectorAll(selector);
		if (children.length) return children[0];
		return;
	}
	function find_group(node) {
		var parent = node.parentElement;
		if (!parent) return;
		if (parent.id == "frames") return node;
		return find_group(parent);
	}
	function orig_save(e, attr, val) {
		if (e.attributes["_orig_" + attr] != undefined) return;
		if (e.attributes[attr] == undefined) return;
		if (val == undefined) val = e.attributes[attr].value;
		e.setAttribute("_orig_" + attr, val);
	}
	function orig_load(e, attr) {
		if (e.attributes["_orig_"+attr] == undefined) return;
		e.attributes[attr].value = e.attributes["_orig_" + attr].value;
		e.removeAttribute("_orig_"+attr);
	}
	function g_to_text(e) {
		var text = find_child(e, "title").firstChild.nodeValue;
		return (text)
	}
	function g_to_func(e) {
		var func = g_to_text(e);
		// if there's any manipulation we want to do to the function
		// name before it's searched, do it here before returning.
		return (func);
	}
	function update_text(e) {
		var r = find_child(e, "rect");
		var t = find_child(e, "text");
		var w = parseFloat(r.attributes.width.value) -3;
		var txt = find_child(e, "title").textContent.replace(/\([^(]*\)$/,"");
		t.attributes.x.value = parseFloat(r.attributes.x.value) + 3;

		// Smaller than this size won't fit anything
		if (w < 2 * 12 * 0.59) {
			t.textContent = "";
			return;
		}

		t.textContent = txt;
		// Fit in full text width
		if (/^ *$/.test(txt) || t.getSubStringLength(0, txt.length) < w)
			return;

		for (var x = txt.length - 2; x > 0; x--) {
			if (t.getSubStringLength(0, x + 2) <= w) {
				t.textContent = txt.substring(0, x) + "..";
				return;
			}
		}
		t.textContent = "";
	}

	// zoom
	function zoom_reset(e) {
		if (e.attributes != undefined) {
			orig_load(e, "x");
			orig_load(e, "width");
		}
		if (e.childNodes == undefined) return;
		for (var i = 0, c = e.childNodes; i < c.length; i++) {
			zoom_reset(c[i]);
		}
	}
	function zoom_child(e, x, ratio) {
		if (e.attributes != undefined) {
			if (e.attributes.x != undefined) {
				orig_save(e, "x");
				e.attributes.x.value = (parseFloat(e.attributes.x.value) - x - 10) * ratio + 10;
				if (e.tagName == "text")
					e.attributes.x.value = find_child(e.parentNode, "rect[x]").attributes.x.value + 3;
			}
			if (e.attributes.width != undefined) {
				orig_save(e, "width");
				e.attributes.width.value = parseFloat(e.attributes.width.value) * ratio;
			}
		}

		if (e.childNodes == undefined) return;
		for (var i = 0, c = e.childNodes; i < c.length; i++) {
			zoom_child(c[i], x - 10, ratio);
		}
	}
	function zoom_parent(e) {
		if (e.attributes) {
			if (e.attributes.x != undefined) {
				orig_save(e, "x");
				e.attributes.x.value = 10;
			}
			if (e.attributes.width != undefined) {
				orig_save(e, "width");
				e.attributes.width.value = parseInt(svg.width.baseVal.value) - (10 * 2);
			}
		}
		if (e.childNodes == undefined) return;
		for (var i = 0, c = e.childNodes; i < c.length; i++) {
			zoom_parent(c[i]);
		}
	}
	function zoom(node) {
		var attr = find_child(node, "rect").attributes;
		var width = parseFloat(attr.width.value);
		var xmin = parseFloat(attr.x.value);
		var xmax = parseFloat(xmin + width);
		var ymin = parseFloat(attr.y.value);
		var ratio = (svg.width.baseVal.value - 2 * 10) / width;

		// XXX: Workaround for JavaScript float issues (fix me)
		var fudge = 0.0001;

		unzoombtn.classList.remove("hide");

		var el = document.getElementById("frames").children;
		for (var i = 0; i < el.length; i++) {
			var e = el[i];
			var a = find_child(e, "rect").attributes;
			var ex = parseFloat(a.x.value);
			var ew = parseFloat(a.width.value);
			var upstack;
			// Is it an ancestor
			if (0 == 0) {
				upstack = parseFloat(a.y.value) > ymin;
			} else {
				upstack = parseFloat(a.y.value) < ymin;
			}
			if (upstack) {
				// Direct ancestor
				if (ex <= xmin && (ex+ew+fudge) >= xmax) {
					e.classList.add("parent");
					zoom_parent(e);
					update_text(e);
				}
				// not in current path
				else
					e.classList.add("hide");
			}
			// Children maybe
			else {
				// no common path
				if (ex < xmin || ex + fudge >= xmax) {
					e.classList.add("hide");
				}
				else {
					zoom_child(e, xmin, ratio);
					update_text(e);
				}
			}
		}
	}
	function unzoom() {
		unzoombtn.classList.add("hide");
		var el = document.getElementById("frames").children;
		for(var i = 0; i < el.length; i++) {
			el[i].classList.remove("parent");
			el[i].classList.remove("hide");
			zoom_reset(el[i]);
			update_text(el[i]);
		}
	}

	// search
	function reset_search() {
		var el = document.querySelectorAll("#frames rect");
		for (var i = 0; i < el.length; i++) {
			orig_load(el[i], "fill")
		}
	}
	function search_prompt() {
		if (!searching) {
			var term = prompt("Enter a search term (regexp " +
			    "allowed, eg: ^ext4_)", "");
			if (term != null) {
				search(term)
			}
		} else {
			reset_search();
			searching = 0;
			searchbtn.classList.remove("show");
			searchbtn.firstChild.nodeValue = "Search"
			matchedtxt.classList.add("hide");
			matchedtxt.firstChild.nodeValue = ""
		}
	}
	function search(term) {
		var re = new RegExp(term);
		var el = document.getElementById("frames").children;
		var matches = new Object();
		var maxwidth = 0;
		for (var i = 0; i < el.length; i++) {
			var e = el[i];
			var func = g_to_func(e);
			var rect = find_child(e, "rect");
			if (func == null || rect == null)
				continue;

			// Save max width. Only works as we have a root frame
			var w = parseFloat(rect.attributes.width.value);
			if (w > maxwidth)
				maxwidth = w;

			if (func.match(re)) {
				// highlight
				var x = parseFloat(rect.attributes.x.value);
				orig_save(rect, "fill");
				rect.attributes.fill.value = "rgb(230,0,230)";

				// remember matches
				if (matches[x] == undefined) {
					matches[x] = w;
				} else {
					if (w > matches[x]) {
						// overwrite with parent
						matches[x] = w;
					}
				}
				searching = 1;
			}
		}
		if (!searching)
			return;

		searchbtn.classList.add("show");
		searchbtn.firstChild.nodeValue = "Reset Search";

		// calculate percent matched, excluding vertical overlap
		var count = 0;
		var lastx = -1;
		var lastw = 0;
		var keys = Array();
		for (k in matches) {
			if (matches.hasOwnProperty(k))
				keys.push(k);
		}
		// sort the matched frames by their x location
		// ascending, then width descending
		keys.sort(function(a, b){
			return a - b;
		});
		// Step through frames saving only the biggest bottom-up frames
		// thanks to the sort order. This relies on the tree property
		// where children are always smaller than their parents.
		var fudge = 0.0001;	// JavaScript floating point
		for (var k in keys) {
			var x = parseFloat(keys[k]);
			var w = matches[keys[k]];
			if (x >= lastx + lastw - fudge) {
				count += w;
				lastx = x;
				lastw = w;
			}
		}
		// display matched percent
		matchedtxt.classList.remove("hide");
		var pct = 100 * count / maxwidth;
		if (pct != 100) pct = pct.toFixed(1)
		matchedtxt.firstChild.nodeValue = "Matched: " + pct + "%";
	}
]]>
</script>
<rect x="0" y="0" width="100%" height="100%" fill="rgb(240,240,220)"/>
<text id="title" x="600" y="24">Flame Graph</text>
<text id="details" x="10" y="549"> </text>
<text id="unzoom" x="10" y="24" class="hide">Reset Zoom</text>
<text id="search" x="1090" y="24">Search</text>
<text id="matched" x="1090" y="549"> </text>
<g id="frames">
<g>
<title>all (103 samples, 100.00%)</title><rect x="10.0" y="515.0" width="1180.0" height="15" fill="#e45e5e" rx="2" ry="2"/>
<text x="13.0" y="526.0">all</text>
</g>
<g>
<title>one/nio/server/SelectorThread.run (102 samples, 99.03%)</title><rect x="10.0" y="499.0" width="1168.5" height="15" fill="#69fa69" rx="2" ry="2"/>
<text x="13.0" y="510.0">one/nio/server/SelectorThread.run</text>
</g>
<g>
<title>one/nio/net/NativeSelector.select (15 samples, 14.56%)</title><rect x="21.5" y="483.0" width="171.8" height="15" fill="#62f362" rx="2" ry="2"/>
<text x="24.5" y="494.0">one/nio/net/NativeSele..</text>
</g>
<g>
<title>one/nio/net/NativeSelector.epollWait (15 samples, 14.56%)</title><rect x="21.5" y="467.0" width="171.8" height="15" fill="#65f665" rx="2" ry="2"/>
<text x="24.5" y="478.0">one/nio/net/NativeSele..</text>
</g>
<g>
<title>/usr/lib/x86_64-linux-gnu/libc-2.31.so (3 samples, 2.91%)</title><rect x="32.9" y="451.0" width="34.4" height="15" fill="#fc7e7e" rx="2" ry="2"/>
<text x="35.9" y="462.0">/u..</text>
</g>
<g>
<title>Java_one_nio_net_NativeSelector_epollWait (2 samples, 1.94%)</title><rect x="67.3" y="451.0" width="22.9" height="15" fill="#e66161" rx="2" ry="2"/>
<text x="70.3" y="462.0">J..</text>
</g>
<g>
<title>clock_gettime (4 samples, 3.88%)</title><rect x="90.2" y="451.0" width="45.8" height="15" fill="#e96565" rx="2" ry="2"/>
<text x="93.2" y="462.0">cloc..</text>
</g>
<g>
<title>clock_gettime (1 samples, 0.97%)</title><rect x="124.6" y="435.0" width="11.4" height="15" fill="#e66060" rx="2" ry="2"/>
<text x="127.6" y="446.0"></text>
</g>
<g>
<title>[vdso] (1 samples, 0.97%)</title><rect x="124.6" y="419.0" width="11.4" height="15" fill="#e76262" rx="2" ry="2"/>
<text x="127.6" y="430.0"></text>
</g>
<g>
<title>epoll_wait (5 samples, 4.85%)</title><rect x="136.0" y="451.0" width="57.3" height="15" fill="#f37373" rx="2" ry="2"/>
<text x="139.0" y="462.0">epoll_..</text>
</g>
<g>
<title>one/nio/net/Session.process (86 samples, 83.50%)</title><rect x="193.3" y="483.0" width="985.2" height="15" fill="#55e655" rx="2" ry="2"/>
<text x="196.3" y="494.0">one/nio/net/Session.process</text>
</g>
<g>
<title>one/nio/http/HttpSession.processRead (86 samples, 83.50%)</title><rect x="193.3" y="467.0" width="985.2" height="15" fill="#53e453" rx="2" ry="2"/>
<text x="196.3" y="478.0">one/nio/http/HttpSession.processRead</text>
</g>
<g>
<title>one/nio/http/HttpSession.processHttpBuffer (73 samples, 70.87%)</title><rect x="193.3" y="451.0" width="836.3" height="15" fill="#56e756" rx="2" ry="2"/>
<text x="196.3" y="462.0">one/nio/http/HttpSession.processHttpBuffer</text>
</g>
<g>
<title>one/nio/http/HttpSession.handleParsedRequest (68 samples, 66.02%)</title><rect x="216.2" y="435.0" width="779.0" height="15" fill="#6cfd6c" rx="2" ry="2"/>
<text x="219.2" y="446.0">one/nio/http/HttpSession.handleParsedRequest</text>
</g>
<g>
<title>one/nio/http/HttpServer.handleRequest (68 samples, 66.02%)</title><rect x="216.2" y="419.0" width="779.0" height="15" fill="#50e150" rx="2" ry="2"/>
<text x="219.2" y="430.0">one/nio/http/HttpServer.handleRequest</text>
</g>
<g>
<title>RequestHandler3_delete.handleRequest (68 samples, 66.02%)</title><rect x="216.2" y="403.0" width="779.0" height="15" fill="#54e554" rx="2" ry="2"/>
<text x="219.2" y="414.0">RequestHandler3_delete.handleRequest</text>
</g>
<g>
<title>one/nio/http/HttpSession.sendResponse (10 samples, 9.71%)</title><rect x="216.2" y="387.0" width="114.6" height="15" fill="#53e453" rx="2" ry="2"/>
<text x="219.2" y="398.0">one/nio/http/H..</text>
</g>
<g>
<title>one/nio/http/HttpSession.writeResponse (7 samples, 6.80%)</title><rect x="216.2" y="371.0" width="80.2" height="15" fill="#5dee5d" rx="2" ry="2"/>
<text x="219.2" y="382.0">one/nio/h..</text>
</g>
<g>
<title>one/nio/http/Response.toBytes (3 samples, 2.91%)</title><rect x="227.7" y="355.0" width="34.3" height="15" fill="#63f463" rx="2" ry="2"/>
<text x="230.7" y="366.0">on..</text>
</g>
<g>
<title>one/nio/net/Session.write (3 samples, 2.91%)</title><rect x="262.0" y="355.0" width="34.4" height="15" fill="#6bfc6b" rx="2" ry="2"/>
<text x="265.0" y="366.0">on..</text>
</g>
<g>
<title>one/nio/net/Session.write (3 samples, 2.91%)</title><rect x="262.0" y="339.0" width="34.4" height="15" fill="#53e453" rx="2" ry="2"/>
<text x="265.0" y="350.0">on..</text>
</g>
<g>
<title>one/nio/net/Session$ArrayQueueItem.write (3 samples, 2.91%)</title><rect x="262.0" y="323.0" width="34.4" height="15" fill="#62f362" rx="2" ry="2"/>
<text x="265.0" y="334.0">on..</text>
</g>
<g>
<title>one/nio/net/NativeSocket.write (3 samples, 2.91%)</title><rect x="262.0" y="307.0" width="34.4" height="15" fill="#52e352" rx="2" ry="2"/>
<text x="265.0" y="318.0">on..</text>
</g>
<g>
<title>__send (3 samples, 2.91%)</title><rect x="262.0" y="291.0" width="34.4" height="15" fill="#ec6969" rx="2" ry="2"/>
<text x="265.0" y="302.0">__..</text>
</g>
<g>
<title>one/nio/http/Request.getHeader (3 samples, 2.91%)</title><rect x="296.4" y="371.0" width="34.4" height="15" fill="#5eef5e" rx="2" ry="2"/>
<text x="299.4" y="382.0">on..</text>
</g>
<g>
<title>java/lang/String.regionMatches (1 samples, 0.97%)</title><rect x="319.3" y="355.0" width="11.5" height="15" fill="#5dee5d" rx="2" ry="2"/>
<text x="322.3" y="366.0"></text>
</g>
<g>
<title>java/lang/StringLatin1.regionMatchesCI (1 samples, 0.97%)</title><rect x="319.3" y="339.0" width="11.5" height="15" fill="#58e958" rx="2" ry="2"/>
<text x="322.3" y="350.0"></text>
</g>
<g>
<title>[unknown] (1 samples, 0.97%)</title><rect x="319.3" y="323.0" width="11.5" height="15" fill="#e86363" rx="2" ry="2"/>
<text x="322.3" y="334.0"></text>
</g>
<g>
<title>os::javaTimeMillis() (1 samples, 0.97%)</title><rect x="319.3" y="307.0" width="11.5" height="15" fill="#e3e345" rx="2" ry="2"/>
<text x="322.3" y="318.0"></text>
</g>
<g>
<title>one/nio/http/Request.getRequiredParameter (4 samples, 3.88%)</title><rect x="330.8" y="387.0" width="45.8" height="15" fill="#60f160" rx="2" ry="2"/>
<text x="333.8" y="398.0">one/..</text>
</g>
<g>
<title>one/nio/http/Request.getParameter (3 samples, 2.91%)</title><rect x="330.8" y="371.0" width="34.3" height="15" fill="#55e655" rx="2" ry="2"/>
<text x="333.8" y="382.0">on..</text>
</g>
<g>
<title>java/lang/String.indexOf (1 samples, 0.97%)</title><rect x="330.8" y="355.0" width="11.4" height="15" fill="#51e251" rx="2" ry="2"/>
<text x="333.8" y="366.0"></text>
</g>
<g>
<title>java/lang/StringLatin1.indexOf (1 samples, 0.97%)</title><rect x="330.8" y="339.0" width="11.4" height="15" fill="#5ced5c" rx="2" ry="2"/>
<text x="333.8" y="350.0"></text>
</g>
<g>
<title>jbyte_disjoint_arraycopy (1 samples, 0.97%)</title><rect x="330.8" y="323.0" width="11.4" height="15" fill="#f97a7a" rx="2" ry="2"/>
<text x="333.8" y="334.0"></text>
</g>
<g>
<title>java/lang/String.startsWith (2 samples, 1.94%)</title><rect x="342.2" y="355.0" width="22.9" height="15" fill="#66f766" rx="2" ry="2"/>
<text x="345.2" y="366.0">j..</text>
</g>
<g>
<title>java/lang/String.length (2 samples, 1.94%)</title><rect x="342.2" y="339.0" width="22.9" height="15" fill="#5aeb5a" rx="2" ry="2"/>
<text x="345.2" y="350.0">j..</text>
</g>
<g>
<title>java/lang/String.coder (2 samples, 1.94%)</title><rect x="342.2" y="323.0" width="22.9" height="15" fill="#6dfe6d" rx="2" ry="2"/>
<text x="345.2" y="334.0">j..</text>
</g>
<g>
<title>one/nio/util/URLEncoder.decode (1 samples, 0.97%)</title><rect x="365.1" y="371.0" width="11.5" height="15" fill="#51e251" rx="2" ry="2"/>
<text x="368.1" y="382.0"></text>
</g>
<g>
<title>ru/mail/polis/service/re1nex/MyService.delete (54 samples, 52.43%)</title><rect x="376.6" y="387.0" width="618.6" height="15" fill="#5ff05f" rx="2" ry="2"/>
<text x="379.6" y="398.0">ru/mail/polis/service/re1nex/MyService.delete</text>
</g>
<g>
<title>ch/qos/logback/classic/Logger.error (39 samples, 37.86%)</title><rect x="376.6" y="371.0" width="446.8" height="15" fill="#56e756" rx="2" ry="2"/>
<text x="379.6" y="382.0">ch/qos/logback/classic/Logger.error</text>
</g>
<g>
<title>ch/qos/logback/classic/Logger.filterAndLog_1 (39 samples, 37.86%)</title><rect x="376.6" y="355.0" width="446.8" height="15" fill="#63f463" rx="2" ry="2"/>
<text x="379.6" y="366.0">ch/qos/logback/classic/Logger.filterAndLog_1</text>
</g>
<g>
<title>ch/qos/logback/classic/Logger.buildLoggingEventAndAppend (38 samples, 36.89%)</title><rect x="376.6" y="339.0" width="435.3" height="15" fill="#64f564" rx="2" ry="2"/>
<text x="379.6" y="350.0">ch/qos/logback/classic/Logger.buildLoggingEventAndAppend</text>
</g>
<g>
<title>ch/qos/logback/classic/Logger.callAppenders (37 samples, 35.92%)</title><rect x="376.6" y="323.0" width="423.9" height="15" fill="#59ea59" rx="2" ry="2"/>
<text x="379.6" y="334.0">ch/qos/logback/classic/Logger.callAppenders</text>
</g>
<g>
<title>ch/qos/logback/classic/Logger.appendLoopOnAppenders (37 samples, 35.92%)</title><rect x="376.6" y="307.0" width="423.9" height="15" fill="#6afb6a" rx="2" ry="2"/>
<text x="379.6" y="318.0">ch/qos/logback/classic/Logger.appendLoopOnAppenders</text>
</g>
<g>
<title>ch/qos/logback/core/spi/AppenderAttachableImpl.appendLoopOnAppenders (37 samples, 35.92%)</title><rect x="376.6" y="291.0" width="423.9" height="15" fill="#63f463" rx="2" ry="2"/>
<text x="379.6" y="302.0">ch/qos/logback/core/spi/AppenderAttachableImpl.appendLoopO..</text>
</g>
<g>
<title>ch/qos/logback/core/UnsynchronizedAppenderBase.doAppend (37 samples, 35.92%)</title><rect x="376.6" y="275.0" width="423.9" height="15" fill="#5aeb5a" rx="2" ry="2"/>
<text x="379.6" y="286.0">ch/qos/logback/core/UnsynchronizedAppenderBase.doAppend</text>
</g>
<g>
<title>ch/qos/logback/core/OutputStreamAppender.append (37 samples, 35.92%)</title><rect x="376.6" y="259.0" width="423.9" height="15" fill="#51e251" rx="2" ry="2"/>
<text x="379.6" y="270.0">ch/qos/logback/core/OutputStreamAppender.append</text>
</g>
<g>
<title>ch/qos/logback/core/OutputStreamAppender.subAppend (36 samples, 34.95%)</title><rect x="388.1" y="243.0" width="412.4" height="15" fill="#67f867" rx="2" ry="2"/>
<text x="391.1" y="254.0">ch/qos/logback/core/OutputStreamAppender.subAppend</text>
</g>
<g>
<title>ch/qos/logback/classic/spi/LoggingEvent.prepareForDeferredProcessing (5 samples, 4.85%)</title><rect x="399.5" y="227.0" width="57.3" height="15" fill="#68f968" rx="2" ry="2"/>
<text x="402.5" y="238.0">ch/qos..</text>
</g>
<g>
<title>ch/qos/logback/classic/spi/LoggingEvent.getFormattedMessage (3 samples, 2.91%)</title><rect x="399.5" y="211.0" width="34.4" height="15" fill="#64f564" rx="2" ry="2"/>
<text x="402.5" y="222.0">ch..</text>
</g>
<g>
<title>org/slf4j/helpers/MessageFormatter.arrayFormat (3 samples, 2.91%)</title><rect x="399.5" y="195.0" width="34.4" height="15" fill="#64f564" rx="2" ry="2"/>
<text x="402.5" y="206.0">or..</text>
</g>
<g>
<title>org/slf4j/helpers/MessageFormatter.arrayFormat (3 samples, 2.91%)</title><rect x="399.5" y="179.0" width="34.4" height="15" fill="#6bfc6b" rx="2" ry="2"/>
<text x="402.5" y="190.0">or..</text>
</g>
<g>
<title>org/slf4j/helpers/MessageFormatter.deeplyAppendParameter (2 samples, 1.94%)</title><rect x="411.0" y="163.0" width="22.9" height="15" fill="#59ea59" rx="2" ry="2"/>
<text x="414.0" y="174.0">o..</text>
</g>
<g>
<title>org/slf4j/helpers/MessageFormatter.safeObjectAppend (2 samples, 1.94%)</title><rect x="411.0" y="147.0" width="22.9" height="15" fill="#66f766" rx="2" ry="2"/>
<text x="414.0" y="158.0">o..</text>
</g>
<g>
<title>java/lang/StringBuilder.append (2 samples, 1.94%)</title><rect x="411.0" y="131.0" width="22.9" height="15" fill="#58e958" rx="2" ry="2"/>
<text x="414.0" y="142.0">j..</text>
</g>
<g>
<title>java/lang/AbstractStringBuilder.append (2 samples, 1.94%)</title><rect x="411.0" y="115.0" width="22.9" height="15" fill="#68f968" rx="2" ry="2"/>
<text x="414.0" y="126.0">j..</text>
</g>
<g>
<title>java/lang/AbstractStringBuilder.ensureCapacityInternal (2 samples, 1.94%)</title><rect x="411.0" y="99.0" width="22.9" height="15" fill="#55e655" rx="2" ry="2"/>
<text x="414.0" y="110.0">j..</text>
</g>
<g>
<title>java/lang/AbstractStringBuilder.newCapacity (2 samples, 1.94%)</title><rect x="411.0" y="83.0" width="22.9" height="15" fill="#61f261" rx="2" ry="2"/>
<text x="414.0" y="94.0">j..</text>
</g>
<g>
<title>ch/qos/logback/classic/spi/LoggingEvent.getMDCPropertyMap (1 samples, 0.97%)</title><rect x="433.9" y="211.0" width="11.4" height="15" fill="#51e251" rx="2" ry="2"/>
<text x="436.9" y="222.0"></text>
</g>
<g>
<title>ch/qos/logback/classic/util/LogbackMDCAdapter.getPropertyMap (1 samples, 0.97%)</title><rect x="433.9" y="195.0" width="11.4" height="15" fill="#53e453" rx="2" ry="2"/>
<text x="436.9" y="206.0"></text>
</g>
<g>
<title>java/lang/ThreadLocal.get (1 samples, 0.97%)</title><rect x="433.9" y="179.0" width="11.4" height="15" fill="#54e554" rx="2" ry="2"/>
<text x="436.9" y="190.0"></text>
</g>
<g>
<title>java/lang/ThreadLocal$ThreadLocalMap.getEntry (1 samples, 0.97%)</title><rect x="433.9" y="163.0" width="11.4" height="15" fill="#57e857" rx="2" ry="2"/>
<text x="436.9" y="174.0"></text>
</g>
<g>
<title>java/lang/ThreadLocal$ThreadLocalMap.getEntryAfterMiss (1 samples, 0.97%)</title><rect x="433.9" y="147.0" width="11.4" height="15" fill="#54e554" rx="2" ry="2"/>
<text x="436.9" y="158.0"></text>
</g>
<g>
<title>ch/qos/logback/classic/spi/LoggingEvent.getThreadName (1 samples, 0.97%)</title><rect x="445.3" y="211.0" width="11.5" height="15" fill="#61f261" rx="2" ry="2"/>
<text x="448.3" y="222.0"></text>
</g>
<g>
<title>ch/qos/logback/core/OutputStreamAppender.writeBytes (19 samples, 18.45%)</title><rect x="456.8" y="227.0" width="217.7" height="15" fill="#51e251" rx="2" ry="2"/>
<text x="459.8" y="238.0">ch/qos/logback/core/OutputStr..</text>
</g>
<g>
<title>ch/qos/logback/core/joran/spi/ConsoleTarget$1.flush (1 samples, 0.97%)</title><rect x="456.8" y="211.0" width="11.5" height="15" fill="#6afb6a" rx="2" ry="2"/>
<text x="459.8" y="222.0"></text>
</g>
<g>
<title>java/io/PrintStream.flush (1 samples, 0.97%)</title><rect x="456.8" y="195.0" width="11.5" height="15" fill="#6cfd6c" rx="2" ry="2"/>
<text x="459.8" y="206.0"></text>
</g>
<g>
<title>java/io/BufferedOutputStream.flush (1 samples, 0.97%)</title><rect x="456.8" y="179.0" width="11.5" height="15" fill="#51e251" rx="2" ry="2"/>
<text x="459.8" y="190.0"></text>
</g>
<g>
<title>ch/qos/logback/core/joran/spi/ConsoleTarget$1.write (17 samples, 16.50%)</title><rect x="468.3" y="211.0" width="194.7" height="15" fill="#6bfc6b" rx="2" ry="2"/>
<text x="471.3" y="222.0">ch/qos/logback/core/joran..</text>
</g>
<g>
<title>java/io/FilterOutputStream.write (17 samples, 16.50%)</title><rect x="468.3" y="195.0" width="194.7" height="15" fill="#5eef5e" rx="2" ry="2"/>
<text x="471.3" y="206.0">java/io/FilterOutputStrea..</text>
</g>
<g>
<title>java/io/PrintStream.write (17 samples, 16.50%)</title><rect x="468.3" y="179.0" width="194.7" height="15" fill="#57e857" rx="2" ry="2"/>
<text x="471.3" y="190.0">java/io/PrintStream.write</text>
</g>
<g>
<title>java/io/BufferedOutputStream.flush (17 samples, 16.50%)</title><rect x="468.3" y="163.0" width="194.7" height="15" fill="#61f261" rx="2" ry="2"/>
<text x="471.3" y="174.0">java/io/BufferedOutputStr..</text>
</g>
<g>
<title>java/io/BufferedOutputStream.flushBuffer (16 samples, 15.53%)</title><rect x="479.7" y="147.0" width="183.3" height="15" fill="#55e655" rx="2" ry="2"/>
<text x="482.7" y="158.0">java/io/BufferedOutputSt..</text>
</g>
<g>
<title>java/io/FileOutputStream.write (16 samples, 15.53%)</title><rect x="479.7" y="131.0" width="183.3" height="15" fill="#61f261" rx="2" ry="2"/>
<text x="482.7" y="142.0">java/io/FileOutputStream..</text>
</g>
<g>
<title>java/io/FileOutputStream.writeBytes (16 samples, 15.53%)</title><rect x="479.7" y="115.0" width="183.3" height="15" fill="#5eef5e" rx="2" ry="2"/>
<text x="482.7" y="126.0">java/io/FileOutputStream..</text>
</g>
<g>
<title>Java_java_io_FileOutputStream_writeBytes (16 samples, 15.53%)</title><rect x="479.7" y="99.0" width="183.3" height="15" fill="#f97a7a" rx="2" ry="2"/>
<text x="482.7" y="110.0">Java_java_io_FileOutputS..</text>
</g>
<g>
<title>jni_ExceptionOccurred (1 samples, 0.97%)</title><rect x="502.6" y="83.0" width="11.5" height="15" fill="#fc7f7f" rx="2" ry="2"/>
<text x="505.6" y="94.0"></text>
</g>
<g>
<title>jni_GetByteArrayRegion (1 samples, 0.97%)</title><rect x="514.1" y="83.0" width="11.4" height="15" fill="#f06f6f" rx="2" ry="2"/>
<text x="517.1" y="94.0"></text>
</g>
<g>
<title>jni_GetObjectField (1 samples, 0.97%)</title><rect x="525.5" y="83.0" width="11.5" height="15" fill="#f27171" rx="2" ry="2"/>
<text x="528.5" y="94.0"></text>
</g>
<g>
<title>writeBytes (11 samples, 10.68%)</title><rect x="537.0" y="83.0" width="126.0" height="15" fill="#f67777" rx="2" ry="2"/>
<text x="540.0" y="94.0">writeBytes</text>
</g>
<g>
<title>JavaThread::check_and_handle_async_exceptions(bool) (1 samples, 0.97%)</title><rect x="537.0" y="67.0" width="11.4" height="15" fill="#cece3e" rx="2" ry="2"/>
<text x="540.0" y="78.0"></text>
</g>
<g>
<title>ThreadInVMfromNative::~ThreadInVMfromNative() (1 samples, 0.97%)</title><rect x="548.4" y="67.0" width="11.5" height="15" fill="#cfcf3e" rx="2" ry="2"/>
<text x="551.4" y="78.0"></text>
</g>
<g>
<title>__libc_write (3 samples, 2.91%)</title><rect x="559.9" y="67.0" width="34.4" height="15" fill="#f47373" rx="2" ry="2"/>
<text x="562.9" y="78.0">__..</text>
</g>
<g>
<title>__pthread_enable_asynccancel (1 samples, 0.97%)</title><rect x="594.3" y="67.0" width="11.4" height="15" fill="#f16f6f" rx="2" ry="2"/>
<text x="597.3" y="78.0"></text>
</g>
<g>
<title>jni_GetByteArrayRegion (2 samples, 1.94%)</title><rect x="605.7" y="67.0" width="22.9" height="15" fill="#e15a5a" rx="2" ry="2"/>
<text x="608.7" y="78.0">j..</text>
</g>
<g>
<title>check_bounds(int, int, int, Thread*) (1 samples, 0.97%)</title><rect x="617.2" y="51.0" width="11.4" height="15" fill="#fc7f7f" rx="2" ry="2"/>
<text x="620.2" y="62.0"></text>
</g>
<g>
<title>ResourceMark::reset_to_mark() (1 samples, 0.97%)</title><rect x="617.2" y="35.0" width="11.4" height="15" fill="#d2d23f" rx="2" ry="2"/>
<text x="620.2" y="46.0"></text>
</g>
<g>
<title>jni_GetObjectField (3 samples, 2.91%)</title><rect x="628.6" y="67.0" width="34.4" height="15" fill="#e76262" rx="2" ry="2"/>
<text x="631.6" y="78.0">jn..</text>
</g>
<g>
<title>AccessInternal::PostRuntimeDispatch&lt;G1BarrierSet::AccessBarrier&lt;5292148ul, G1BarrierSet&gt;, (AccessInternal::BarrierType)0, 5292148ul&gt;::oop_access_barrier(void*, oopDesc*) (1 samples, 0.97%)</title><rect x="628.6" y="51.0" width="11.5" height="15" fill="#d7d741" rx="2" ry="2"/>
<text x="631.6" y="62.0"></text>
</g>
<g>
<title>AccessInternal::PostRuntimeDispatch&lt;G1BarrierSet::AccessBarrier&lt;802934ul, G1BarrierSet&gt;, (AccessInternal::BarrierType)3, 802934ul&gt;::oop_access_barrier(oopDesc*, long) (1 samples, 0.97%)</title><rect x="640.1" y="51.0" width="11.5" height="15" fill="#d4d440" rx="2" ry="2"/>
<text x="643.1" y="62.0"></text>
</g>
<g>
<title>java_lang_ref_Reference::is_referent_field(oopDesc*, long) (1 samples, 0.97%)</title><rect x="640.1" y="35.0" width="11.5" height="15" fill="#d1d13f" rx="2" ry="2"/>
<text x="643.1" y="46.0"></text>
</g>
<g>
<title>ThreadStateTransition::transition_from_native(JavaThread*, JavaThreadState) [clone .constprop.222] (1 samples, 0.97%)</title><rect x="651.6" y="51.0" width="11.4" height="15" fill="#dcdc42" rx="2" ry="2"/>
<text x="654.6" y="62.0"></text>
</g>
<g>
<title>jbyte_disjoint_arraycopy (1 samples, 0.97%)</title><rect x="663.0" y="211.0" width="11.5" height="15" fill="#f47373" rx="2" ry="2"/>
<text x="666.0" y="222.0"></text>
</g>
<g>
<title>ch/qos/logback/core/encoder/LayoutWrappingEncoder.encode (11 samples, 10.68%)</title><rect x="674.5" y="227.0" width="126.0" height="15" fill="#5dee5d" rx="2" ry="2"/>
<text x="677.5" y="238.0">ch/qos/logback/c..</text>
</g>
<g>
<title>ch/qos/logback/classic/layout/TTLLLayout.doLayout (11 samples, 10.68%)</title><rect x="674.5" y="211.0" width="126.0" height="15" fill="#58e958" rx="2" ry="2"/>
<text x="677.5" y="222.0">ch/qos/logback/c..</text>
</g>
<g>
<title>ch/qos/logback/classic/layout/TTLLLayout.doLayout (11 samples, 10.68%)</title><rect x="674.5" y="195.0" width="126.0" height="15" fill="#65f665" rx="2" ry="2"/>
<text x="677.5" y="206.0">ch/qos/logback/c..</text>
</g>
<g>
<title>ch/qos/logback/core/util/CachingDateFormatter.format (2 samples, 1.94%)</title><rect x="685.9" y="179.0" width="22.9" height="15" fill="#59ea59" rx="2" ry="2"/>
<text x="688.9" y="190.0">c..</text>
</g>
<g>
<title>java/text/DateFormat.format (2 samples, 1.94%)</title><rect x="685.9" y="163.0" width="22.9" height="15" fill="#56e756" rx="2" ry="2"/>
<text x="688.9" y="174.0">j..</text>
</g>
<g>
<title>java/text/SimpleDateFormat.format (2 samples, 1.94%)</title><rect x="685.9" y="147.0" width="22.9" height="15" fill="#66f766" rx="2" ry="2"/>
<text x="688.9" y="158.0">j..</text>
</g>
<g>
<title>java/text/SimpleDateFormat.format (2 samples, 1.94%)</title><rect x="685.9" y="131.0" width="22.9" height="15" fill="#57e857" rx="2" ry="2"/>
<text x="688.9" y="142.0">j..</text>
</g>
<g>
<title>java/text/SimpleDateFormat.subFormat (1 samples, 0.97%)</title><rect x="685.9" y="115.0" width="11.5" height="15" fill="#64f564" rx="2" ry="2"/>
<text x="688.9" y="126.0"></text>
</g>
<g>
<title>java/text/SimpleDateFormat.zeroPaddingNumber (1 samples, 0.97%)</title><rect x="685.9" y="99.0" width="11.5" height="15" fill="#50e150" rx="2" ry="2"/>
<text x="688.9" y="110.0"></text>
</g>
<g>
<title>java/lang/StringBuffer.append (1 samples, 0.97%)</title><rect x="685.9" y="83.0" width="11.5" height="15" fill="#69fa69" rx="2" ry="2"/>
<text x="688.9" y="94.0"></text>
</g>
<g>
<title>java/util/Calendar.setTime (1 samples, 0.97%)</title><rect x="697.4" y="115.0" width="11.4" height="15" fill="#69fa69" rx="2" ry="2"/>
<text x="700.4" y="126.0"></text>
</g>
<g>
<title>java/util/Calendar.setTimeInMillis (1 samples, 0.97%)</title><rect x="697.4" y="99.0" width="11.4" height="15" fill="#62f362" rx="2" ry="2"/>
<text x="700.4" y="110.0"></text>
</g>
<g>
<title>java/util/GregorianCalendar.computeFields (1 samples, 0.97%)</title><rect x="697.4" y="83.0" width="11.4" height="15" fill="#59ea59" rx="2" ry="2"/>
<text x="700.4" y="94.0"></text>
</g>
<g>
<title>java/util/Calendar.setFieldsComputed (1 samples, 0.97%)</title><rect x="697.4" y="67.0" width="11.4" height="15" fill="#64f564" rx="2" ry="2"/>
<text x="700.4" y="78.0"></text>
</g>
<g>
<title>java/text/SimpleDateFormat.subFormat (1 samples, 0.97%)</title><rect x="697.4" y="51.0" width="11.4" height="15" fill="#5ff05f" rx="2" ry="2"/>
<text x="700.4" y="62.0"></text>
</g>
<g>
<title>java/lang/StringBuilder.append (8 samples, 7.77%)</title><rect x="708.8" y="179.0" width="91.7" height="15" fill="#69fa69" rx="2" ry="2"/>
<text x="711.8" y="190.0">java/lang/S..</text>
</g>
<g>
<title>java/lang/AbstractStringBuilder.append (8 samples, 7.77%)</title><rect x="708.8" y="163.0" width="91.7" height="15" fill="#57e857" rx="2" ry="2"/>
<text x="711.8" y="174.0">java/lang/A..</text>
</g>
<g>
<title>java/lang/AbstractStringBuilder.ensureCapacityInternal (4 samples, 3.88%)</title><rect x="708.8" y="147.0" width="45.9" height="15" fill="#57e857" rx="2" ry="2"/>
<text x="711.8" y="158.0">java..</text>
</g>
<g>
<title>java/lang/ThreadLocal.set (1 samples, 0.97%)</title><rect x="743.2" y="131.0" width="11.5" height="15" fill="#52e352" rx="2" ry="2"/>
<text x="746.2" y="142.0"></text>
</g>
<g>
<title>java/lang/AbstractStringBuilder.putStringAt (4 samples, 3.88%)</title><rect x="754.7" y="147.0" width="45.8" height="15" fill="#5ff05f" rx="2" ry="2"/>
<text x="757.7" y="158.0">java..</text>
</g>
<g>
<title>java/lang/AbstractStringBuilder.getCoder (1 samples, 0.97%)</title><rect x="777.6" y="131.0" width="11.4" height="15" fill="#6afb6a" rx="2" ry="2"/>
<text x="780.6" y="142.0"></text>
</g>
<g>
<title>java/lang/String.getBytes (1 samples, 0.97%)</title><rect x="789.0" y="131.0" width="11.5" height="15" fill="#62f362" rx="2" ry="2"/>
<text x="792.0" y="142.0"></text>
</g>
<g>
<title>ch/qos/logback/classic/spi/LoggingEvent.&lt;init&gt; (1 samples, 0.97%)</title><rect x="800.5" y="323.0" width="11.4" height="15" fill="#5ff05f" rx="2" ry="2"/>
<text x="803.5" y="334.0"></text>
</g>
<g>
<title>gettimeofday (1 samples, 0.97%)</title><rect x="800.5" y="307.0" width="11.4" height="15" fill="#f97a7a" rx="2" ry="2"/>
<text x="803.5" y="318.0"></text>
</g>
<g>
<title>ch/qos/logback/classic/LoggerContext.getTurboFilterChainDecision_1 (1 samples, 0.97%)</title><rect x="811.9" y="339.0" width="11.5" height="15" fill="#6cfd6c" rx="2" ry="2"/>
<text x="814.9" y="350.0"></text>
</g>
<g>
<title>java/lang/String.getBytes (4 samples, 3.88%)</title><rect x="823.4" y="371.0" width="45.8" height="15" fill="#66f766" rx="2" ry="2"/>
<text x="826.4" y="382.0">java..</text>
</g>
<g>
<title>java/lang/String.coder (1 samples, 0.97%)</title><rect x="823.4" y="355.0" width="11.5" height="15" fill="#5aeb5a" rx="2" ry="2"/>
<text x="826.4" y="366.0"></text>
</g>
<g>
<title>java/lang/StringCoding.encode (3 samples, 2.91%)</title><rect x="834.9" y="355.0" width="34.3" height="15" fill="#5aeb5a" rx="2" ry="2"/>
<text x="837.9" y="366.0">ja..</text>
</g>
<g>
<title>java/lang/StringCoding.encodeUTF8 (3 samples, 2.91%)</title><rect x="834.9" y="339.0" width="34.3" height="15" fill="#51e251" rx="2" ry="2"/>
<text x="837.9" y="350.0">ja..</text>
</g>
<g>
<title>java/nio/ByteBuffer.wrap (1 samples, 0.97%)</title><rect x="869.2" y="371.0" width="11.5" height="15" fill="#50e150" rx="2" ry="2"/>
<text x="872.2" y="382.0"></text>
</g>
<g>
<title>java/nio/ByteBuffer.wrap (1 samples, 0.97%)</title><rect x="869.2" y="355.0" width="11.5" height="15" fill="#50e150" rx="2" ry="2"/>
<text x="872.2" y="366.0"></text>
</g>
<g>
<title>java/nio/HeapByteBuffer.&lt;init&gt; (1 samples, 0.97%)</title><rect x="869.2" y="339.0" width="11.5" height="15" fill="#5eef5e" rx="2" ry="2"/>
<text x="872.2" y="350.0"></text>
</g>
<g>
<title>os::javaTimeMillis() (1 samples, 0.97%)</title><rect x="869.2" y="323.0" width="11.5" height="15" fill="#d0d03e" rx="2" ry="2"/>
<text x="872.2" y="334.0"></text>
</g>
<g>
<title>gettimeofday (1 samples, 0.97%)</title><rect x="869.2" y="307.0" width="11.5" height="15" fill="#f67676" rx="2" ry="2"/>
<text x="872.2" y="318.0"></text>
</g>
<g>
<title>ru/mail/polis/dao/re1nex/NewDAO.remove (10 samples, 9.71%)</title><rect x="880.7" y="371.0" width="114.5" height="15" fill="#68f968" rx="2" ry="2"/>
<text x="883.7" y="382.0">ru/mail/polis/..</text>
</g>
<g>
<title>ru/mail/polis/dao/re1nex/MemTable.remove (10 samples, 9.71%)</title><rect x="880.7" y="355.0" width="114.5" height="15" fill="#5ff05f" rx="2" ry="2"/>
<text x="883.7" y="366.0">ru/mail/polis/..</text>
</g>
<g>
<title>java/util/TreeMap.put (10 samples, 9.71%)</title><rect x="880.7" y="339.0" width="114.5" height="15" fill="#5eef5e" rx="2" ry="2"/>
<text x="883.7" y="350.0">java/util/Tree..</text>
</g>
<g>
<title>java/nio/ByteBuffer.compareTo (7 samples, 6.80%)</title><rect x="903.6" y="323.0" width="80.2" height="15" fill="#52e352" rx="2" ry="2"/>
<text x="906.6" y="334.0">java/nio/..</text>
</g>
<g>
<title>java/nio/ByteBuffer.compareTo (2 samples, 1.94%)</title><rect x="960.9" y="307.0" width="22.9" height="15" fill="#55e655" rx="2" ry="2"/>
<text x="963.9" y="318.0">j..</text>
</g>
<g>
<title>java/nio/Buffer.position (1 samples, 0.97%)</title><rect x="960.9" y="291.0" width="11.4" height="15" fill="#5eef5e" rx="2" ry="2"/>
<text x="963.9" y="302.0"></text>
</g>
<g>
<title>vectorizedMismatch (1 samples, 0.97%)</title><rect x="960.9" y="275.0" width="11.4" height="15" fill="#fc7e7e" rx="2" ry="2"/>
<text x="963.9" y="286.0"></text>
</g>
<g>
<title>java/nio/BufferMismatch.mismatch (1 samples, 0.97%)</title><rect x="972.3" y="291.0" width="11.5" height="15" fill="#51e251" rx="2" ry="2"/>
<text x="975.3" y="302.0"></text>
</g>
<g>
<title>java/util/TreeMap$Entry.&lt;init&gt; (1 samples, 0.97%)</title><rect x="983.8" y="323.0" width="11.4" height="15" fill="#52e352" rx="2" ry="2"/>
<text x="986.8" y="334.0"></text>
</g>
<g>
<title>one/nio/http/HttpSession.parseRequest (2 samples, 1.94%)</title><rect x="995.2" y="435.0" width="23.0" height="15" fill="#57e857" rx="2" ry="2"/>
<text x="998.2" y="446.0">o..</text>
</g>
<g>
<title>one/nio/http/Request.&lt;init&gt; (1 samples, 0.97%)</title><rect x="995.2" y="419.0" width="11.5" height="15" fill="#65f665" rx="2" ry="2"/>
<text x="998.2" y="430.0"></text>
</g>
<g>
<title>one/nio/util/Utf8.read (1 samples, 0.97%)</title><rect x="1006.7" y="419.0" width="11.5" height="15" fill="#62f362" rx="2" ry="2"/>
<text x="1009.7" y="430.0"></text>
</g>
<g>
<title>one/nio/util/Utf8.read (1 samples, 0.97%)</title><rect x="1006.7" y="403.0" width="11.5" height="15" fill="#52e352" rx="2" ry="2"/>
<text x="1009.7" y="414.0"></text>
</g>
<g>
<title>one/nio/util/Utf8.read (1 samples, 0.97%)</title><rect x="1018.2" y="435.0" width="11.4" height="15" fill="#6cfd6c" rx="2" ry="2"/>
<text x="1021.2" y="446.0"></text>
</g>
<g>
<title>one/nio/util/Utf8.read (1 samples, 0.97%)</title><rect x="1018.2" y="419.0" width="11.4" height="15" fill="#6afb6a" rx="2" ry="2"/>
<text x="1021.2" y="430.0"></text>
</g>
<g>
<title>one/nio/net/Session.read (13 samples, 12.62%)</title><rect x="1029.6" y="451.0" width="148.9" height="15" fill="#54e554" rx="2" ry="2"/>
<text x="1032.6" y="462.0">one/nio/net/Session..</text>
</g>
<g>
<title>one/nio/net/NativeSocket.read (11 samples, 10.68%)</title><rect x="1052.5" y="435.0" width="126.0" height="15" fill="#5eef5e" rx="2" ry="2"/>
<text x="1055.5" y="446.0">one/nio/net/Nati..</text>
</g>
<g>
<title>Java_one_nio_net_NativeSocket_read (5 samples, 4.85%)</title><rect x="1064.0" y="419.0" width="57.3" height="15" fill="#f77878" rx="2" ry="2"/>
<text x="1067.0" y="430.0">Java_o..</text>
</g>
<g>
<title>/usr/lib/x86_64-linux-gnu/libc-2.31.so (3 samples, 2.91%)</title><rect x="1064.0" y="403.0" width="34.3" height="15" fill="#f87979" rx="2" ry="2"/>
<text x="1067.0" y="414.0">/u..</text>
</g>
<g>
<title>jni_SetByteArrayRegion (2 samples, 1.94%)</title><rect x="1098.3" y="403.0" width="23.0" height="15" fill="#e15a5a" rx="2" ry="2"/>
<text x="1101.3" y="414.0">j..</text>
</g>
<g>
<title>ThreadStateTransition::transition_from_native(JavaThread*, JavaThreadState) [clone .constprop.222] (1 samples, 0.97%)</title><rect x="1109.8" y="387.0" width="11.5" height="15" fill="#d9d941" rx="2" ry="2"/>
<text x="1112.8" y="398.0"></text>
</g>
<g>
<title>recv (5 samples, 4.85%)</title><rect x="1121.3" y="419.0" width="57.2" height="15" fill="#f77777" rx="2" ry="2"/>
<text x="1124.3" y="430.0">recv</text>
</g>
<g>
<title>start_thread (1 samples, 0.97%)</title><rect x="1178.5" y="499.0" width="11.5" height="15" fill="#f77777" rx="2" ry="2"/>
<text x="1181.5" y="510.0"></text>
</g>
<g>
<title>thread_native_entry(Thread*) (1 samples, 0.97%)</title><rect x="1178.5" y="483.0" width="11.5" height="15" fill="#fc7e7e" rx="2" ry="2"/>
<text x="1181.5" y="494.0"></text>
</g>
<g>
<title>Thread::call_run() (1 samples, 0.97%)</title><rect x="1178.5" y="467.0" width="11.5" height="15" fill="#caca3c" rx="2" ry="2"/>
<text x="1181.5" y="478.0"></text>
</g>
<g>
<title>ConcurrentGCThread::run() (1 samples, 0.97%)</title><rect x="1178.5" y="451.0" width="11.5" height="15" fill="#dfdf43" rx="2" ry="2"/>
<text x="1181.5" y="462.0"></text>
</g>
<g>
<title>G1ConcurrentRefineThread::run_service() (1 samples, 0.97%)</title><rect x="1178.5" y="435.0" width="11.5" height="15" fill="#e4e445" rx="2" ry="2"/>
<text x="1181.5" y="446.0"></text>
</g>
<g>
<title>DirtyCardQueueSet::refine_completed_buffer_concurrently(unsigned int, unsigned long) (1 samples, 0.97%)</title><rect x="1178.5" y="419.0" width="11.5" height="15" fill="#cbcb3d" rx="2" ry="2"/>
<text x="1181.5" y="430.0"></text>
</g>
<g>
<title>G1RemSet::refine_card_concurrently(signed char*, unsigned int) (1 samples, 0.97%)</title><rect x="1178.5" y="403.0" width="11.5" height="15" fill="#d0d03e" rx="2" ry="2"/>
<text x="1181.5" y="414.0"></text>
</g>
<g>
<title>bool HeapRegion::oops_on_card_seq_iterate_careful&lt;false, G1ConcurrentRefineOopClosure&gt;(MemRegion, G1ConcurrentRefineOopClosure*) (1 samples, 0.97%)</title><rect x="1178.5" y="387.0" width="11.5" height="15" fill="#cfcf3e" rx="2" ry="2"/>
<text x="1181.5" y="398.0"></text>
</g>
<g>
<title>G1BlockOffsetTablePart::forward_to_block_containing_addr_slow(HeapWord*, HeapWord*, void const*) (1 samples, 0.97%)</title><rect x="1178.5" y="371.0" width="11.5" height="15" fill="#e0e044" rx="2" ry="2"/>
<text x="1181.5" y="382.0"></text>
</g>
<g>
<title>HeapRegion::block_size(HeapWord const*) const (1 samples, 0.97%)</title><rect x="1178.5" y="355.0" width="11.5" height="15" fill="#caca3c" rx="2" ry="2"/>
<text x="1181.5" y="366.0"></text>
</g>
</g>
</svg>
