<?xml version="1.0" standalone="no"?>
<!DOCTYPE svg PUBLIC "-//W3C//DTD SVG 1.1//EN" "http://www.w3.org/Graphics/SVG/1.1/DTD/svg11.dtd">
<svg version="1.1" width="1200" height="310" onload="init(evt)" viewBox="0 0 1200 310" xmlns="http://www.w3.org/2000/svg" xmlns:xlink="http://www.w3.org/1999/xlink">
<style type="text/css">
	text { font-family:Verdana; font-size:12px; fill:rgb(0,0,0); }
	#search { opacity:0.1; cursor:pointer; }
	#search:hover, #search.show { opacity:1; }
	#subtitle { text-anchor:middle; font-color:rgb(160,160,160); }
	#title { text-anchor:middle; font-size:17px}
	#unzoom { cursor:pointer; }
	#frames > *:hover { stroke:black; stroke-width:0.5; cursor:pointer; }
	.hide { display:none; }
	.parent { opacity:0.5; }
</style>
<script type="text/ecmascript">
<![CDATA[
	"use strict";
	var details, searchbtn, unzoombtn, matchedtxt, svg, searching;
	function init(evt) {
		details = document.getElementById("details").firstChild;
		searchbtn = document.getElementById("search");
		unzoombtn = document.getElementById("unzoom");
		matchedtxt = document.getElementById("matched");
		svg = document.getElementsByTagName("svg")[0];
		searching = 0;
	}

	window.addEventListener("click", function(e) {
		var target = find_group(e.target);
		if (target) {
			if (target.nodeName == "a") {
				if (e.ctrlKey === false) return;
				e.preventDefault();
			}
			if (target.classList.contains("parent")) unzoom();
			zoom(target);
		}
		else if (e.target.id == "unzoom") unzoom();
		else if (e.target.id == "search") search_prompt();
	}, false)

	// mouse-over for info
	// show
	window.addEventListener("mouseover", function(e) {
		var target = find_group(e.target);
		if (target) details.nodeValue = "Function: " + g_to_text(target);
	}, false)

	// clear
	window.addEventListener("mouseout", function(e) {
		var target = find_group(e.target);
		if (target) details.nodeValue = ' ';
	}, false)

	// ctrl-F for search
	window.addEventListener("keydown",function (e) {
		if (e.keyCode === 114 || (e.ctrlKey && e.keyCode === 70)) {
			e.preventDefault();
			search_prompt();
		}
	}, false)

	// functions
	function find_child(node, selector) {
		var children = node.querySelectorAll(selector);
		if (children.length) return children[0];
		return;
	}
	function find_group(node) {
		var parent = node.parentElement;
		if (!parent) return;
		if (parent.id == "frames") return node;
		return find_group(parent);
	}
	function orig_save(e, attr, val) {
		if (e.attributes["_orig_" + attr] != undefined) return;
		if (e.attributes[attr] == undefined) return;
		if (val == undefined) val = e.attributes[attr].value;
		e.setAttribute("_orig_" + attr, val);
	}
	function orig_load(e, attr) {
		if (e.attributes["_orig_"+attr] == undefined) return;
		e.attributes[attr].value = e.attributes["_orig_" + attr].value;
		e.removeAttribute("_orig_"+attr);
	}
	function g_to_text(e) {
		var text = find_child(e, "title").firstChild.nodeValue;
		return (text)
	}
	function g_to_func(e) {
		var func = g_to_text(e);
		// if there's any manipulation we want to do to the function
		// name before it's searched, do it here before returning.
		return (func);
	}
	function update_text(e) {
		var r = find_child(e, "rect");
		var t = find_child(e, "text");
		var w = parseFloat(r.attributes.width.value) -3;
		var txt = find_child(e, "title").textContent.replace(/\([^(]*\)$/,"");
		t.attributes.x.value = parseFloat(r.attributes.x.value) + 3;

		// Smaller than this size won't fit anything
		if (w < 2 * 12 * 0.59) {
			t.textContent = "";
			return;
		}

		t.textContent = txt;
		// Fit in full text width
		if (/^ *$/.test(txt) || t.getSubStringLength(0, txt.length) < w)
			return;

		for (var x = txt.length - 2; x > 0; x--) {
			if (t.getSubStringLength(0, x + 2) <= w) {
				t.textContent = txt.substring(0, x) + "..";
				return;
			}
		}
		t.textContent = "";
	}

	// zoom
	function zoom_reset(e) {
		if (e.attributes != undefined) {
			orig_load(e, "x");
			orig_load(e, "width");
		}
		if (e.childNodes == undefined) return;
		for (var i = 0, c = e.childNodes; i < c.length; i++) {
			zoom_reset(c[i]);
		}
	}
	function zoom_child(e, x, ratio) {
		if (e.attributes != undefined) {
			if (e.attributes.x != undefined) {
				orig_save(e, "x");
				e.attributes.x.value = (parseFloat(e.attributes.x.value) - x - 10) * ratio + 10;
				if (e.tagName == "text")
					e.attributes.x.value = find_child(e.parentNode, "rect[x]").attributes.x.value + 3;
			}
			if (e.attributes.width != undefined) {
				orig_save(e, "width");
				e.attributes.width.value = parseFloat(e.attributes.width.value) * ratio;
			}
		}

		if (e.childNodes == undefined) return;
		for (var i = 0, c = e.childNodes; i < c.length; i++) {
			zoom_child(c[i], x - 10, ratio);
		}
	}
	function zoom_parent(e) {
		if (e.attributes) {
			if (e.attributes.x != undefined) {
				orig_save(e, "x");
				e.attributes.x.value = 10;
			}
			if (e.attributes.width != undefined) {
				orig_save(e, "width");
				e.attributes.width.value = parseInt(svg.width.baseVal.value) - (10 * 2);
			}
		}
		if (e.childNodes == undefined) return;
		for (var i = 0, c = e.childNodes; i < c.length; i++) {
			zoom_parent(c[i]);
		}
	}
	function zoom(node) {
		var attr = find_child(node, "rect").attributes;
		var width = parseFloat(attr.width.value);
		var xmin = parseFloat(attr.x.value);
		var xmax = parseFloat(xmin + width);
		var ymin = parseFloat(attr.y.value);
		var ratio = (svg.width.baseVal.value - 2 * 10) / width;

		// XXX: Workaround for JavaScript float issues (fix me)
		var fudge = 0.0001;

		unzoombtn.classList.remove("hide");

		var el = document.getElementById("frames").children;
		for (var i = 0; i < el.length; i++) {
			var e = el[i];
			var a = find_child(e, "rect").attributes;
			var ex = parseFloat(a.x.value);
			var ew = parseFloat(a.width.value);
			var upstack;
			// Is it an ancestor
			if (0 == 0) {
				upstack = parseFloat(a.y.value) > ymin;
			} else {
				upstack = parseFloat(a.y.value) < ymin;
			}
			if (upstack) {
				// Direct ancestor
				if (ex <= xmin && (ex+ew+fudge) >= xmax) {
					e.classList.add("parent");
					zoom_parent(e);
					update_text(e);
				}
				// not in current path
				else
					e.classList.add("hide");
			}
			// Children maybe
			else {
				// no common path
				if (ex < xmin || ex + fudge >= xmax) {
					e.classList.add("hide");
				}
				else {
					zoom_child(e, xmin, ratio);
					update_text(e);
				}
			}
		}
	}
	function unzoom() {
		unzoombtn.classList.add("hide");
		var el = document.getElementById("frames").children;
		for(var i = 0; i < el.length; i++) {
			el[i].classList.remove("parent");
			el[i].classList.remove("hide");
			zoom_reset(el[i]);
			update_text(el[i]);
		}
	}

	// search
	function reset_search() {
		var el = document.querySelectorAll("#frames rect");
		for (var i = 0; i < el.length; i++) {
			orig_load(el[i], "fill")
		}
	}
	function search_prompt() {
		if (!searching) {
			var term = prompt("Enter a search term (regexp " +
			    "allowed, eg: ^ext4_)", "");
			if (term != null) {
				search(term)
			}
		} else {
			reset_search();
			searching = 0;
			searchbtn.classList.remove("show");
			searchbtn.firstChild.nodeValue = "Search"
			matchedtxt.classList.add("hide");
			matchedtxt.firstChild.nodeValue = ""
		}
	}
	function search(term) {
		var re = new RegExp(term);
		var el = document.getElementById("frames").children;
		var matches = new Object();
		var maxwidth = 0;
		for (var i = 0; i < el.length; i++) {
			var e = el[i];
			var func = g_to_func(e);
			var rect = find_child(e, "rect");
			if (func == null || rect == null)
				continue;

			// Save max width. Only works as we have a root frame
			var w = parseFloat(rect.attributes.width.value);
			if (w > maxwidth)
				maxwidth = w;

			if (func.match(re)) {
				// highlight
				var x = parseFloat(rect.attributes.x.value);
				orig_save(rect, "fill");
				rect.attributes.fill.value = "rgb(230,0,230)";

				// remember matches
				if (matches[x] == undefined) {
					matches[x] = w;
				} else {
					if (w > matches[x]) {
						// overwrite with parent
						matches[x] = w;
					}
				}
				searching = 1;
			}
		}
		if (!searching)
			return;

		searchbtn.classList.add("show");
		searchbtn.firstChild.nodeValue = "Reset Search";

		// calculate percent matched, excluding vertical overlap
		var count = 0;
		var lastx = -1;
		var lastw = 0;
		var keys = Array();
		for (k in matches) {
			if (matches.hasOwnProperty(k))
				keys.push(k);
		}
		// sort the matched frames by their x location
		// ascending, then width descending
		keys.sort(function(a, b){
			return a - b;
		});
		// Step through frames saving only the biggest bottom-up frames
		// thanks to the sort order. This relies on the tree property
		// where children are always smaller than their parents.
		var fudge = 0.0001;	// JavaScript floating point
		for (var k in keys) {
			var x = parseFloat(keys[k]);
			var w = matches[keys[k]];
			if (x >= lastx + lastw - fudge) {
				count += w;
				lastx = x;
				lastw = w;
			}
		}
		// display matched percent
		matchedtxt.classList.remove("hide");
		var pct = 100 * count / maxwidth;
		if (pct != 100) pct = pct.toFixed(1)
		matchedtxt.firstChild.nodeValue = "Matched: " + pct + "%";
	}
]]>
</script>
<rect x="0" y="0" width="100%" height="100%" fill="rgb(240,240,220)"/>
<text id="title" x="600" y="24">Flame Graph</text>
<text id="details" x="10" y="293"> </text>
<text id="unzoom" x="10" y="24" class="hide">Reset Zoom</text>
<text id="search" x="1090" y="24">Search</text>
<text id="matched" x="1090" y="293"> </text>
<g id="frames">
<g>
<title>all (181 samples, 100.00%)</title><rect x="10.0" y="259.0" width="1180.0" height="15" fill="#ef6c6c" rx="2" ry="2"/>
<text x="13.0" y="270.0">all</text>
</g>
<g>
<title>java/lang/Thread.run (133 samples, 73.48%)</title><rect x="10.0" y="243.0" width="867.1" height="15" fill="#69fa69" rx="2" ry="2"/>
<text x="13.0" y="254.0">java/lang/Thread.run</text>
</g>
<g>
<title>java/util/concurrent/ThreadPoolExecutor$Worker.run (133 samples, 73.48%)</title><rect x="10.0" y="227.0" width="867.1" height="15" fill="#52e352" rx="2" ry="2"/>
<text x="13.0" y="238.0">java/util/concurrent/ThreadPoolExecutor$Worker.run</text>
</g>
<g>
<title>java/util/concurrent/ThreadPoolExecutor.runWorker (133 samples, 73.48%)</title><rect x="10.0" y="211.0" width="867.1" height="15" fill="#52e352" rx="2" ry="2"/>
<text x="13.0" y="222.0">java/util/concurrent/ThreadPoolExecutor.runWorker</text>
</g>
<g>
<title>java/util/concurrent/ThreadPoolExecutor.getTask (4 samples, 2.21%)</title><rect x="10.0" y="195.0" width="26.1" height="15" fill="#5bec5b" rx="2" ry="2"/>
<text x="13.0" y="206.0">j..</text>
</g>
<g>
<title>java/util/concurrent/ArrayBlockingQueue.take (4 samples, 2.21%)</title><rect x="10.0" y="179.0" width="26.1" height="15" fill="#59ea59" rx="2" ry="2"/>
<text x="13.0" y="190.0">j..</text>
</g>
<g>
<title>java/util/concurrent/locks/AbstractQueuedSynchronizer$ConditionObject.await (4 samples, 2.21%)</title><rect x="10.0" y="163.0" width="26.1" height="15" fill="#63f463" rx="2" ry="2"/>
<text x="13.0" y="174.0">j..</text>
</g>
<g>
<title>java/util/concurrent/locks/AbstractQueuedSynchronizer$ConditionObject.addConditionWaiter (4 samples, 2.21%)</title><rect x="10.0" y="147.0" width="26.1" height="15" fill="#68f968" rx="2" ry="2"/>
<text x="13.0" y="158.0">j..</text>
</g>
<g>
<title>java.util.concurrent.locks.AbstractQueuedSynchronizer$Node (4 samples, 2.21%)</title><rect x="10.0" y="131.0" width="26.1" height="15" fill="#53c1c1" rx="2" ry="2"/>
<text x="13.0" y="142.0">j..</text>
</g>
<g>
<title>ru/mail/polis/service/re1nex/AsyncTopologyService$$Lambda$66/78359530.run (129 samples, 71.27%)</title><rect x="36.1" y="195.0" width="841.0" height="15" fill="#51e251" rx="2" ry="2"/>
<text x="39.1" y="206.0">ru/mail/polis/service/re1nex/AsyncTopologyService$$Lambda$66/78359530.run</text>
</g>
<g>
<title>ru/mail/polis/service/re1nex/AsyncTopologyService.lambda$put$2 (129 samples, 71.27%)</title><rect x="36.1" y="179.0" width="841.0" height="15" fill="#51e251" rx="2" ry="2"/>
<text x="39.1" y="190.0">ru/mail/polis/service/re1nex/AsyncTopologyService.lambda$put$2</text>
</g>
<g>
<title>java/nio/ByteBuffer.wrap (12 samples, 6.63%)</title><rect x="36.1" y="163.0" width="78.2" height="15" fill="#5dee5d" rx="2" ry="2"/>
<text x="39.1" y="174.0">java/nio/..</text>
</g>
<g>
<title>java/nio/ByteBuffer.wrap (12 samples, 6.63%)</title><rect x="36.1" y="147.0" width="78.2" height="15" fill="#67f867" rx="2" ry="2"/>
<text x="39.1" y="158.0">java/nio/..</text>
</g>
<g>
<title>java.nio.HeapByteBuffer (12 samples, 6.63%)</title><rect x="36.1" y="131.0" width="78.2" height="15" fill="#64d2d2" rx="2" ry="2"/>
<text x="39.1" y="142.0">java.nio...</text>
</g>
<g>
<title>one.nio.http.Response (12 samples, 6.63%)</title><rect x="114.3" y="163.0" width="78.2" height="15" fill="#5dcbcb" rx="2" ry="2"/>
<text x="117.3" y="174.0">one.nio.h..</text>
</g>
<g>
<title>one/nio/http/Response.&lt;init&gt; (18 samples, 9.94%)</title><rect x="192.5" y="163.0" width="117.4" height="15" fill="#53e453" rx="2" ry="2"/>
<text x="195.5" y="174.0">one/nio/http/R..</text>
</g>
<g>
<title>byte[] (8 samples, 4.42%)</title><rect x="192.5" y="147.0" width="52.2" height="15" fill="#61cfcf" rx="2" ry="2"/>
<text x="195.5" y="158.0">byte[]</text>
</g>
<g>
<title>java.lang.String[] (5 samples, 2.76%)</title><rect x="244.7" y="147.0" width="32.6" height="15" fill="#61cfcf" rx="2" ry="2"/>
<text x="247.7" y="158.0">ja..</text>
</g>
<g>
<title>java.lang.String (5 samples, 2.76%)</title><rect x="277.3" y="147.0" width="32.6" height="15" fill="#5fcdcd" rx="2" ry="2"/>
<text x="280.3" y="158.0">ja..</text>
</g>
<g>
<title>ru/mail/polis/dao/re1nex/ConsistentHashingTopology.primaryFor (27 samples, 14.92%)</title><rect x="309.9" y="163.0" width="176.0" height="15" fill="#61f261" rx="2" ry="2"/>
<text x="312.9" y="174.0">ru/mail/polis/dao/re1ne..</text>
</g>
<g>
<title>ru/mail/polis/dao/re1nex/ConsistentHashingTopology.primaryFor (27 samples, 14.92%)</title><rect x="309.9" y="147.0" width="176.0" height="15" fill="#5aeb5a" rx="2" ry="2"/>
<text x="312.9" y="158.0">ru/mail/polis/dao/re1ne..</text>
</g>
<g>
<title>java/lang/Integer.valueOf (13 samples, 7.18%)</title><rect x="309.9" y="131.0" width="84.7" height="15" fill="#59ea59" rx="2" ry="2"/>
<text x="312.9" y="142.0">java/lang/..</text>
</g>
<g>
<title>java.lang.Integer (13 samples, 7.18%)</title><rect x="309.9" y="115.0" width="84.7" height="15" fill="#6ad8d8" rx="2" ry="2"/>
<text x="312.9" y="126.0">java.lang...</text>
</g>
<g>
<title>java/util/TreeMap$NavigableSubMap.isEmpty (6 samples, 3.31%)</title><rect x="394.6" y="131.0" width="39.2" height="15" fill="#5eef5e" rx="2" ry="2"/>
<text x="397.6" y="142.0">jav..</text>
</g>
<g>
<title>java/util/TreeMap$AscendingSubMap.entrySet (6 samples, 3.31%)</title><rect x="394.6" y="115.0" width="39.2" height="15" fill="#55e655" rx="2" ry="2"/>
<text x="397.6" y="126.0">jav..</text>
</g>
<g>
<title>java.util.TreeMap$AscendingSubMap$AscendingEntrySetView (6 samples, 3.31%)</title><rect x="394.6" y="99.0" width="39.2" height="15" fill="#62d0d0" rx="2" ry="2"/>
<text x="397.6" y="110.0">jav..</text>
</g>
<g>
<title>java/util/TreeMap.tailMap (8 samples, 4.42%)</title><rect x="433.8" y="131.0" width="52.1" height="15" fill="#5ff05f" rx="2" ry="2"/>
<text x="436.8" y="142.0">java/..</text>
</g>
<g>
<title>java/util/TreeMap.tailMap (8 samples, 4.42%)</title><rect x="433.8" y="115.0" width="52.1" height="15" fill="#62f362" rx="2" ry="2"/>
<text x="436.8" y="126.0">java/..</text>
</g>
<g>
<title>java.util.TreeMap$AscendingSubMap (8 samples, 4.42%)</title><rect x="433.8" y="99.0" width="52.1" height="15" fill="#61cfcf" rx="2" ry="2"/>
<text x="436.8" y="110.0">java...</text>
</g>
<g>
<title>ru/mail/polis/dao/re1nex/NewDAO.upsert (24 samples, 13.26%)</title><rect x="485.9" y="163.0" width="156.5" height="15" fill="#57e857" rx="2" ry="2"/>
<text x="488.9" y="174.0">ru/mail/polis/dao/re..</text>
</g>
<g>
<title>java/util/concurrent/locks/ReentrantReadWriteLock$ReadLock.lock (1 samples, 0.55%)</title><rect x="485.9" y="147.0" width="6.5" height="15" fill="#68f968" rx="2" ry="2"/>
<text x="488.9" y="158.0"></text>
</g>
<g>
<title>java/util/concurrent/locks/AbstractQueuedSynchronizer.acquireShared (1 samples, 0.55%)</title><rect x="485.9" y="131.0" width="6.5" height="15" fill="#52e352" rx="2" ry="2"/>
<text x="488.9" y="142.0"></text>
</g>
<g>
<title>java/util/concurrent/locks/ReentrantReadWriteLock$Sync.tryAcquireShared (1 samples, 0.55%)</title><rect x="485.9" y="115.0" width="6.5" height="15" fill="#52e352" rx="2" ry="2"/>
<text x="488.9" y="126.0"></text>
</g>
<g>
<title>java/lang/ThreadLocal.get (1 samples, 0.55%)</title><rect x="485.9" y="99.0" width="6.5" height="15" fill="#6bfc6b" rx="2" ry="2"/>
<text x="488.9" y="110.0"></text>
</g>
<g>
<title>java/lang/ThreadLocal.setInitialValue (1 samples, 0.55%)</title><rect x="485.9" y="83.0" width="6.5" height="15" fill="#55e655" rx="2" ry="2"/>
<text x="488.9" y="94.0"></text>
</g>
<g>
<title>java/util/concurrent/locks/ReentrantReadWriteLock$Sync$ThreadLocalHoldCounter.initialValue (1 samples, 0.55%)</title><rect x="485.9" y="67.0" width="6.5" height="15" fill="#5eef5e" rx="2" ry="2"/>
<text x="488.9" y="78.0"></text>
</g>
<g>
<title>java/util/concurrent/locks/ReentrantReadWriteLock$Sync$ThreadLocalHoldCounter.initialValue (1 samples, 0.55%)</title><rect x="485.9" y="51.0" width="6.5" height="15" fill="#56e756" rx="2" ry="2"/>
<text x="488.9" y="62.0"></text>
</g>
<g>
<title>java.util.concurrent.locks.ReentrantReadWriteLock$Sync$HoldCounter (1 samples, 0.55%)</title><rect x="485.9" y="35.0" width="6.5" height="15" fill="#68d6d6" rx="2" ry="2"/>
<text x="488.9" y="46.0"></text>
</g>
<g>
<title>ru/mail/polis/dao/re1nex/MemTable.upsert (23 samples, 12.71%)</title><rect x="492.4" y="147.0" width="150.0" height="15" fill="#58e958" rx="2" ry="2"/>
<text x="495.4" y="158.0">ru/mail/polis/dao/r..</text>
</g>
<g>
<title>java/nio/HeapByteBuffer.duplicate (16 samples, 8.84%)</title><rect x="492.4" y="131.0" width="104.3" height="15" fill="#5aeb5a" rx="2" ry="2"/>
<text x="495.4" y="142.0">java/nio/Hea..</text>
</g>
<g>
<title>java.nio.HeapByteBuffer (16 samples, 8.84%)</title><rect x="492.4" y="115.0" width="104.3" height="15" fill="#6ad8d8" rx="2" ry="2"/>
<text x="495.4" y="126.0">java.nio.Hea..</text>
</g>
<g>
<title>java/util/concurrent/ConcurrentSkipListMap.put (1 samples, 0.55%)</title><rect x="596.7" y="131.0" width="6.6" height="15" fill="#5aeb5a" rx="2" ry="2"/>
<text x="599.7" y="142.0"></text>
</g>
<g>
<title>java/util/concurrent/ConcurrentSkipListMap.doPut (1 samples, 0.55%)</title><rect x="596.7" y="115.0" width="6.6" height="15" fill="#68f968" rx="2" ry="2"/>
<text x="599.7" y="126.0"></text>
</g>
<g>
<title>java.util.concurrent.ConcurrentSkipListMap$Index (1 samples, 0.55%)</title><rect x="596.7" y="99.0" width="6.6" height="15" fill="#63d1d1" rx="2" ry="2"/>
<text x="599.7" y="110.0"></text>
</g>
<g>
<title>ru.mail.polis.dao.re1nex.Value (6 samples, 3.31%)</title><rect x="603.3" y="131.0" width="39.1" height="15" fill="#51bfbf" rx="2" ry="2"/>
<text x="606.3" y="142.0">ru...</text>
</g>
<g>
<title>ru/mail/polis/service/re1nex/AsyncTopologyService.getByteBufferKey (14 samples, 7.73%)</title><rect x="642.4" y="163.0" width="91.2" height="15" fill="#57e857" rx="2" ry="2"/>
<text x="645.4" y="174.0">ru/mail/pol..</text>
</g>
<g>
<title>java/lang/String.getBytes (6 samples, 3.31%)</title><rect x="642.4" y="147.0" width="39.1" height="15" fill="#67f867" rx="2" ry="2"/>
<text x="645.4" y="158.0">jav..</text>
</g>
<g>
<title>java/lang/StringCoding.encode (6 samples, 3.31%)</title><rect x="642.4" y="131.0" width="39.1" height="15" fill="#62f362" rx="2" ry="2"/>
<text x="645.4" y="142.0">jav..</text>
</g>
<g>
<title>java/lang/StringCoding.encodeUTF8 (6 samples, 3.31%)</title><rect x="642.4" y="115.0" width="39.1" height="15" fill="#69fa69" rx="2" ry="2"/>
<text x="645.4" y="126.0">jav..</text>
</g>
<g>
<title>java/util/Arrays.copyOf (6 samples, 3.31%)</title><rect x="642.4" y="99.0" width="39.1" height="15" fill="#59ea59" rx="2" ry="2"/>
<text x="645.4" y="110.0">jav..</text>
</g>
<g>
<title>byte[] (6 samples, 3.31%)</title><rect x="642.4" y="83.0" width="39.1" height="15" fill="#56c4c4" rx="2" ry="2"/>
<text x="645.4" y="94.0">byt..</text>
</g>
<g>
<title>java/nio/ByteBuffer.wrap (8 samples, 4.42%)</title><rect x="681.5" y="147.0" width="52.1" height="15" fill="#55e655" rx="2" ry="2"/>
<text x="684.5" y="158.0">java/..</text>
</g>
<g>
<title>java/nio/ByteBuffer.wrap (8 samples, 4.42%)</title><rect x="681.5" y="131.0" width="52.1" height="15" fill="#62f362" rx="2" ry="2"/>
<text x="684.5" y="142.0">java/..</text>
</g>
<g>
<title>java.nio.HeapByteBuffer (8 samples, 4.42%)</title><rect x="681.5" y="115.0" width="52.1" height="15" fill="#53c1c1" rx="2" ry="2"/>
<text x="684.5" y="126.0">java...</text>
</g>
<g>
<title>ru/mail/polis/service/re1nex/AsyncTopologyService.sendResponse (22 samples, 12.15%)</title><rect x="733.6" y="163.0" width="143.5" height="15" fill="#64f564" rx="2" ry="2"/>
<text x="736.6" y="174.0">ru/mail/polis/serv..</text>
</g>
<g>
<title>one/nio/http/HttpSession.sendResponse (22 samples, 12.15%)</title><rect x="733.6" y="147.0" width="143.5" height="15" fill="#67f867" rx="2" ry="2"/>
<text x="736.6" y="158.0">one/nio/http/HttpS..</text>
</g>
<g>
<title>one/nio/http/HttpSession.writeResponse (22 samples, 12.15%)</title><rect x="733.6" y="131.0" width="143.5" height="15" fill="#65f665" rx="2" ry="2"/>
<text x="736.6" y="142.0">one/nio/http/HttpS..</text>
</g>
<g>
<title>one/nio/http/Response.toBytes (16 samples, 8.84%)</title><rect x="733.6" y="115.0" width="104.4" height="15" fill="#56e756" rx="2" ry="2"/>
<text x="736.6" y="126.0">one/nio/http..</text>
</g>
<g>
<title>one/nio/util/ByteArrayBuilder.&lt;init&gt; (16 samples, 8.84%)</title><rect x="733.6" y="99.0" width="104.4" height="15" fill="#5ced5c" rx="2" ry="2"/>
<text x="736.6" y="110.0">one/nio/util..</text>
</g>
<g>
<title>byte[] (16 samples, 8.84%)</title><rect x="733.6" y="83.0" width="104.4" height="15" fill="#59c7c7" rx="2" ry="2"/>
<text x="736.6" y="94.0">byte[]</text>
</g>
<g>
<title>one/nio/net/Session.write (6 samples, 3.31%)</title><rect x="838.0" y="115.0" width="39.1" height="15" fill="#5dee5d" rx="2" ry="2"/>
<text x="841.0" y="126.0">one..</text>
</g>
<g>
<title>one.nio.net.Session$ArrayQueueItem (6 samples, 3.31%)</title><rect x="838.0" y="99.0" width="39.1" height="15" fill="#56c4c4" rx="2" ry="2"/>
<text x="841.0" y="110.0">one..</text>
</g>
<g>
<title>one/nio/server/SelectorThread.run (48 samples, 26.52%)</title><rect x="877.1" y="243.0" width="312.9" height="15" fill="#5bec5b" rx="2" ry="2"/>
<text x="880.1" y="254.0">one/nio/server/SelectorThread.run</text>
</g>
<g>
<title>one/nio/net/NativeSelector.select (2 samples, 1.10%)</title><rect x="877.1" y="227.0" width="13.0" height="15" fill="#5ff05f" rx="2" ry="2"/>
<text x="880.1" y="238.0"></text>
</g>
<g>
<title>one.nio.net.NativeSelector$2 (2 samples, 1.10%)</title><rect x="877.1" y="211.0" width="13.0" height="15" fill="#54c2c2" rx="2" ry="2"/>
<text x="880.1" y="222.0"></text>
</g>
<g>
<title>one/nio/net/Session.process (46 samples, 25.41%)</title><rect x="890.1" y="227.0" width="299.9" height="15" fill="#60f160" rx="2" ry="2"/>
<text x="893.1" y="238.0">one/nio/net/Session.process</text>
</g>
<g>
<title>one/nio/http/HttpSession.processRead (46 samples, 25.41%)</title><rect x="890.1" y="211.0" width="299.9" height="15" fill="#50e150" rx="2" ry="2"/>
<text x="893.1" y="222.0">one/nio/http/HttpSession.processRead</text>
</g>
<g>
<title>one/nio/http/HttpSession.processHttpBuffer (46 samples, 25.41%)</title><rect x="890.1" y="195.0" width="299.9" height="15" fill="#5bec5b" rx="2" ry="2"/>
<text x="893.1" y="206.0">one/nio/http/HttpSession.processHttpBuffer</text>
</g>
<g>
<title>one/nio/http/HttpSession.handleParsedRequest (9 samples, 4.97%)</title><rect x="890.1" y="179.0" width="58.7" height="15" fill="#5bec5b" rx="2" ry="2"/>
<text x="893.1" y="190.0">one/ni..</text>
</g>
<g>
<title>one/nio/http/HttpServer.handleRequest (9 samples, 4.97%)</title><rect x="890.1" y="163.0" width="58.7" height="15" fill="#59ea59" rx="2" ry="2"/>
<text x="893.1" y="174.0">one/ni..</text>
</g>
<g>
<title>RequestHandler1_put.handleRequest (5 samples, 2.76%)</title><rect x="890.1" y="147.0" width="32.6" height="15" fill="#66f766" rx="2" ry="2"/>
<text x="893.1" y="158.0">Re..</text>
</g>
<g>
<title>one/nio/http/Request.getRequiredParameter (3 samples, 1.66%)</title><rect x="890.1" y="131.0" width="19.6" height="15" fill="#57e857" rx="2" ry="2"/>
<text x="893.1" y="142.0"></text>
</g>
<g>
<title>one/nio/http/Request.getParameter (3 samples, 1.66%)</title><rect x="890.1" y="115.0" width="19.6" height="15" fill="#63f463" rx="2" ry="2"/>
<text x="893.1" y="126.0"></text>
</g>
<g>
<title>java/lang/String.substring (3 samples, 1.66%)</title><rect x="890.1" y="99.0" width="19.6" height="15" fill="#60f160" rx="2" ry="2"/>
<text x="893.1" y="110.0"></text>
</g>
<g>
<title>java/lang/StringLatin1.newString (3 samples, 1.66%)</title><rect x="890.1" y="83.0" width="19.6" height="15" fill="#6bfc6b" rx="2" ry="2"/>
<text x="893.1" y="94.0"></text>
</g>
<g>
<title>java.lang.String (1 samples, 0.55%)</title><rect x="890.1" y="67.0" width="6.5" height="15" fill="#64d2d2" rx="2" ry="2"/>
<text x="893.1" y="78.0"></text>
</g>
<g>
<title>java/util/Arrays.copyOfRange (2 samples, 1.10%)</title><rect x="896.6" y="67.0" width="13.1" height="15" fill="#68f968" rx="2" ry="2"/>
<text x="899.6" y="78.0"></text>
</g>
<g>
<title>byte[] (2 samples, 1.10%)</title><rect x="896.6" y="51.0" width="13.1" height="15" fill="#64d2d2" rx="2" ry="2"/>
<text x="899.6" y="62.0"></text>
</g>
<g>
<title>ru/mail/polis/service/re1nex/AsyncTopologyService.put (2 samples, 1.10%)</title><rect x="909.7" y="131.0" width="13.0" height="15" fill="#59ea59" rx="2" ry="2"/>
<text x="912.7" y="142.0"></text>
</g>
<g>
<title>java/lang/invoke/Invokers$Holder.linkToTargetMethod (2 samples, 1.10%)</title><rect x="909.7" y="115.0" width="13.0" height="15" fill="#63f463" rx="2" ry="2"/>
<text x="912.7" y="126.0"></text>
</g>
<g>
<title>java/lang/invoke/DirectMethodHandle$Holder.invokeStatic (2 samples, 1.10%)</title><rect x="909.7" y="99.0" width="13.0" height="15" fill="#50e150" rx="2" ry="2"/>
<text x="912.7" y="110.0"></text>
</g>
<g>
<title>ru/mail/polis/service/re1nex/AsyncTopologyService$$Lambda$66/78359530.get$Lambda (2 samples, 1.10%)</title><rect x="909.7" y="83.0" width="13.0" height="15" fill="#5ff05f" rx="2" ry="2"/>
<text x="912.7" y="94.0"></text>
</g>
<g>
<title>ru.mail.polis.service.re1nex.AsyncTopologyService$$Lambda$66 (2 samples, 1.10%)</title><rect x="909.7" y="67.0" width="13.0" height="15" fill="#69d7d7" rx="2" ry="2"/>
<text x="912.7" y="78.0"></text>
</g>
<g>
<title>one/nio/http/Request.getPath (4 samples, 2.21%)</title><rect x="922.7" y="147.0" width="26.1" height="15" fill="#62f362" rx="2" ry="2"/>
<text x="925.7" y="158.0">o..</text>
</g>
<g>
<title>java/lang/String.substring (4 samples, 2.21%)</title><rect x="922.7" y="131.0" width="26.1" height="15" fill="#63f463" rx="2" ry="2"/>
<text x="925.7" y="142.0">j..</text>
</g>
<g>
<title>java/lang/StringLatin1.newString (4 samples, 2.21%)</title><rect x="922.7" y="115.0" width="26.1" height="15" fill="#5ff05f" rx="2" ry="2"/>
<text x="925.7" y="126.0">j..</text>
</g>
<g>
<title>java.lang.String (2 samples, 1.10%)</title><rect x="922.7" y="99.0" width="13.0" height="15" fill="#5ccaca" rx="2" ry="2"/>
<text x="925.7" y="110.0"></text>
</g>
<g>
<title>java/util/Arrays.copyOfRange (2 samples, 1.10%)</title><rect x="935.7" y="99.0" width="13.1" height="15" fill="#5aeb5a" rx="2" ry="2"/>
<text x="938.7" y="110.0"></text>
</g>
<g>
<title>byte[] (2 samples, 1.10%)</title><rect x="935.7" y="83.0" width="13.1" height="15" fill="#65d3d3" rx="2" ry="2"/>
<text x="938.7" y="94.0"></text>
</g>
<g>
<title>one/nio/http/HttpSession.parseRequest (22 samples, 12.15%)</title><rect x="948.8" y="179.0" width="143.4" height="15" fill="#68f968" rx="2" ry="2"/>
<text x="951.8" y="190.0">one/nio/http/HttpS..</text>
</g>
<g>
<title>one.nio.http.Request (4 samples, 2.21%)</title><rect x="948.8" y="163.0" width="26.1" height="15" fill="#64d2d2" rx="2" ry="2"/>
<text x="951.8" y="174.0">o..</text>
</g>
<g>
<title>one/nio/http/Request.&lt;init&gt; (6 samples, 3.31%)</title><rect x="974.9" y="163.0" width="39.1" height="15" fill="#54e554" rx="2" ry="2"/>
<text x="977.9" y="174.0">one..</text>
</g>
<g>
<title>java.lang.String[] (6 samples, 3.31%)</title><rect x="974.9" y="147.0" width="39.1" height="15" fill="#50bebe" rx="2" ry="2"/>
<text x="977.9" y="158.0">jav..</text>
</g>
<g>
<title>one/nio/util/Utf8.read (12 samples, 6.63%)</title><rect x="1014.0" y="163.0" width="78.2" height="15" fill="#51e251" rx="2" ry="2"/>
<text x="1017.0" y="174.0">one/nio/u..</text>
</g>
<g>
<title>one/nio/util/Utf8.read (12 samples, 6.63%)</title><rect x="1014.0" y="147.0" width="78.2" height="15" fill="#64f564" rx="2" ry="2"/>
<text x="1017.0" y="158.0">one/nio/u..</text>
</g>
<g>
<title>char[] (5 samples, 2.76%)</title><rect x="1014.0" y="131.0" width="32.6" height="15" fill="#55c3c3" rx="2" ry="2"/>
<text x="1017.0" y="142.0">ch..</text>
</g>
<g>
<title>java.lang.String (3 samples, 1.66%)</title><rect x="1046.6" y="131.0" width="19.5" height="15" fill="#62d0d0" rx="2" ry="2"/>
<text x="1049.6" y="142.0"></text>
</g>
<g>
<title>java/lang/String.&lt;init&gt; (4 samples, 2.21%)</title><rect x="1066.1" y="131.0" width="26.1" height="15" fill="#65f665" rx="2" ry="2"/>
<text x="1069.1" y="142.0">j..</text>
</g>
<g>
<title>java/lang/String.&lt;init&gt; (4 samples, 2.21%)</title><rect x="1066.1" y="115.0" width="26.1" height="15" fill="#61f261" rx="2" ry="2"/>
<text x="1069.1" y="126.0">j..</text>
</g>
<g>
<title>java/lang/StringUTF16.compress (4 samples, 2.21%)</title><rect x="1066.1" y="99.0" width="26.1" height="15" fill="#50e150" rx="2" ry="2"/>
<text x="1069.1" y="110.0">j..</text>
</g>
<g>
<title>byte[] (4 samples, 2.21%)</title><rect x="1066.1" y="83.0" width="26.1" height="15" fill="#50bebe" rx="2" ry="2"/>
<text x="1069.1" y="94.0">b..</text>
</g>
<g>
<title>one/nio/http/HttpSession.startParsingRequestBody (2 samples, 1.10%)</title><rect x="1092.2" y="179.0" width="13.0" height="15" fill="#59ea59" rx="2" ry="2"/>
<text x="1095.2" y="190.0"></text>
</g>
<g>
<title>byte[] (2 samples, 1.10%)</title><rect x="1092.2" y="163.0" width="13.0" height="15" fill="#57c5c5" rx="2" ry="2"/>
<text x="1095.2" y="174.0"></text>
</g>
<g>
<title>one/nio/http/Request.getHeader (1 samples, 0.55%)</title><rect x="1105.2" y="179.0" width="6.6" height="15" fill="#63f463" rx="2" ry="2"/>
<text x="1108.2" y="190.0"></text>
</g>
<g>
<title>java/lang/String.substring (1 samples, 0.55%)</title><rect x="1105.2" y="163.0" width="6.6" height="15" fill="#69fa69" rx="2" ry="2"/>
<text x="1108.2" y="174.0"></text>
</g>
<g>
<title>java/lang/StringLatin1.newString (1 samples, 0.55%)</title><rect x="1105.2" y="147.0" width="6.6" height="15" fill="#55e655" rx="2" ry="2"/>
<text x="1108.2" y="158.0"></text>
</g>
<g>
<title>java.lang.String (1 samples, 0.55%)</title><rect x="1105.2" y="131.0" width="6.6" height="15" fill="#5ac8c8" rx="2" ry="2"/>
<text x="1108.2" y="142.0"></text>
</g>
<g>
<title>one/nio/util/Utf8.read (12 samples, 6.63%)</title><rect x="1111.8" y="179.0" width="78.2" height="15" fill="#64f564" rx="2" ry="2"/>
<text x="1114.8" y="190.0">one/nio/u..</text>
</g>
<g>
<title>one/nio/util/Utf8.read (12 samples, 6.63%)</title><rect x="1111.8" y="163.0" width="78.2" height="15" fill="#6afb6a" rx="2" ry="2"/>
<text x="1114.8" y="174.0">one/nio/u..</text>
</g>
<g>
<title>char[] (3 samples, 1.66%)</title><rect x="1111.8" y="147.0" width="19.5" height="15" fill="#63d1d1" rx="2" ry="2"/>
<text x="1114.8" y="158.0"></text>
</g>
<g>
<title>java.lang.String (2 samples, 1.10%)</title><rect x="1131.3" y="147.0" width="13.1" height="15" fill="#59c7c7" rx="2" ry="2"/>
<text x="1134.3" y="158.0"></text>
</g>
<g>
<title>java/lang/String.&lt;init&gt; (7 samples, 3.87%)</title><rect x="1144.4" y="147.0" width="45.6" height="15" fill="#6afb6a" rx="2" ry="2"/>
<text x="1147.4" y="158.0">java..</text>
</g>
<g>
<title>java/lang/String.&lt;init&gt; (7 samples, 3.87%)</title><rect x="1144.4" y="131.0" width="45.6" height="15" fill="#55e655" rx="2" ry="2"/>
<text x="1147.4" y="142.0">java..</text>
</g>
<g>
<title>java/lang/StringUTF16.compress (7 samples, 3.87%)</title><rect x="1144.4" y="115.0" width="45.6" height="15" fill="#54e554" rx="2" ry="2"/>
<text x="1147.4" y="126.0">java..</text>
</g>
<g>
<title>byte[] (7 samples, 3.87%)</title><rect x="1144.4" y="99.0" width="45.6" height="15" fill="#5fcdcd" rx="2" ry="2"/>
<text x="1147.4" y="110.0">byte[]</text>
</g>
</g>
</svg>
