<?xml version="1.0" standalone="no"?>
<!DOCTYPE svg PUBLIC "-//W3C//DTD SVG 1.1//EN" "http://www.w3.org/Graphics/SVG/1.1/DTD/svg11.dtd">
<svg version="1.1" width="1200" height="470" onload="init(evt)" viewBox="0 0 1200 470" xmlns="http://www.w3.org/2000/svg" xmlns:xlink="http://www.w3.org/1999/xlink">
<style type="text/css">
	text { font-family:Verdana; font-size:12px; fill:rgb(0,0,0); }
	#search { opacity:0.1; cursor:pointer; }
	#search:hover, #search.show { opacity:1; }
	#subtitle { text-anchor:middle; font-color:rgb(160,160,160); }
	#title { text-anchor:middle; font-size:17px}
	#unzoom { cursor:pointer; }
	#frames > *:hover { stroke:black; stroke-width:0.5; cursor:pointer; }
	.hide { display:none; }
	.parent { opacity:0.5; }
</style>
<script type="text/ecmascript">
<![CDATA[
	"use strict";
	var details, searchbtn, unzoombtn, matchedtxt, svg, searching;
	function init(evt) {
		details = document.getElementById("details").firstChild;
		searchbtn = document.getElementById("search");
		unzoombtn = document.getElementById("unzoom");
		matchedtxt = document.getElementById("matched");
		svg = document.getElementsByTagName("svg")[0];
		searching = 0;
	}

	window.addEventListener("click", function(e) {
		var target = find_group(e.target);
		if (target) {
			if (target.nodeName == "a") {
				if (e.ctrlKey === false) return;
				e.preventDefault();
			}
			if (target.classList.contains("parent")) unzoom();
			zoom(target);
		}
		else if (e.target.id == "unzoom") unzoom();
		else if (e.target.id == "search") search_prompt();
	}, false)

	// mouse-over for info
	// show
	window.addEventListener("mouseover", function(e) {
		var target = find_group(e.target);
		if (target) details.nodeValue = "Function: " + g_to_text(target);
	}, false)

	// clear
	window.addEventListener("mouseout", function(e) {
		var target = find_group(e.target);
		if (target) details.nodeValue = ' ';
	}, false)

	// ctrl-F for search
	window.addEventListener("keydown",function (e) {
		if (e.keyCode === 114 || (e.ctrlKey && e.keyCode === 70)) {
			e.preventDefault();
			search_prompt();
		}
	}, false)

	// functions
	function find_child(node, selector) {
		var children = node.querySelectorAll(selector);
		if (children.length) return children[0];
		return;
	}
	function find_group(node) {
		var parent = node.parentElement;
		if (!parent) return;
		if (parent.id == "frames") return node;
		return find_group(parent);
	}
	function orig_save(e, attr, val) {
		if (e.attributes["_orig_" + attr] != undefined) return;
		if (e.attributes[attr] == undefined) return;
		if (val == undefined) val = e.attributes[attr].value;
		e.setAttribute("_orig_" + attr, val);
	}
	function orig_load(e, attr) {
		if (e.attributes["_orig_"+attr] == undefined) return;
		e.attributes[attr].value = e.attributes["_orig_" + attr].value;
		e.removeAttribute("_orig_"+attr);
	}
	function g_to_text(e) {
		var text = find_child(e, "title").firstChild.nodeValue;
		return (text)
	}
	function g_to_func(e) {
		var func = g_to_text(e);
		// if there's any manipulation we want to do to the function
		// name before it's searched, do it here before returning.
		return (func);
	}
	function update_text(e) {
		var r = find_child(e, "rect");
		var t = find_child(e, "text");
		var w = parseFloat(r.attributes.width.value) -3;
		var txt = find_child(e, "title").textContent.replace(/\([^(]*\)$/,"");
		t.attributes.x.value = parseFloat(r.attributes.x.value) + 3;

		// Smaller than this size won't fit anything
		if (w < 2 * 12 * 0.59) {
			t.textContent = "";
			return;
		}

		t.textContent = txt;
		// Fit in full text width
		if (/^ *$/.test(txt) || t.getSubStringLength(0, txt.length) < w)
			return;

		for (var x = txt.length - 2; x > 0; x--) {
			if (t.getSubStringLength(0, x + 2) <= w) {
				t.textContent = txt.substring(0, x) + "..";
				return;
			}
		}
		t.textContent = "";
	}

	// zoom
	function zoom_reset(e) {
		if (e.attributes != undefined) {
			orig_load(e, "x");
			orig_load(e, "width");
		}
		if (e.childNodes == undefined) return;
		for (var i = 0, c = e.childNodes; i < c.length; i++) {
			zoom_reset(c[i]);
		}
	}
	function zoom_child(e, x, ratio) {
		if (e.attributes != undefined) {
			if (e.attributes.x != undefined) {
				orig_save(e, "x");
				e.attributes.x.value = (parseFloat(e.attributes.x.value) - x - 10) * ratio + 10;
				if (e.tagName == "text")
					e.attributes.x.value = find_child(e.parentNode, "rect[x]").attributes.x.value + 3;
			}
			if (e.attributes.width != undefined) {
				orig_save(e, "width");
				e.attributes.width.value = parseFloat(e.attributes.width.value) * ratio;
			}
		}

		if (e.childNodes == undefined) return;
		for (var i = 0, c = e.childNodes; i < c.length; i++) {
			zoom_child(c[i], x - 10, ratio);
		}
	}
	function zoom_parent(e) {
		if (e.attributes) {
			if (e.attributes.x != undefined) {
				orig_save(e, "x");
				e.attributes.x.value = 10;
			}
			if (e.attributes.width != undefined) {
				orig_save(e, "width");
				e.attributes.width.value = parseInt(svg.width.baseVal.value) - (10 * 2);
			}
		}
		if (e.childNodes == undefined) return;
		for (var i = 0, c = e.childNodes; i < c.length; i++) {
			zoom_parent(c[i]);
		}
	}
	function zoom(node) {
		var attr = find_child(node, "rect").attributes;
		var width = parseFloat(attr.width.value);
		var xmin = parseFloat(attr.x.value);
		var xmax = parseFloat(xmin + width);
		var ymin = parseFloat(attr.y.value);
		var ratio = (svg.width.baseVal.value - 2 * 10) / width;

		// XXX: Workaround for JavaScript float issues (fix me)
		var fudge = 0.0001;

		unzoombtn.classList.remove("hide");

		var el = document.getElementById("frames").children;
		for (var i = 0; i < el.length; i++) {
			var e = el[i];
			var a = find_child(e, "rect").attributes;
			var ex = parseFloat(a.x.value);
			var ew = parseFloat(a.width.value);
			var upstack;
			// Is it an ancestor
			if (0 == 0) {
				upstack = parseFloat(a.y.value) > ymin;
			} else {
				upstack = parseFloat(a.y.value) < ymin;
			}
			if (upstack) {
				// Direct ancestor
				if (ex <= xmin && (ex+ew+fudge) >= xmax) {
					e.classList.add("parent");
					zoom_parent(e);
					update_text(e);
				}
				// not in current path
				else
					e.classList.add("hide");
			}
			// Children maybe
			else {
				// no common path
				if (ex < xmin || ex + fudge >= xmax) {
					e.classList.add("hide");
				}
				else {
					zoom_child(e, xmin, ratio);
					update_text(e);
				}
			}
		}
	}
	function unzoom() {
		unzoombtn.classList.add("hide");
		var el = document.getElementById("frames").children;
		for(var i = 0; i < el.length; i++) {
			el[i].classList.remove("parent");
			el[i].classList.remove("hide");
			zoom_reset(el[i]);
			update_text(el[i]);
		}
	}

	// search
	function reset_search() {
		var el = document.querySelectorAll("#frames rect");
		for (var i = 0; i < el.length; i++) {
			orig_load(el[i], "fill")
		}
	}
	function search_prompt() {
		if (!searching) {
			var term = prompt("Enter a search term (regexp " +
			    "allowed, eg: ^ext4_)", "");
			if (term != null) {
				search(term)
			}
		} else {
			reset_search();
			searching = 0;
			searchbtn.classList.remove("show");
			searchbtn.firstChild.nodeValue = "Search"
			matchedtxt.classList.add("hide");
			matchedtxt.firstChild.nodeValue = ""
		}
	}
	function search(term) {
		var re = new RegExp(term);
		var el = document.getElementById("frames").children;
		var matches = new Object();
		var maxwidth = 0;
		for (var i = 0; i < el.length; i++) {
			var e = el[i];
			var func = g_to_func(e);
			var rect = find_child(e, "rect");
			if (func == null || rect == null)
				continue;

			// Save max width. Only works as we have a root frame
			var w = parseFloat(rect.attributes.width.value);
			if (w > maxwidth)
				maxwidth = w;

			if (func.match(re)) {
				// highlight
				var x = parseFloat(rect.attributes.x.value);
				orig_save(rect, "fill");
				rect.attributes.fill.value = "rgb(230,0,230)";

				// remember matches
				if (matches[x] == undefined) {
					matches[x] = w;
				} else {
					if (w > matches[x]) {
						// overwrite with parent
						matches[x] = w;
					}
				}
				searching = 1;
			}
		}
		if (!searching)
			return;

		searchbtn.classList.add("show");
		searchbtn.firstChild.nodeValue = "Reset Search";

		// calculate percent matched, excluding vertical overlap
		var count = 0;
		var lastx = -1;
		var lastw = 0;
		var keys = Array();
		for (k in matches) {
			if (matches.hasOwnProperty(k))
				keys.push(k);
		}
		// sort the matched frames by their x location
		// ascending, then width descending
		keys.sort(function(a, b){
			return a - b;
		});
		// Step through frames saving only the biggest bottom-up frames
		// thanks to the sort order. This relies on the tree property
		// where children are always smaller than their parents.
		var fudge = 0.0001;	// JavaScript floating point
		for (var k in keys) {
			var x = parseFloat(keys[k]);
			var w = matches[keys[k]];
			if (x >= lastx + lastw - fudge) {
				count += w;
				lastx = x;
				lastw = w;
			}
		}
		// display matched percent
		matchedtxt.classList.remove("hide");
		var pct = 100 * count / maxwidth;
		if (pct != 100) pct = pct.toFixed(1)
		matchedtxt.firstChild.nodeValue = "Matched: " + pct + "%";
	}
]]>
</script>
<rect x="0" y="0" width="100%" height="100%" fill="rgb(240,240,220)"/>
<text id="title" x="600" y="24">Flame Graph</text>
<text id="details" x="10" y="453"> </text>
<text id="unzoom" x="10" y="24" class="hide">Reset Zoom</text>
<text id="search" x="1090" y="24">Search</text>
<text id="matched" x="1090" y="453"> </text>
<g id="frames">
<g>
<title>all (227 samples, 100.00%)</title><rect x="10.0" y="419.0" width="1180.0" height="15" fill="#fb7c7c" rx="2" ry="2"/>
<text x="13.0" y="430.0">all</text>
</g>
<g>
<title>java/lang/Thread.run (165 samples, 72.69%)</title><rect x="10.0" y="403.0" width="857.7" height="15" fill="#54e554" rx="2" ry="2"/>
<text x="13.0" y="414.0">java/lang/Thread.run</text>
</g>
<g>
<title>java/util/concurrent/ThreadPoolExecutor$Worker.run (165 samples, 72.69%)</title><rect x="10.0" y="387.0" width="857.7" height="15" fill="#68f968" rx="2" ry="2"/>
<text x="13.0" y="398.0">java/util/concurrent/ThreadPoolExecutor$Worker.run</text>
</g>
<g>
<title>java/util/concurrent/ThreadPoolExecutor.runWorker (165 samples, 72.69%)</title><rect x="10.0" y="371.0" width="857.7" height="15" fill="#59ea59" rx="2" ry="2"/>
<text x="13.0" y="382.0">java/util/concurrent/ThreadPoolExecutor.runWorker</text>
</g>
<g>
<title>java/util/concurrent/ThreadPoolExecutor.getTask (3 samples, 1.32%)</title><rect x="10.0" y="355.0" width="15.6" height="15" fill="#5bec5b" rx="2" ry="2"/>
<text x="13.0" y="366.0"></text>
</g>
<g>
<title>java/util/concurrent/ArrayBlockingQueue.take (3 samples, 1.32%)</title><rect x="10.0" y="339.0" width="15.6" height="15" fill="#5dee5d" rx="2" ry="2"/>
<text x="13.0" y="350.0"></text>
</g>
<g>
<title>java/util/concurrent/locks/AbstractQueuedSynchronizer$ConditionObject.await (3 samples, 1.32%)</title><rect x="10.0" y="323.0" width="15.6" height="15" fill="#5ff05f" rx="2" ry="2"/>
<text x="13.0" y="334.0"></text>
</g>
<g>
<title>java/util/concurrent/locks/AbstractQueuedSynchronizer$ConditionObject.addConditionWaiter (3 samples, 1.32%)</title><rect x="10.0" y="307.0" width="15.6" height="15" fill="#66f766" rx="2" ry="2"/>
<text x="13.0" y="318.0"></text>
</g>
<g>
<title>java.util.concurrent.locks.AbstractQueuedSynchronizer$Node (3 samples, 1.32%)</title><rect x="10.0" y="291.0" width="15.6" height="15" fill="#6ddbdb" rx="2" ry="2"/>
<text x="13.0" y="302.0"></text>
</g>
<g>
<title>ru/mail/polis/service/re1nex/AsyncService$$Lambda$70/1434076159.run (162 samples, 71.37%)</title><rect x="25.6" y="355.0" width="842.1" height="15" fill="#6cfd6c" rx="2" ry="2"/>
<text x="28.6" y="366.0">ru/mail/polis/service/re1nex/AsyncService$$Lambda$70/1434076159.run</text>
</g>
<g>
<title>ru/mail/polis/service/re1nex/AsyncService.lambda$get$1 (162 samples, 71.37%)</title><rect x="25.6" y="339.0" width="842.1" height="15" fill="#52e352" rx="2" ry="2"/>
<text x="28.6" y="350.0">ru/mail/polis/service/re1nex/AsyncService.lambda$get$1</text>
</g>
<g>
<title>byte[] (5 samples, 2.20%)</title><rect x="25.6" y="323.0" width="26.0" height="15" fill="#50bebe" rx="2" ry="2"/>
<text x="28.6" y="334.0">b..</text>
</g>
<g>
<title>java/lang/String.getBytes (1 samples, 0.44%)</title><rect x="51.6" y="323.0" width="5.2" height="15" fill="#51e251" rx="2" ry="2"/>
<text x="54.6" y="334.0"></text>
</g>
<g>
<title>java/lang/StringCoding.encode (1 samples, 0.44%)</title><rect x="51.6" y="307.0" width="5.2" height="15" fill="#6afb6a" rx="2" ry="2"/>
<text x="54.6" y="318.0"></text>
</g>
<g>
<title>java/lang/StringCoding.encodeUTF8 (1 samples, 0.44%)</title><rect x="51.6" y="291.0" width="5.2" height="15" fill="#6afb6a" rx="2" ry="2"/>
<text x="54.6" y="302.0"></text>
</g>
<g>
<title>java/util/Arrays.copyOf (1 samples, 0.44%)</title><rect x="51.6" y="275.0" width="5.2" height="15" fill="#51e251" rx="2" ry="2"/>
<text x="54.6" y="286.0"></text>
</g>
<g>
<title>byte[] (1 samples, 0.44%)</title><rect x="51.6" y="259.0" width="5.2" height="15" fill="#5ccaca" rx="2" ry="2"/>
<text x="54.6" y="270.0"></text>
</g>
<g>
<title>java/nio/ByteBuffer.wrap (8 samples, 3.52%)</title><rect x="56.8" y="323.0" width="41.6" height="15" fill="#55e655" rx="2" ry="2"/>
<text x="59.8" y="334.0">jav..</text>
</g>
<g>
<title>java/nio/ByteBuffer.wrap (8 samples, 3.52%)</title><rect x="56.8" y="307.0" width="41.6" height="15" fill="#56e756" rx="2" ry="2"/>
<text x="59.8" y="318.0">jav..</text>
</g>
<g>
<title>java.nio.HeapByteBuffer (8 samples, 3.52%)</title><rect x="56.8" y="291.0" width="41.6" height="15" fill="#67d5d5" rx="2" ry="2"/>
<text x="59.8" y="302.0">jav..</text>
</g>
<g>
<title>one.nio.http.Response (5 samples, 2.20%)</title><rect x="98.4" y="323.0" width="26.0" height="15" fill="#62d0d0" rx="2" ry="2"/>
<text x="101.4" y="334.0">o..</text>
</g>
<g>
<title>one/nio/http/Response.&lt;init&gt; (10 samples, 4.41%)</title><rect x="124.4" y="323.0" width="51.9" height="15" fill="#52e352" rx="2" ry="2"/>
<text x="127.4" y="334.0">one/n..</text>
</g>
<g>
<title>byte[] (4 samples, 1.76%)</title><rect x="124.4" y="307.0" width="20.8" height="15" fill="#5dcbcb" rx="2" ry="2"/>
<text x="127.4" y="318.0"></text>
</g>
<g>
<title>java.lang.String[] (1 samples, 0.44%)</title><rect x="145.2" y="307.0" width="5.2" height="15" fill="#5ccaca" rx="2" ry="2"/>
<text x="148.2" y="318.0"></text>
</g>
<g>
<title>java.lang.String (5 samples, 2.20%)</title><rect x="150.4" y="307.0" width="25.9" height="15" fill="#5dcbcb" rx="2" ry="2"/>
<text x="153.4" y="318.0">j..</text>
</g>
<g>
<title>ru/mail/polis/dao/DAO.get (118 samples, 51.98%)</title><rect x="176.3" y="323.0" width="613.4" height="15" fill="#62f362" rx="2" ry="2"/>
<text x="179.3" y="334.0">ru/mail/polis/dao/DAO.get</text>
</g>
<g>
<title>com/google/common/collect/TransformedIterator.hasNext (12 samples, 5.29%)</title><rect x="176.3" y="307.0" width="62.4" height="15" fill="#69fa69" rx="2" ry="2"/>
<text x="179.3" y="318.0">com/go..</text>
</g>
<g>
<title>com/google/common/collect/AbstractIterator.hasNext (12 samples, 5.29%)</title><rect x="176.3" y="291.0" width="62.4" height="15" fill="#60f160" rx="2" ry="2"/>
<text x="179.3" y="302.0">com/go..</text>
</g>
<g>
<title>com/google/common/collect/AbstractIterator.tryToComputeNext (12 samples, 5.29%)</title><rect x="176.3" y="275.0" width="62.4" height="15" fill="#56e756" rx="2" ry="2"/>
<text x="179.3" y="286.0">com/go..</text>
</g>
<g>
<title>com/google/common/collect/Iterators$5.computeNext (12 samples, 5.29%)</title><rect x="176.3" y="259.0" width="62.4" height="15" fill="#68f968" rx="2" ry="2"/>
<text x="179.3" y="270.0">com/go..</text>
</g>
<g>
<title>ru/mail/polis/dao/Iters$CollapseEqualsIterator.next (12 samples, 5.29%)</title><rect x="176.3" y="243.0" width="62.4" height="15" fill="#64f564" rx="2" ry="2"/>
<text x="179.3" y="254.0">ru/mai..</text>
</g>
<g>
<title>com/google/common/collect/Iterators$MergingIterator.next (3 samples, 1.32%)</title><rect x="176.3" y="227.0" width="15.6" height="15" fill="#52e352" rx="2" ry="2"/>
<text x="179.3" y="238.0"></text>
</g>
<g>
<title>com/google/common/collect/Iterators$PeekingImpl.hasNext (3 samples, 1.32%)</title><rect x="176.3" y="211.0" width="15.6" height="15" fill="#6cfd6c" rx="2" ry="2"/>
<text x="179.3" y="222.0"></text>
</g>
<g>
<title>java/util/Spliterators$1Adapter.hasNext (3 samples, 1.32%)</title><rect x="176.3" y="195.0" width="15.6" height="15" fill="#5eef5e" rx="2" ry="2"/>
<text x="179.3" y="206.0"></text>
</g>
<g>
<title>java/util/stream/StreamSpliterators$WrappingSpliterator.tryAdvance (3 samples, 1.32%)</title><rect x="176.3" y="179.0" width="15.6" height="15" fill="#5bec5b" rx="2" ry="2"/>
<text x="179.3" y="190.0"></text>
</g>
<g>
<title>java/util/stream/StreamSpliterators$AbstractWrappingSpliterator.doAdvance (3 samples, 1.32%)</title><rect x="176.3" y="163.0" width="15.6" height="15" fill="#5aeb5a" rx="2" ry="2"/>
<text x="179.3" y="174.0"></text>
</g>
<g>
<title>java/util/stream/StreamSpliterators$AbstractWrappingSpliterator.fillBuffer (3 samples, 1.32%)</title><rect x="176.3" y="147.0" width="15.6" height="15" fill="#6bfc6b" rx="2" ry="2"/>
<text x="179.3" y="158.0"></text>
</g>
<g>
<title>java/util/stream/StreamSpliterators$WrappingSpliterator$$Lambda$100/1606112077.getAsBoolean (3 samples, 1.32%)</title><rect x="176.3" y="131.0" width="15.6" height="15" fill="#6bfc6b" rx="2" ry="2"/>
<text x="179.3" y="142.0"></text>
</g>
<g>
<title>java/util/stream/StreamSpliterators$WrappingSpliterator.lambda$initPartialTraversalState$0 (3 samples, 1.32%)</title><rect x="176.3" y="115.0" width="15.6" height="15" fill="#53e453" rx="2" ry="2"/>
<text x="179.3" y="126.0"></text>
</g>
<g>
<title>java/util/concurrent/ConcurrentSkipListMap$SubMap$SubMapIter.tryAdvance (3 samples, 1.32%)</title><rect x="176.3" y="99.0" width="15.6" height="15" fill="#6bfc6b" rx="2" ry="2"/>
<text x="179.3" y="110.0"></text>
</g>
<g>
<title>java/util/stream/ReferencePipeline$3$1.accept (3 samples, 1.32%)</title><rect x="176.3" y="83.0" width="15.6" height="15" fill="#6afb6a" rx="2" ry="2"/>
<text x="179.3" y="94.0"></text>
</g>
<g>
<title>ru/mail/polis/dao/re1nex/MemTable$$Lambda$73/427983456.apply (3 samples, 1.32%)</title><rect x="176.3" y="67.0" width="15.6" height="15" fill="#55e655" rx="2" ry="2"/>
<text x="179.3" y="78.0"></text>
</g>
<g>
<title>ru/mail/polis/dao/re1nex/MemTable.lambda$iterator$0 (3 samples, 1.32%)</title><rect x="176.3" y="51.0" width="15.6" height="15" fill="#6bfc6b" rx="2" ry="2"/>
<text x="179.3" y="62.0"></text>
</g>
<g>
<title>ru.mail.polis.dao.re1nex.Cell (3 samples, 1.32%)</title><rect x="176.3" y="35.0" width="15.6" height="15" fill="#6bd9d9" rx="2" ry="2"/>
<text x="179.3" y="46.0"></text>
</g>
<g>
<title>ru/mail/polis/dao/re1nex/NewDAO$$Lambda$106/1543838348.apply (9 samples, 3.96%)</title><rect x="191.9" y="227.0" width="46.8" height="15" fill="#52e352" rx="2" ry="2"/>
<text x="194.9" y="238.0">ru/m..</text>
</g>
<g>
<title>ru/mail/polis/dao/re1nex/Cell.getKey (9 samples, 3.96%)</title><rect x="191.9" y="211.0" width="46.8" height="15" fill="#68f968" rx="2" ry="2"/>
<text x="194.9" y="222.0">ru/m..</text>
</g>
<g>
<title>java/nio/HeapByteBuffer.asReadOnlyBuffer (9 samples, 3.96%)</title><rect x="191.9" y="195.0" width="46.8" height="15" fill="#6dfe6d" rx="2" ry="2"/>
<text x="194.9" y="206.0">java..</text>
</g>
<g>
<title>java.nio.HeapByteBufferR (9 samples, 3.96%)</title><rect x="191.9" y="179.0" width="46.8" height="15" fill="#5fcdcd" rx="2" ry="2"/>
<text x="194.9" y="190.0">java..</text>
</g>
<g>
<title>com/google/common/collect/TransformedIterator.next (15 samples, 6.61%)</title><rect x="238.7" y="307.0" width="78.0" height="15" fill="#50e150" rx="2" ry="2"/>
<text x="241.7" y="318.0">com/googl..</text>
</g>
<g>
<title>com/google/common/collect/Iterators$6.transform (15 samples, 6.61%)</title><rect x="238.7" y="291.0" width="78.0" height="15" fill="#55e655" rx="2" ry="2"/>
<text x="241.7" y="302.0">com/googl..</text>
</g>
<g>
<title>ru/mail/polis/dao/re1nex/NewDAO$$Lambda$127/1931504605.apply (15 samples, 6.61%)</title><rect x="238.7" y="275.0" width="78.0" height="15" fill="#58e958" rx="2" ry="2"/>
<text x="241.7" y="286.0">ru/mail/p..</text>
</g>
<g>
<title>ru/mail/polis/dao/re1nex/NewDAO.lambda$iterator$4 (15 samples, 6.61%)</title><rect x="238.7" y="259.0" width="78.0" height="15" fill="#62f362" rx="2" ry="2"/>
<text x="241.7" y="270.0">ru/mail/p..</text>
</g>
<g>
<title>ru/mail/polis/Record.of (8 samples, 3.52%)</title><rect x="238.7" y="243.0" width="41.6" height="15" fill="#57e857" rx="2" ry="2"/>
<text x="241.7" y="254.0">ru/..</text>
</g>
<g>
<title>ru.mail.polis.Record (8 samples, 3.52%)</title><rect x="238.7" y="227.0" width="41.6" height="15" fill="#66d4d4" rx="2" ry="2"/>
<text x="241.7" y="238.0">ru...</text>
</g>
<g>
<title>ru/mail/polis/dao/re1nex/Value.getData (7 samples, 3.08%)</title><rect x="280.3" y="243.0" width="36.4" height="15" fill="#51e251" rx="2" ry="2"/>
<text x="283.3" y="254.0">ru/..</text>
</g>
<g>
<title>java/nio/HeapByteBuffer.asReadOnlyBuffer (7 samples, 3.08%)</title><rect x="280.3" y="227.0" width="36.4" height="15" fill="#65f665" rx="2" ry="2"/>
<text x="283.3" y="238.0">jav..</text>
</g>
<g>
<title>java.nio.HeapByteBufferR (7 samples, 3.08%)</title><rect x="280.3" y="211.0" width="36.4" height="15" fill="#5ac8c8" rx="2" ry="2"/>
<text x="283.3" y="222.0">jav..</text>
</g>
<g>
<title>ru/mail/polis/Record.getKey (5 samples, 2.20%)</title><rect x="316.7" y="307.0" width="26.0" height="15" fill="#6afb6a" rx="2" ry="2"/>
<text x="319.7" y="318.0">r..</text>
</g>
<g>
<title>java/nio/HeapByteBufferR.asReadOnlyBuffer (5 samples, 2.20%)</title><rect x="316.7" y="291.0" width="26.0" height="15" fill="#58e958" rx="2" ry="2"/>
<text x="319.7" y="302.0">j..</text>
</g>
<g>
<title>java/nio/HeapByteBufferR.duplicate (5 samples, 2.20%)</title><rect x="316.7" y="275.0" width="26.0" height="15" fill="#60f160" rx="2" ry="2"/>
<text x="319.7" y="286.0">j..</text>
</g>
<g>
<title>java.nio.HeapByteBufferR (5 samples, 2.20%)</title><rect x="316.7" y="259.0" width="26.0" height="15" fill="#64d2d2" rx="2" ry="2"/>
<text x="319.7" y="270.0">j..</text>
</g>
<g>
<title>ru/mail/polis/dao/re1nex/NewDAO.iterator (86 samples, 37.89%)</title><rect x="342.7" y="307.0" width="447.0" height="15" fill="#6cfd6c" rx="2" ry="2"/>
<text x="345.7" y="318.0">ru/mail/polis/dao/re1nex/NewDAO.iterator</text>
</g>
<g>
<title>com/google/common/collect/Iterators.filter (3 samples, 1.32%)</title><rect x="342.7" y="291.0" width="15.6" height="15" fill="#62f362" rx="2" ry="2"/>
<text x="345.7" y="302.0"></text>
</g>
<g>
<title>com.google.common.collect.Iterators$5 (3 samples, 1.32%)</title><rect x="342.7" y="275.0" width="15.6" height="15" fill="#63d1d1" rx="2" ry="2"/>
<text x="345.7" y="286.0"></text>
</g>
<g>
<title>com/google/common/collect/Iterators.transform (2 samples, 0.88%)</title><rect x="358.3" y="291.0" width="10.4" height="15" fill="#5ced5c" rx="2" ry="2"/>
<text x="361.3" y="302.0"></text>
</g>
<g>
<title>com.google.common.collect.Iterators$6 (2 samples, 0.88%)</title><rect x="358.3" y="275.0" width="10.4" height="15" fill="#50bebe" rx="2" ry="2"/>
<text x="361.3" y="286.0"></text>
</g>
<g>
<title>ru/mail/polis/dao/re1nex/NewDAO.cellIterator (81 samples, 35.68%)</title><rect x="368.7" y="291.0" width="421.0" height="15" fill="#6dfe6d" rx="2" ry="2"/>
<text x="371.7" y="302.0">ru/mail/polis/dao/re1nex/NewDAO.cellIterator</text>
</g>
<g>
<title>com/google/common/collect/Iterators.mergeSorted (36 samples, 15.86%)</title><rect x="368.7" y="275.0" width="187.1" height="15" fill="#5aeb5a" rx="2" ry="2"/>
<text x="371.7" y="286.0">com/google/common/collec..</text>
</g>
<g>
<title>com.google.common.collect.Iterators$MergingIterator (1 samples, 0.44%)</title><rect x="368.7" y="259.0" width="5.2" height="15" fill="#6bd9d9" rx="2" ry="2"/>
<text x="371.7" y="270.0"></text>
</g>
<g>
<title>com/google/common/collect/Iterators$MergingIterator.&lt;init&gt; (35 samples, 15.42%)</title><rect x="373.9" y="259.0" width="181.9" height="15" fill="#52e352" rx="2" ry="2"/>
<text x="376.9" y="270.0">com/google/common/colle..</text>
</g>
<g>
<title>com.google.common.collect.Iterators$MergingIterator$1 (6 samples, 2.64%)</title><rect x="373.9" y="243.0" width="31.2" height="15" fill="#57c5c5" rx="2" ry="2"/>
<text x="376.9" y="254.0">co..</text>
</g>
<g>
<title>com/google/common/collect/Iterators.peekingIterator (2 samples, 0.88%)</title><rect x="405.1" y="243.0" width="10.4" height="15" fill="#68f968" rx="2" ry="2"/>
<text x="408.1" y="254.0"></text>
</g>
<g>
<title>com.google.common.collect.Iterators$PeekingImpl (2 samples, 0.88%)</title><rect x="405.1" y="227.0" width="10.4" height="15" fill="#58c6c6" rx="2" ry="2"/>
<text x="408.1" y="238.0"></text>
</g>
<g>
<title>java.util.PriorityQueue (2 samples, 0.88%)</title><rect x="415.5" y="243.0" width="10.4" height="15" fill="#55c3c3" rx="2" ry="2"/>
<text x="418.5" y="254.0"></text>
</g>
<g>
<title>java/util/PriorityQueue.&lt;init&gt; (3 samples, 1.32%)</title><rect x="425.9" y="243.0" width="15.6" height="15" fill="#65f665" rx="2" ry="2"/>
<text x="428.9" y="254.0"></text>
</g>
<g>
<title>java.lang.Object[] (3 samples, 1.32%)</title><rect x="425.9" y="227.0" width="15.6" height="15" fill="#5bc9c9" rx="2" ry="2"/>
<text x="428.9" y="238.0"></text>
</g>
<g>
<title>java/util/Spliterators$1Adapter.hasNext (22 samples, 9.69%)</title><rect x="441.5" y="243.0" width="114.3" height="15" fill="#50e150" rx="2" ry="2"/>
<text x="444.5" y="254.0">java/util/Spli..</text>
</g>
<g>
<title>java/util/stream/StreamSpliterators$WrappingSpliterator.tryAdvance (22 samples, 9.69%)</title><rect x="441.5" y="227.0" width="114.3" height="15" fill="#64f564" rx="2" ry="2"/>
<text x="444.5" y="238.0">java/util/stre..</text>
</g>
<g>
<title>java/util/stream/StreamSpliterators$AbstractWrappingSpliterator.doAdvance (22 samples, 9.69%)</title><rect x="441.5" y="211.0" width="114.3" height="15" fill="#6afb6a" rx="2" ry="2"/>
<text x="444.5" y="222.0">java/util/stre..</text>
</g>
<g>
<title>java/util/stream/StreamSpliterators$AbstractWrappingSpliterator.fillBuffer (3 samples, 1.32%)</title><rect x="441.5" y="195.0" width="15.5" height="15" fill="#50e150" rx="2" ry="2"/>
<text x="444.5" y="206.0"></text>
</g>
<g>
<title>java/util/stream/StreamSpliterators$WrappingSpliterator$$Lambda$100/1606112077.getAsBoolean (3 samples, 1.32%)</title><rect x="441.5" y="179.0" width="15.5" height="15" fill="#6afb6a" rx="2" ry="2"/>
<text x="444.5" y="190.0"></text>
</g>
<g>
<title>java/util/stream/StreamSpliterators$WrappingSpliterator.lambda$initPartialTraversalState$0 (3 samples, 1.32%)</title><rect x="441.5" y="163.0" width="15.5" height="15" fill="#55e655" rx="2" ry="2"/>
<text x="444.5" y="174.0"></text>
</g>
<g>
<title>java/util/concurrent/ConcurrentSkipListMap$SubMap$SubMapIter.tryAdvance (3 samples, 1.32%)</title><rect x="441.5" y="147.0" width="15.5" height="15" fill="#63f463" rx="2" ry="2"/>
<text x="444.5" y="158.0"></text>
</g>
<g>
<title>java/util/stream/ReferencePipeline$3$1.accept (3 samples, 1.32%)</title><rect x="441.5" y="131.0" width="15.5" height="15" fill="#54e554" rx="2" ry="2"/>
<text x="444.5" y="142.0"></text>
</g>
<g>
<title>ru/mail/polis/dao/re1nex/MemTable$$Lambda$73/427983456.apply (3 samples, 1.32%)</title><rect x="441.5" y="115.0" width="15.5" height="15" fill="#6bfc6b" rx="2" ry="2"/>
<text x="444.5" y="126.0"></text>
</g>
<g>
<title>ru/mail/polis/dao/re1nex/MemTable.lambda$iterator$0 (3 samples, 1.32%)</title><rect x="441.5" y="99.0" width="15.5" height="15" fill="#64f564" rx="2" ry="2"/>
<text x="444.5" y="110.0"></text>
</g>
<g>
<title>ru.mail.polis.dao.re1nex.Cell (3 samples, 1.32%)</title><rect x="441.5" y="83.0" width="15.5" height="15" fill="#6ad8d8" rx="2" ry="2"/>
<text x="444.5" y="94.0"></text>
</g>
<g>
<title>java/util/stream/StreamSpliterators$WrappingSpliterator.initPartialTraversalState (19 samples, 8.37%)</title><rect x="457.0" y="195.0" width="98.8" height="15" fill="#58e958" rx="2" ry="2"/>
<text x="460.0" y="206.0">java/util/st..</text>
</g>
<g>
<title>java.util.stream.SpinedBuffer (7 samples, 3.08%)</title><rect x="457.0" y="179.0" width="36.4" height="15" fill="#60cece" rx="2" ry="2"/>
<text x="460.0" y="190.0">jav..</text>
</g>
<g>
<title>java/lang/invoke/Invokers$Holder.linkToTargetMethod (1 samples, 0.44%)</title><rect x="493.4" y="179.0" width="5.2" height="15" fill="#54e554" rx="2" ry="2"/>
<text x="496.4" y="190.0"></text>
</g>
<g>
<title>java/lang/invoke/DirectMethodHandle$Holder.invokeStatic (1 samples, 0.44%)</title><rect x="493.4" y="163.0" width="5.2" height="15" fill="#68f968" rx="2" ry="2"/>
<text x="496.4" y="174.0"></text>
</g>
<g>
<title>java/util/stream/StreamSpliterators$WrappingSpliterator$$Lambda$89/88087537.get$Lambda (1 samples, 0.44%)</title><rect x="493.4" y="147.0" width="5.2" height="15" fill="#56e756" rx="2" ry="2"/>
<text x="496.4" y="158.0"></text>
</g>
<g>
<title>java.util.stream.StreamSpliterators$WrappingSpliterator$$Lambda$89 (1 samples, 0.44%)</title><rect x="493.4" y="131.0" width="5.2" height="15" fill="#53c1c1" rx="2" ry="2"/>
<text x="496.4" y="142.0"></text>
</g>
<g>
<title>java/util/stream/AbstractPipeline.wrapSink (1 samples, 0.44%)</title><rect x="498.6" y="179.0" width="5.2" height="15" fill="#5dee5d" rx="2" ry="2"/>
<text x="501.6" y="190.0"></text>
</g>
<g>
<title>java/util/stream/ReferencePipeline$3.opWrapSink (1 samples, 0.44%)</title><rect x="498.6" y="163.0" width="5.2" height="15" fill="#69fa69" rx="2" ry="2"/>
<text x="501.6" y="174.0"></text>
</g>
<g>
<title>java.util.stream.ReferencePipeline$3$1 (1 samples, 0.44%)</title><rect x="498.6" y="147.0" width="5.2" height="15" fill="#60cece" rx="2" ry="2"/>
<text x="501.6" y="158.0"></text>
</g>
<g>
<title>java/util/stream/SpinedBuffer.&lt;init&gt; (10 samples, 4.41%)</title><rect x="503.8" y="179.0" width="52.0" height="15" fill="#5dee5d" rx="2" ry="2"/>
<text x="506.8" y="190.0">java/..</text>
</g>
<g>
<title>java.lang.Object[] (10 samples, 4.41%)</title><rect x="503.8" y="163.0" width="52.0" height="15" fill="#69d7d7" rx="2" ry="2"/>
<text x="506.8" y="174.0">java...</text>
</g>
<g>
<title>java.util.ArrayList (1 samples, 0.44%)</title><rect x="555.8" y="275.0" width="5.2" height="15" fill="#6bd9d9" rx="2" ry="2"/>
<text x="558.8" y="286.0"></text>
</g>
<g>
<title>java/lang/Iterable.forEach (5 samples, 2.20%)</title><rect x="561.0" y="275.0" width="26.0" height="15" fill="#5bec5b" rx="2" ry="2"/>
<text x="564.0" y="286.0">j..</text>
</g>
<g>
<title>java/util/concurrent/ConcurrentSkipListMap$Values.iterator (5 samples, 2.20%)</title><rect x="561.0" y="259.0" width="26.0" height="15" fill="#6cfd6c" rx="2" ry="2"/>
<text x="564.0" y="270.0">j..</text>
</g>
<g>
<title>java.util.concurrent.ConcurrentSkipListMap$SubMap$SubMapValueIterator (5 samples, 2.20%)</title><rect x="561.0" y="243.0" width="26.0" height="15" fill="#55c3c3" rx="2" ry="2"/>
<text x="564.0" y="254.0">j..</text>
</g>
<g>
<title>java/util/ArrayList.&lt;init&gt; (2 samples, 0.88%)</title><rect x="587.0" y="275.0" width="10.4" height="15" fill="#55e655" rx="2" ry="2"/>
<text x="590.0" y="286.0"></text>
</g>
<g>
<title>java.lang.Object[] (2 samples, 0.88%)</title><rect x="587.0" y="259.0" width="10.4" height="15" fill="#57c5c5" rx="2" ry="2"/>
<text x="590.0" y="270.0"></text>
</g>
<g>
<title>ru/mail/polis/dao/Iters.collapseEquals (7 samples, 3.08%)</title><rect x="597.4" y="275.0" width="36.4" height="15" fill="#5aeb5a" rx="2" ry="2"/>
<text x="600.4" y="286.0">ru/..</text>
</g>
<g>
<title>ru.mail.polis.dao.Iters$CollapseEqualsIterator (4 samples, 1.76%)</title><rect x="597.4" y="259.0" width="20.8" height="15" fill="#6bd9d9" rx="2" ry="2"/>
<text x="600.4" y="270.0"></text>
</g>
<g>
<title>ru/mail/polis/dao/Iters$CollapseEqualsIterator.&lt;init&gt; (3 samples, 1.32%)</title><rect x="618.2" y="259.0" width="15.6" height="15" fill="#62f362" rx="2" ry="2"/>
<text x="621.2" y="270.0"></text>
</g>
<g>
<title>com/google/common/collect/Iterators$MergingIterator.next (3 samples, 1.32%)</title><rect x="618.2" y="243.0" width="15.6" height="15" fill="#5bec5b" rx="2" ry="2"/>
<text x="621.2" y="254.0"></text>
</g>
<g>
<title>com/google/common/collect/Iterators$PeekingImpl.hasNext (3 samples, 1.32%)</title><rect x="618.2" y="227.0" width="15.6" height="15" fill="#62f362" rx="2" ry="2"/>
<text x="621.2" y="238.0"></text>
</g>
<g>
<title>java/util/Spliterators$1Adapter.hasNext (3 samples, 1.32%)</title><rect x="618.2" y="211.0" width="15.6" height="15" fill="#5ff05f" rx="2" ry="2"/>
<text x="621.2" y="222.0"></text>
</g>
<g>
<title>java/util/stream/StreamSpliterators$WrappingSpliterator.tryAdvance (3 samples, 1.32%)</title><rect x="618.2" y="195.0" width="15.6" height="15" fill="#5bec5b" rx="2" ry="2"/>
<text x="621.2" y="206.0"></text>
</g>
<g>
<title>java/util/stream/StreamSpliterators$AbstractWrappingSpliterator.doAdvance (3 samples, 1.32%)</title><rect x="618.2" y="179.0" width="15.6" height="15" fill="#5ff05f" rx="2" ry="2"/>
<text x="621.2" y="190.0"></text>
</g>
<g>
<title>java/util/stream/StreamSpliterators$AbstractWrappingSpliterator.fillBuffer (3 samples, 1.32%)</title><rect x="618.2" y="163.0" width="15.6" height="15" fill="#64f564" rx="2" ry="2"/>
<text x="621.2" y="174.0"></text>
</g>
<g>
<title>java/util/stream/StreamSpliterators$WrappingSpliterator$$Lambda$100/1606112077.getAsBoolean (3 samples, 1.32%)</title><rect x="618.2" y="147.0" width="15.6" height="15" fill="#50e150" rx="2" ry="2"/>
<text x="621.2" y="158.0"></text>
</g>
<g>
<title>java/util/stream/StreamSpliterators$WrappingSpliterator.lambda$initPartialTraversalState$0 (3 samples, 1.32%)</title><rect x="618.2" y="131.0" width="15.6" height="15" fill="#63f463" rx="2" ry="2"/>
<text x="621.2" y="142.0"></text>
</g>
<g>
<title>java/util/concurrent/ConcurrentSkipListMap$SubMap$SubMapIter.tryAdvance (3 samples, 1.32%)</title><rect x="618.2" y="115.0" width="15.6" height="15" fill="#62f362" rx="2" ry="2"/>
<text x="621.2" y="126.0"></text>
</g>
<g>
<title>java/util/stream/ReferencePipeline$3$1.accept (3 samples, 1.32%)</title><rect x="618.2" y="99.0" width="15.6" height="15" fill="#64f564" rx="2" ry="2"/>
<text x="621.2" y="110.0"></text>
</g>
<g>
<title>ru/mail/polis/dao/re1nex/MemTable$$Lambda$73/427983456.apply (3 samples, 1.32%)</title><rect x="618.2" y="83.0" width="15.6" height="15" fill="#5ff05f" rx="2" ry="2"/>
<text x="621.2" y="94.0"></text>
</g>
<g>
<title>ru/mail/polis/dao/re1nex/MemTable.lambda$iterator$0 (3 samples, 1.32%)</title><rect x="618.2" y="67.0" width="15.6" height="15" fill="#6afb6a" rx="2" ry="2"/>
<text x="621.2" y="78.0"></text>
</g>
<g>
<title>ru.mail.polis.dao.re1nex.Cell (3 samples, 1.32%)</title><rect x="618.2" y="51.0" width="15.6" height="15" fill="#57c5c5" rx="2" ry="2"/>
<text x="621.2" y="62.0"></text>
</g>
<g>
<title>ru/mail/polis/dao/re1nex/MemTable.iterator (30 samples, 13.22%)</title><rect x="633.8" y="275.0" width="155.9" height="15" fill="#64f564" rx="2" ry="2"/>
<text x="636.8" y="286.0">ru/mail/polis/dao/re..</text>
</g>
<g>
<title>java/util/Collection.stream (9 samples, 3.96%)</title><rect x="633.8" y="259.0" width="46.8" height="15" fill="#65f665" rx="2" ry="2"/>
<text x="636.8" y="270.0">java..</text>
</g>
<g>
<title>java/util/concurrent/ConcurrentSkipListMap$EntrySet.spliterator (5 samples, 2.20%)</title><rect x="633.8" y="243.0" width="26.0" height="15" fill="#5dee5d" rx="2" ry="2"/>
<text x="636.8" y="254.0">j..</text>
</g>
<g>
<title>java.util.concurrent.ConcurrentSkipListMap$SubMap$SubMapEntryIterator (5 samples, 2.20%)</title><rect x="633.8" y="227.0" width="26.0" height="15" fill="#67d5d5" rx="2" ry="2"/>
<text x="636.8" y="238.0">j..</text>
</g>
<g>
<title>java/util/stream/StreamSupport.stream (4 samples, 1.76%)</title><rect x="659.8" y="243.0" width="20.8" height="15" fill="#55e655" rx="2" ry="2"/>
<text x="662.8" y="254.0"></text>
</g>
<g>
<title>java.util.stream.ReferencePipeline$Head (4 samples, 1.76%)</title><rect x="659.8" y="227.0" width="20.8" height="15" fill="#59c7c7" rx="2" ry="2"/>
<text x="662.8" y="238.0"></text>
</g>
<g>
<title>java/util/concurrent/ConcurrentSkipListMap$SubMap.entrySet (1 samples, 0.44%)</title><rect x="680.6" y="259.0" width="5.2" height="15" fill="#5aeb5a" rx="2" ry="2"/>
<text x="683.6" y="270.0"></text>
</g>
<g>
<title>java.util.concurrent.ConcurrentSkipListMap$EntrySet (1 samples, 0.44%)</title><rect x="680.6" y="243.0" width="5.2" height="15" fill="#63d1d1" rx="2" ry="2"/>
<text x="683.6" y="254.0"></text>
</g>
<g>
<title>java/util/concurrent/ConcurrentSkipListMap.tailMap (2 samples, 0.88%)</title><rect x="685.8" y="259.0" width="10.4" height="15" fill="#55e655" rx="2" ry="2"/>
<text x="688.8" y="270.0"></text>
</g>
<g>
<title>java/util/concurrent/ConcurrentSkipListMap.tailMap (2 samples, 0.88%)</title><rect x="685.8" y="243.0" width="10.4" height="15" fill="#57e857" rx="2" ry="2"/>
<text x="688.8" y="254.0"></text>
</g>
<g>
<title>java/util/concurrent/ConcurrentSkipListMap.tailMap (2 samples, 0.88%)</title><rect x="685.8" y="227.0" width="10.4" height="15" fill="#50e150" rx="2" ry="2"/>
<text x="688.8" y="238.0"></text>
</g>
<g>
<title>java.util.concurrent.ConcurrentSkipListMap$SubMap (2 samples, 0.88%)</title><rect x="685.8" y="211.0" width="10.4" height="15" fill="#54c2c2" rx="2" ry="2"/>
<text x="688.8" y="222.0"></text>
</g>
<g>
<title>java/util/stream/ReferencePipeline.iterator (9 samples, 3.96%)</title><rect x="696.2" y="259.0" width="46.8" height="15" fill="#5ced5c" rx="2" ry="2"/>
<text x="699.2" y="270.0">java..</text>
</g>
<g>
<title>java/util/Spliterators.iterator (1 samples, 0.44%)</title><rect x="696.2" y="243.0" width="5.2" height="15" fill="#56e756" rx="2" ry="2"/>
<text x="699.2" y="254.0"></text>
</g>
<g>
<title>java.util.Spliterators$1Adapter (1 samples, 0.44%)</title><rect x="696.2" y="227.0" width="5.2" height="15" fill="#5bc9c9" rx="2" ry="2"/>
<text x="699.2" y="238.0"></text>
</g>
<g>
<title>java/util/stream/AbstractPipeline.spliterator (8 samples, 3.52%)</title><rect x="701.4" y="243.0" width="41.6" height="15" fill="#67f867" rx="2" ry="2"/>
<text x="704.4" y="254.0">jav..</text>
</g>
<g>
<title>java/lang/invoke/Invokers$Holder.linkToTargetMethod (3 samples, 1.32%)</title><rect x="701.4" y="227.0" width="15.6" height="15" fill="#53e453" rx="2" ry="2"/>
<text x="704.4" y="238.0"></text>
</g>
<g>
<title>java/lang/invoke/DirectMethodHandle$Holder.invokeStatic (3 samples, 1.32%)</title><rect x="701.4" y="211.0" width="15.6" height="15" fill="#50e150" rx="2" ry="2"/>
<text x="704.4" y="222.0"></text>
</g>
<g>
<title>java/util/stream/AbstractPipeline$$Lambda$76/1967010442.get$Lambda (3 samples, 1.32%)</title><rect x="701.4" y="195.0" width="15.6" height="15" fill="#54e554" rx="2" ry="2"/>
<text x="704.4" y="206.0"></text>
</g>
<g>
<title>java.util.stream.AbstractPipeline$$Lambda$76 (3 samples, 1.32%)</title><rect x="701.4" y="179.0" width="15.6" height="15" fill="#66d4d4" rx="2" ry="2"/>
<text x="704.4" y="190.0"></text>
</g>
<g>
<title>java/util/stream/ReferencePipeline.wrap (5 samples, 2.20%)</title><rect x="717.0" y="227.0" width="26.0" height="15" fill="#5ff05f" rx="2" ry="2"/>
<text x="720.0" y="238.0">j..</text>
</g>
<g>
<title>java.util.stream.StreamSpliterators$WrappingSpliterator (5 samples, 2.20%)</title><rect x="717.0" y="211.0" width="26.0" height="15" fill="#5fcdcd" rx="2" ry="2"/>
<text x="720.0" y="222.0">j..</text>
</g>
<g>
<title>java/util/stream/ReferencePipeline.map (9 samples, 3.96%)</title><rect x="743.0" y="259.0" width="46.7" height="15" fill="#57e857" rx="2" ry="2"/>
<text x="746.0" y="270.0">java..</text>
</g>
<g>
<title>java.util.stream.ReferencePipeline$3 (9 samples, 3.96%)</title><rect x="743.0" y="243.0" width="46.7" height="15" fill="#56c4c4" rx="2" ry="2"/>
<text x="746.0" y="254.0">java..</text>
</g>
<g>
<title>ru/mail/polis/service/re1nex/AsyncService.sendResponse (15 samples, 6.61%)</title><rect x="789.7" y="323.0" width="78.0" height="15" fill="#60f160" rx="2" ry="2"/>
<text x="792.7" y="334.0">ru/mail/p..</text>
</g>
<g>
<title>one/nio/http/HttpSession.sendResponse (15 samples, 6.61%)</title><rect x="789.7" y="307.0" width="78.0" height="15" fill="#6afb6a" rx="2" ry="2"/>
<text x="792.7" y="318.0">one/nio/h..</text>
</g>
<g>
<title>one/nio/http/HttpSession.writeResponse (15 samples, 6.61%)</title><rect x="789.7" y="291.0" width="78.0" height="15" fill="#69fa69" rx="2" ry="2"/>
<text x="792.7" y="302.0">one/nio/h..</text>
</g>
<g>
<title>one/nio/http/Response.toBytes (10 samples, 4.41%)</title><rect x="789.7" y="275.0" width="52.0" height="15" fill="#57e857" rx="2" ry="2"/>
<text x="792.7" y="286.0">one/n..</text>
</g>
<g>
<title>one/nio/util/ByteArrayBuilder.&lt;init&gt; (10 samples, 4.41%)</title><rect x="789.7" y="259.0" width="52.0" height="15" fill="#5ced5c" rx="2" ry="2"/>
<text x="792.7" y="270.0">one/n..</text>
</g>
<g>
<title>byte[] (10 samples, 4.41%)</title><rect x="789.7" y="243.0" width="52.0" height="15" fill="#66d4d4" rx="2" ry="2"/>
<text x="792.7" y="254.0">byte[]</text>
</g>
<g>
<title>one/nio/net/Session.write (5 samples, 2.20%)</title><rect x="841.7" y="275.0" width="26.0" height="15" fill="#5eef5e" rx="2" ry="2"/>
<text x="844.7" y="286.0">o..</text>
</g>
<g>
<title>one.nio.net.Session$ArrayQueueItem (5 samples, 2.20%)</title><rect x="841.7" y="259.0" width="26.0" height="15" fill="#52c0c0" rx="2" ry="2"/>
<text x="844.7" y="270.0">o..</text>
</g>
<g>
<title>one/nio/server/SelectorThread.run (62 samples, 27.31%)</title><rect x="867.7" y="403.0" width="322.3" height="15" fill="#5dee5d" rx="2" ry="2"/>
<text x="870.7" y="414.0">one/nio/server/SelectorThread.run</text>
</g>
<g>
<title>one/nio/net/Session.process (62 samples, 27.31%)</title><rect x="867.7" y="387.0" width="322.3" height="15" fill="#6cfd6c" rx="2" ry="2"/>
<text x="870.7" y="398.0">one/nio/net/Session.process</text>
</g>
<g>
<title>one/nio/http/HttpSession.processRead (62 samples, 27.31%)</title><rect x="867.7" y="371.0" width="322.3" height="15" fill="#6afb6a" rx="2" ry="2"/>
<text x="870.7" y="382.0">one/nio/http/HttpSession.processRead</text>
</g>
<g>
<title>one/nio/http/HttpSession.processHttpBuffer (62 samples, 27.31%)</title><rect x="867.7" y="355.0" width="322.3" height="15" fill="#63f463" rx="2" ry="2"/>
<text x="870.7" y="366.0">one/nio/http/HttpSession.processHttpBuffer</text>
</g>
<g>
<title>one/nio/http/HttpSession.handleParsedRequest (17 samples, 7.49%)</title><rect x="867.7" y="339.0" width="88.4" height="15" fill="#57e857" rx="2" ry="2"/>
<text x="870.7" y="350.0">one/nio/ht..</text>
</g>
<g>
<title>one/nio/http/HttpServer.handleRequest (17 samples, 7.49%)</title><rect x="867.7" y="323.0" width="88.4" height="15" fill="#56e756" rx="2" ry="2"/>
<text x="870.7" y="334.0">one/nio/ht..</text>
</g>
<g>
<title>RequestHandler0_get.handleRequest (12 samples, 5.29%)</title><rect x="867.7" y="307.0" width="62.4" height="15" fill="#58e958" rx="2" ry="2"/>
<text x="870.7" y="318.0">Reques..</text>
</g>
<g>
<title>one/nio/http/Request.getRequiredParameter (12 samples, 5.29%)</title><rect x="867.7" y="291.0" width="62.4" height="15" fill="#5dee5d" rx="2" ry="2"/>
<text x="870.7" y="302.0">one/ni..</text>
</g>
<g>
<title>one/nio/http/Request.getParameter (12 samples, 5.29%)</title><rect x="867.7" y="275.0" width="62.4" height="15" fill="#5dee5d" rx="2" ry="2"/>
<text x="870.7" y="286.0">one/ni..</text>
</g>
<g>
<title>java/lang/String.substring (12 samples, 5.29%)</title><rect x="867.7" y="259.0" width="62.4" height="15" fill="#59ea59" rx="2" ry="2"/>
<text x="870.7" y="270.0">java/l..</text>
</g>
<g>
<title>java/lang/StringLatin1.newString (12 samples, 5.29%)</title><rect x="867.7" y="243.0" width="62.4" height="15" fill="#61f261" rx="2" ry="2"/>
<text x="870.7" y="254.0">java/l..</text>
</g>
<g>
<title>java.lang.String (9 samples, 3.96%)</title><rect x="867.7" y="227.0" width="46.8" height="15" fill="#6ad8d8" rx="2" ry="2"/>
<text x="870.7" y="238.0">java..</text>
</g>
<g>
<title>java/util/Arrays.copyOfRange (3 samples, 1.32%)</title><rect x="914.5" y="227.0" width="15.6" height="15" fill="#5ff05f" rx="2" ry="2"/>
<text x="917.5" y="238.0"></text>
</g>
<g>
<title>byte[] (3 samples, 1.32%)</title><rect x="914.5" y="211.0" width="15.6" height="15" fill="#6ddbdb" rx="2" ry="2"/>
<text x="917.5" y="222.0"></text>
</g>
<g>
<title>one/nio/http/Request.getPath (5 samples, 2.20%)</title><rect x="930.1" y="307.0" width="26.0" height="15" fill="#63f463" rx="2" ry="2"/>
<text x="933.1" y="318.0">o..</text>
</g>
<g>
<title>java/lang/String.substring (5 samples, 2.20%)</title><rect x="930.1" y="291.0" width="26.0" height="15" fill="#63f463" rx="2" ry="2"/>
<text x="933.1" y="302.0">j..</text>
</g>
<g>
<title>java/lang/StringLatin1.newString (5 samples, 2.20%)</title><rect x="930.1" y="275.0" width="26.0" height="15" fill="#6dfe6d" rx="2" ry="2"/>
<text x="933.1" y="286.0">j..</text>
</g>
<g>
<title>java.lang.String (2 samples, 0.88%)</title><rect x="930.1" y="259.0" width="10.4" height="15" fill="#67d5d5" rx="2" ry="2"/>
<text x="933.1" y="270.0"></text>
</g>
<g>
<title>java/util/Arrays.copyOfRange (3 samples, 1.32%)</title><rect x="940.5" y="259.0" width="15.6" height="15" fill="#5bec5b" rx="2" ry="2"/>
<text x="943.5" y="270.0"></text>
</g>
<g>
<title>byte[] (3 samples, 1.32%)</title><rect x="940.5" y="243.0" width="15.6" height="15" fill="#5fcdcd" rx="2" ry="2"/>
<text x="943.5" y="254.0"></text>
</g>
<g>
<title>one/nio/http/HttpSession.parseRequest (23 samples, 10.13%)</title><rect x="956.1" y="339.0" width="119.5" height="15" fill="#59ea59" rx="2" ry="2"/>
<text x="959.1" y="350.0">one/nio/http/Ht..</text>
</g>
<g>
<title>one.nio.http.Request (5 samples, 2.20%)</title><rect x="956.1" y="323.0" width="26.0" height="15" fill="#63d1d1" rx="2" ry="2"/>
<text x="959.1" y="334.0">o..</text>
</g>
<g>
<title>one/nio/http/Request.&lt;init&gt; (6 samples, 2.64%)</title><rect x="982.1" y="323.0" width="31.2" height="15" fill="#66f766" rx="2" ry="2"/>
<text x="985.1" y="334.0">on..</text>
</g>
<g>
<title>java.lang.String[] (6 samples, 2.64%)</title><rect x="982.1" y="307.0" width="31.2" height="15" fill="#69d7d7" rx="2" ry="2"/>
<text x="985.1" y="318.0">ja..</text>
</g>
<g>
<title>one/nio/util/Utf8.read (12 samples, 5.29%)</title><rect x="1013.3" y="323.0" width="62.3" height="15" fill="#60f160" rx="2" ry="2"/>
<text x="1016.3" y="334.0">one/ni..</text>
</g>
<g>
<title>one/nio/util/Utf8.read (12 samples, 5.29%)</title><rect x="1013.3" y="307.0" width="62.3" height="15" fill="#61f261" rx="2" ry="2"/>
<text x="1016.3" y="318.0">one/ni..</text>
</g>
<g>
<title>char[] (6 samples, 2.64%)</title><rect x="1013.3" y="291.0" width="31.1" height="15" fill="#52c0c0" rx="2" ry="2"/>
<text x="1016.3" y="302.0">ch..</text>
</g>
<g>
<title>java.lang.String (3 samples, 1.32%)</title><rect x="1044.4" y="291.0" width="15.6" height="15" fill="#6cdada" rx="2" ry="2"/>
<text x="1047.4" y="302.0"></text>
</g>
<g>
<title>java/lang/String.&lt;init&gt; (3 samples, 1.32%)</title><rect x="1060.0" y="291.0" width="15.6" height="15" fill="#59ea59" rx="2" ry="2"/>
<text x="1063.0" y="302.0"></text>
</g>
<g>
<title>java/lang/String.&lt;init&gt; (3 samples, 1.32%)</title><rect x="1060.0" y="275.0" width="15.6" height="15" fill="#61f261" rx="2" ry="2"/>
<text x="1063.0" y="286.0"></text>
</g>
<g>
<title>java/lang/StringUTF16.compress (3 samples, 1.32%)</title><rect x="1060.0" y="259.0" width="15.6" height="15" fill="#51e251" rx="2" ry="2"/>
<text x="1063.0" y="270.0"></text>
</g>
<g>
<title>byte[] (3 samples, 1.32%)</title><rect x="1060.0" y="243.0" width="15.6" height="15" fill="#67d5d5" rx="2" ry="2"/>
<text x="1063.0" y="254.0"></text>
</g>
<g>
<title>one/nio/util/Utf8.read (22 samples, 9.69%)</title><rect x="1075.6" y="339.0" width="114.4" height="15" fill="#5ff05f" rx="2" ry="2"/>
<text x="1078.6" y="350.0">one/nio/util/U..</text>
</g>
<g>
<title>one/nio/util/Utf8.read (22 samples, 9.69%)</title><rect x="1075.6" y="323.0" width="114.4" height="15" fill="#6bfc6b" rx="2" ry="2"/>
<text x="1078.6" y="334.0">one/nio/util/U..</text>
</g>
<g>
<title>char[] (10 samples, 4.41%)</title><rect x="1075.6" y="307.0" width="52.0" height="15" fill="#5ccaca" rx="2" ry="2"/>
<text x="1078.6" y="318.0">char[]</text>
</g>
<g>
<title>java.lang.String (6 samples, 2.64%)</title><rect x="1127.6" y="307.0" width="31.2" height="15" fill="#67d5d5" rx="2" ry="2"/>
<text x="1130.6" y="318.0">ja..</text>
</g>
<g>
<title>java/lang/String.&lt;init&gt; (6 samples, 2.64%)</title><rect x="1158.8" y="307.0" width="31.2" height="15" fill="#54e554" rx="2" ry="2"/>
<text x="1161.8" y="318.0">ja..</text>
</g>
<g>
<title>java/lang/String.&lt;init&gt; (6 samples, 2.64%)</title><rect x="1158.8" y="291.0" width="31.2" height="15" fill="#65f665" rx="2" ry="2"/>
<text x="1161.8" y="302.0">ja..</text>
</g>
<g>
<title>java/lang/StringUTF16.compress (6 samples, 2.64%)</title><rect x="1158.8" y="275.0" width="31.2" height="15" fill="#56e756" rx="2" ry="2"/>
<text x="1161.8" y="286.0">ja..</text>
</g>
<g>
<title>byte[] (6 samples, 2.64%)</title><rect x="1158.8" y="259.0" width="31.2" height="15" fill="#61cfcf" rx="2" ry="2"/>
<text x="1161.8" y="270.0">by..</text>
</g>
</g>
</svg>
