<?xml version="1.0" standalone="no"?>
<!DOCTYPE svg PUBLIC "-//W3C//DTD SVG 1.1//EN" "http://www.w3.org/Graphics/SVG/1.1/DTD/svg11.dtd">
<svg version="1.1" width="1200" height="518" onload="init(evt)" viewBox="0 0 1200 518" xmlns="http://www.w3.org/2000/svg" xmlns:xlink="http://www.w3.org/1999/xlink">
<style type="text/css">
	text { font-family:Verdana; font-size:12px; fill:rgb(0,0,0); }
	#search { opacity:0.1; cursor:pointer; }
	#search:hover, #search.show { opacity:1; }
	#subtitle { text-anchor:middle; font-color:rgb(160,160,160); }
	#title { text-anchor:middle; font-size:17px}
	#unzoom { cursor:pointer; }
	#frames > *:hover { stroke:black; stroke-width:0.5; cursor:pointer; }
	.hide { display:none; }
	.parent { opacity:0.5; }
</style>
<script type="text/ecmascript">
<![CDATA[
	"use strict";
	var details, searchbtn, unzoombtn, matchedtxt, svg, searching;
	function init(evt) {
		details = document.getElementById("details").firstChild;
		searchbtn = document.getElementById("search");
		unzoombtn = document.getElementById("unzoom");
		matchedtxt = document.getElementById("matched");
		svg = document.getElementsByTagName("svg")[0];
		searching = 0;
	}

	window.addEventListener("click", function(e) {
		var target = find_group(e.target);
		if (target) {
			if (target.nodeName == "a") {
				if (e.ctrlKey === false) return;
				e.preventDefault();
			}
			if (target.classList.contains("parent")) unzoom();
			zoom(target);
		}
		else if (e.target.id == "unzoom") unzoom();
		else if (e.target.id == "search") search_prompt();
	}, false)

	// mouse-over for info
	// show
	window.addEventListener("mouseover", function(e) {
		var target = find_group(e.target);
		if (target) details.nodeValue = "Function: " + g_to_text(target);
	}, false)

	// clear
	window.addEventListener("mouseout", function(e) {
		var target = find_group(e.target);
		if (target) details.nodeValue = ' ';
	}, false)

	// ctrl-F for search
	window.addEventListener("keydown",function (e) {
		if (e.keyCode === 114 || (e.ctrlKey && e.keyCode === 70)) {
			e.preventDefault();
			search_prompt();
		}
	}, false)

	// functions
	function find_child(node, selector) {
		var children = node.querySelectorAll(selector);
		if (children.length) return children[0];
		return;
	}
	function find_group(node) {
		var parent = node.parentElement;
		if (!parent) return;
		if (parent.id == "frames") return node;
		return find_group(parent);
	}
	function orig_save(e, attr, val) {
		if (e.attributes["_orig_" + attr] != undefined) return;
		if (e.attributes[attr] == undefined) return;
		if (val == undefined) val = e.attributes[attr].value;
		e.setAttribute("_orig_" + attr, val);
	}
	function orig_load(e, attr) {
		if (e.attributes["_orig_"+attr] == undefined) return;
		e.attributes[attr].value = e.attributes["_orig_" + attr].value;
		e.removeAttribute("_orig_"+attr);
	}
	function g_to_text(e) {
		var text = find_child(e, "title").firstChild.nodeValue;
		return (text)
	}
	function g_to_func(e) {
		var func = g_to_text(e);
		// if there's any manipulation we want to do to the function
		// name before it's searched, do it here before returning.
		return (func);
	}
	function update_text(e) {
		var r = find_child(e, "rect");
		var t = find_child(e, "text");
		var w = parseFloat(r.attributes.width.value) -3;
		var txt = find_child(e, "title").textContent.replace(/\([^(]*\)$/,"");
		t.attributes.x.value = parseFloat(r.attributes.x.value) + 3;

		// Smaller than this size won't fit anything
		if (w < 2 * 12 * 0.59) {
			t.textContent = "";
			return;
		}

		t.textContent = txt;
		// Fit in full text width
		if (/^ *$/.test(txt) || t.getSubStringLength(0, txt.length) < w)
			return;

		for (var x = txt.length - 2; x > 0; x--) {
			if (t.getSubStringLength(0, x + 2) <= w) {
				t.textContent = txt.substring(0, x) + "..";
				return;
			}
		}
		t.textContent = "";
	}

	// zoom
	function zoom_reset(e) {
		if (e.attributes != undefined) {
			orig_load(e, "x");
			orig_load(e, "width");
		}
		if (e.childNodes == undefined) return;
		for (var i = 0, c = e.childNodes; i < c.length; i++) {
			zoom_reset(c[i]);
		}
	}
	function zoom_child(e, x, ratio) {
		if (e.attributes != undefined) {
			if (e.attributes.x != undefined) {
				orig_save(e, "x");
				e.attributes.x.value = (parseFloat(e.attributes.x.value) - x - 10) * ratio + 10;
				if (e.tagName == "text")
					e.attributes.x.value = find_child(e.parentNode, "rect[x]").attributes.x.value + 3;
			}
			if (e.attributes.width != undefined) {
				orig_save(e, "width");
				e.attributes.width.value = parseFloat(e.attributes.width.value) * ratio;
			}
		}

		if (e.childNodes == undefined) return;
		for (var i = 0, c = e.childNodes; i < c.length; i++) {
			zoom_child(c[i], x - 10, ratio);
		}
	}
	function zoom_parent(e) {
		if (e.attributes) {
			if (e.attributes.x != undefined) {
				orig_save(e, "x");
				e.attributes.x.value = 10;
			}
			if (e.attributes.width != undefined) {
				orig_save(e, "width");
				e.attributes.width.value = parseInt(svg.width.baseVal.value) - (10 * 2);
			}
		}
		if (e.childNodes == undefined) return;
		for (var i = 0, c = e.childNodes; i < c.length; i++) {
			zoom_parent(c[i]);
		}
	}
	function zoom(node) {
		var attr = find_child(node, "rect").attributes;
		var width = parseFloat(attr.width.value);
		var xmin = parseFloat(attr.x.value);
		var xmax = parseFloat(xmin + width);
		var ymin = parseFloat(attr.y.value);
		var ratio = (svg.width.baseVal.value - 2 * 10) / width;

		// XXX: Workaround for JavaScript float issues (fix me)
		var fudge = 0.0001;

		unzoombtn.classList.remove("hide");

		var el = document.getElementById("frames").children;
		for (var i = 0; i < el.length; i++) {
			var e = el[i];
			var a = find_child(e, "rect").attributes;
			var ex = parseFloat(a.x.value);
			var ew = parseFloat(a.width.value);
			var upstack;
			// Is it an ancestor
			if (0 == 0) {
				upstack = parseFloat(a.y.value) > ymin;
			} else {
				upstack = parseFloat(a.y.value) < ymin;
			}
			if (upstack) {
				// Direct ancestor
				if (ex <= xmin && (ex+ew+fudge) >= xmax) {
					e.classList.add("parent");
					zoom_parent(e);
					update_text(e);
				}
				// not in current path
				else
					e.classList.add("hide");
			}
			// Children maybe
			else {
				// no common path
				if (ex < xmin || ex + fudge >= xmax) {
					e.classList.add("hide");
				}
				else {
					zoom_child(e, xmin, ratio);
					update_text(e);
				}
			}
		}
	}
	function unzoom() {
		unzoombtn.classList.add("hide");
		var el = document.getElementById("frames").children;
		for(var i = 0; i < el.length; i++) {
			el[i].classList.remove("parent");
			el[i].classList.remove("hide");
			zoom_reset(el[i]);
			update_text(el[i]);
		}
	}

	// search
	function reset_search() {
		var el = document.querySelectorAll("#frames rect");
		for (var i = 0; i < el.length; i++) {
			orig_load(el[i], "fill")
		}
	}
	function search_prompt() {
		if (!searching) {
			var term = prompt("Enter a search term (regexp " +
			    "allowed, eg: ^ext4_)", "");
			if (term != null) {
				search(term)
			}
		} else {
			reset_search();
			searching = 0;
			searchbtn.classList.remove("show");
			searchbtn.firstChild.nodeValue = "Search"
			matchedtxt.classList.add("hide");
			matchedtxt.firstChild.nodeValue = ""
		}
	}
	function search(term) {
		var re = new RegExp(term);
		var el = document.getElementById("frames").children;
		var matches = new Object();
		var maxwidth = 0;
		for (var i = 0; i < el.length; i++) {
			var e = el[i];
			var func = g_to_func(e);
			var rect = find_child(e, "rect");
			if (func == null || rect == null)
				continue;

			// Save max width. Only works as we have a root frame
			var w = parseFloat(rect.attributes.width.value);
			if (w > maxwidth)
				maxwidth = w;

			if (func.match(re)) {
				// highlight
				var x = parseFloat(rect.attributes.x.value);
				orig_save(rect, "fill");
				rect.attributes.fill.value = "rgb(230,0,230)";

				// remember matches
				if (matches[x] == undefined) {
					matches[x] = w;
				} else {
					if (w > matches[x]) {
						// overwrite with parent
						matches[x] = w;
					}
				}
				searching = 1;
			}
		}
		if (!searching)
			return;

		searchbtn.classList.add("show");
		searchbtn.firstChild.nodeValue = "Reset Search";

		// calculate percent matched, excluding vertical overlap
		var count = 0;
		var lastx = -1;
		var lastw = 0;
		var keys = Array();
		for (k in matches) {
			if (matches.hasOwnProperty(k))
				keys.push(k);
		}
		// sort the matched frames by their x location
		// ascending, then width descending
		keys.sort(function(a, b){
			return a - b;
		});
		// Step through frames saving only the biggest bottom-up frames
		// thanks to the sort order. This relies on the tree property
		// where children are always smaller than their parents.
		var fudge = 0.0001;	// JavaScript floating point
		for (var k in keys) {
			var x = parseFloat(keys[k]);
			var w = matches[keys[k]];
			if (x >= lastx + lastw - fudge) {
				count += w;
				lastx = x;
				lastw = w;
			}
		}
		// display matched percent
		matchedtxt.classList.remove("hide");
		var pct = 100 * count / maxwidth;
		if (pct != 100) pct = pct.toFixed(1)
		matchedtxt.firstChild.nodeValue = "Matched: " + pct + "%";
	}
]]>
</script>
<rect x="0" y="0" width="100%" height="100%" fill="rgb(240,240,220)"/>
<text id="title" x="600" y="24">Flame Graph</text>
<text id="details" x="10" y="501"> </text>
<text id="unzoom" x="10" y="24" class="hide">Reset Zoom</text>
<text id="search" x="1090" y="24">Search</text>
<text id="matched" x="1090" y="501"> </text>
<g id="frames">
<g>
<title>all (4,958 samples, 100.00%)</title><rect x="10.0" y="467.0" width="1180.0" height="15" fill="#f27070" rx="2" ry="2"/>
<text x="13.0" y="478.0">all</text>
</g>
<g>
<title>java/lang/Thread.exit (3 samples, 0.06%)</title><rect x="10.0" y="451.0" width="0.7" height="15" fill="#6bfc6b" rx="2" ry="2"/>
<text x="13.0" y="462.0"></text>
</g>
<g>
<title>java/lang/ThreadGroup.threadTerminated (3 samples, 0.06%)</title><rect x="10.0" y="435.0" width="0.7" height="15" fill="#58e958" rx="2" ry="2"/>
<text x="13.0" y="446.0"></text>
</g>
<g>
<title>java.lang.ThreadGroup (3 samples, 0.06%)</title><rect x="10.0" y="419.0" width="0.7" height="15" fill="#5ccaca" rx="2" ry="2"/>
<text x="13.0" y="430.0"></text>
</g>
<g>
<title>java/lang/Thread.run (2,994 samples, 60.39%)</title><rect x="10.7" y="451.0" width="712.6" height="15" fill="#52e352" rx="2" ry="2"/>
<text x="13.7" y="462.0">java/lang/Thread.run</text>
</g>
<g>
<title>java/util/concurrent/ThreadPoolExecutor$Worker.run (2,994 samples, 60.39%)</title><rect x="10.7" y="435.0" width="712.6" height="15" fill="#53e453" rx="2" ry="2"/>
<text x="13.7" y="446.0">java/util/concurrent/ThreadPoolExecutor$Worker.run</text>
</g>
<g>
<title>java/util/concurrent/ThreadPoolExecutor.runWorker (2,994 samples, 60.39%)</title><rect x="10.7" y="419.0" width="712.6" height="15" fill="#54e554" rx="2" ry="2"/>
<text x="13.7" y="430.0">java/util/concurrent/ThreadPoolExecutor.runWorker</text>
</g>
<g>
<title>java/util/concurrent/ThreadPoolExecutor.getTask (2,127 samples, 42.90%)</title><rect x="10.7" y="403.0" width="506.2" height="15" fill="#67f867" rx="2" ry="2"/>
<text x="13.7" y="414.0">java/util/concurrent/ThreadPoolExecutor.getTask</text>
</g>
<g>
<title>java/util/concurrent/ArrayBlockingQueue.take (2,127 samples, 42.90%)</title><rect x="10.7" y="387.0" width="506.2" height="15" fill="#5ff05f" rx="2" ry="2"/>
<text x="13.7" y="398.0">java/util/concurrent/ArrayBlockingQueue.take</text>
</g>
<g>
<title>java/util/concurrent/locks/AbstractQueuedSynchronizer$ConditionObject.await (748 samples, 15.09%)</title><rect x="10.7" y="371.0" width="178.0" height="15" fill="#64f564" rx="2" ry="2"/>
<text x="13.7" y="382.0">java/util/concurrent/lo..</text>
</g>
<g>
<title>java/util/concurrent/locks/AbstractQueuedSynchronizer.acquireQueued (748 samples, 15.09%)</title><rect x="10.7" y="355.0" width="178.0" height="15" fill="#54e554" rx="2" ry="2"/>
<text x="13.7" y="366.0">java/util/concurrent/lo..</text>
</g>
<g>
<title>java/util/concurrent/locks/AbstractQueuedSynchronizer.parkAndCheckInterrupt (748 samples, 15.09%)</title><rect x="10.7" y="339.0" width="178.0" height="15" fill="#53e453" rx="2" ry="2"/>
<text x="13.7" y="350.0">java/util/concurrent/lo..</text>
</g>
<g>
<title>java/util/concurrent/locks/LockSupport.park (748 samples, 15.09%)</title><rect x="10.7" y="323.0" width="178.0" height="15" fill="#5dee5d" rx="2" ry="2"/>
<text x="13.7" y="334.0">java/util/concurrent/lo..</text>
</g>
<g>
<title>jdk/internal/misc/Unsafe.park (748 samples, 15.09%)</title><rect x="10.7" y="307.0" width="178.0" height="15" fill="#6dfe6d" rx="2" ry="2"/>
<text x="13.7" y="318.0">jdk/internal/misc/Unsaf..</text>
</g>
<g>
<title>java.util.concurrent.locks.ReentrantLock$NonfairSync (748 samples, 15.09%)</title><rect x="10.7" y="291.0" width="178.0" height="15" fill="#5fcdcd" rx="2" ry="2"/>
<text x="13.7" y="302.0">java.util.concurrent.lo..</text>
</g>
<g>
<title>java/util/concurrent/locks/ReentrantLock.lockInterruptibly (1,379 samples, 27.81%)</title><rect x="188.7" y="371.0" width="328.2" height="15" fill="#67f867" rx="2" ry="2"/>
<text x="191.7" y="382.0">java/util/concurrent/locks/ReentrantLock.loc..</text>
</g>
<g>
<title>java/util/concurrent/locks/AbstractQueuedSynchronizer.acquireInterruptibly (1,379 samples, 27.81%)</title><rect x="188.7" y="355.0" width="328.2" height="15" fill="#65f665" rx="2" ry="2"/>
<text x="191.7" y="366.0">java/util/concurrent/locks/AbstractQueuedSyn..</text>
</g>
<g>
<title>java/util/concurrent/locks/AbstractQueuedSynchronizer.doAcquireInterruptibly (1,379 samples, 27.81%)</title><rect x="188.7" y="339.0" width="328.2" height="15" fill="#51e251" rx="2" ry="2"/>
<text x="191.7" y="350.0">java/util/concurrent/locks/AbstractQueuedSyn..</text>
</g>
<g>
<title>java/util/concurrent/locks/AbstractQueuedSynchronizer.parkAndCheckInterrupt (1,379 samples, 27.81%)</title><rect x="188.7" y="323.0" width="328.2" height="15" fill="#67f867" rx="2" ry="2"/>
<text x="191.7" y="334.0">java/util/concurrent/locks/AbstractQueuedSyn..</text>
</g>
<g>
<title>java/util/concurrent/locks/LockSupport.park (1,379 samples, 27.81%)</title><rect x="188.7" y="307.0" width="328.2" height="15" fill="#64f564" rx="2" ry="2"/>
<text x="191.7" y="318.0">java/util/concurrent/locks/LockSupport.park</text>
</g>
<g>
<title>jdk/internal/misc/Unsafe.park (1,379 samples, 27.81%)</title><rect x="188.7" y="291.0" width="328.2" height="15" fill="#6afb6a" rx="2" ry="2"/>
<text x="191.7" y="302.0">jdk/internal/misc/Unsafe.park</text>
</g>
<g>
<title>java.util.concurrent.locks.ReentrantLock$NonfairSync (1,379 samples, 27.81%)</title><rect x="188.7" y="275.0" width="328.2" height="15" fill="#66d4d4" rx="2" ry="2"/>
<text x="191.7" y="286.0">java.util.concurrent.locks.ReentrantLock$Non..</text>
</g>
<g>
<title>java/util/concurrent/ThreadPoolExecutor.processWorkerExit (11 samples, 0.22%)</title><rect x="516.9" y="403.0" width="2.7" height="15" fill="#5bec5b" rx="2" ry="2"/>
<text x="519.9" y="414.0"></text>
</g>
<g>
<title>java/util/concurrent/locks/ReentrantLock.lock (11 samples, 0.22%)</title><rect x="516.9" y="387.0" width="2.7" height="15" fill="#68f968" rx="2" ry="2"/>
<text x="519.9" y="398.0"></text>
</g>
<g>
<title>java/util/concurrent/locks/AbstractQueuedSynchronizer.acquire (11 samples, 0.22%)</title><rect x="516.9" y="371.0" width="2.7" height="15" fill="#66f766" rx="2" ry="2"/>
<text x="519.9" y="382.0"></text>
</g>
<g>
<title>java/util/concurrent/locks/AbstractQueuedSynchronizer.acquireQueued (11 samples, 0.22%)</title><rect x="516.9" y="355.0" width="2.7" height="15" fill="#5dee5d" rx="2" ry="2"/>
<text x="519.9" y="366.0"></text>
</g>
<g>
<title>java/util/concurrent/locks/AbstractQueuedSynchronizer.parkAndCheckInterrupt (11 samples, 0.22%)</title><rect x="516.9" y="339.0" width="2.7" height="15" fill="#59ea59" rx="2" ry="2"/>
<text x="519.9" y="350.0"></text>
</g>
<g>
<title>java/util/concurrent/locks/LockSupport.park (11 samples, 0.22%)</title><rect x="516.9" y="323.0" width="2.7" height="15" fill="#52e352" rx="2" ry="2"/>
<text x="519.9" y="334.0"></text>
</g>
<g>
<title>jdk/internal/misc/Unsafe.park (11 samples, 0.22%)</title><rect x="516.9" y="307.0" width="2.7" height="15" fill="#6dfe6d" rx="2" ry="2"/>
<text x="519.9" y="318.0"></text>
</g>
<g>
<title>java.util.concurrent.locks.ReentrantLock$NonfairSync (11 samples, 0.22%)</title><rect x="516.9" y="291.0" width="2.7" height="15" fill="#57c5c5" rx="2" ry="2"/>
<text x="519.9" y="302.0"></text>
</g>
<g>
<title>ru/mail/polis/service/re1nex/BaseService$$Lambda$66/1557764195.run (856 samples, 17.27%)</title><rect x="519.6" y="403.0" width="203.7" height="15" fill="#54e554" rx="2" ry="2"/>
<text x="522.6" y="414.0">ru/mail/polis/service/re1ne..</text>
</g>
<g>
<title>ru/mail/polis/service/re1nex/BaseService.lambda$handleRequest$1 (856 samples, 17.27%)</title><rect x="519.6" y="387.0" width="203.7" height="15" fill="#60f160" rx="2" ry="2"/>
<text x="522.6" y="398.0">ru/mail/polis/service/re1ne..</text>
</g>
<g>
<title>ru/mail/polis/service/re1nex/ApiController.handleResponseLocal (499 samples, 10.06%)</title><rect x="519.6" y="371.0" width="118.7" height="15" fill="#55e655" rx="2" ry="2"/>
<text x="522.6" y="382.0">ru/mail/polis/..</text>
</g>
<g>
<title>ru/mail/polis/service/re1nex/ApiControllerImpl.put (499 samples, 10.06%)</title><rect x="519.6" y="355.0" width="118.7" height="15" fill="#5ced5c" rx="2" ry="2"/>
<text x="522.6" y="366.0">ru/mail/polis/..</text>
</g>
<g>
<title>ru/mail/polis/service/re1nex/ApiUtils.sendResponse (499 samples, 10.06%)</title><rect x="519.6" y="339.0" width="118.7" height="15" fill="#6dfe6d" rx="2" ry="2"/>
<text x="522.6" y="350.0">ru/mail/polis/..</text>
</g>
<g>
<title>one/nio/http/HttpSession.sendResponse (499 samples, 10.06%)</title><rect x="519.6" y="323.0" width="118.7" height="15" fill="#57e857" rx="2" ry="2"/>
<text x="522.6" y="334.0">one/nio/http/H..</text>
</g>
<g>
<title>one.nio.http.HttpSession (499 samples, 10.06%)</title><rect x="519.6" y="307.0" width="118.7" height="15" fill="#60cece" rx="2" ry="2"/>
<text x="522.6" y="318.0">one.nio.http.H..</text>
</g>
<g>
<title>ru/mail/polis/service/re1nex/ApiControllerImpl.sendReplica (357 samples, 7.20%)</title><rect x="638.3" y="371.0" width="85.0" height="15" fill="#53e453" rx="2" ry="2"/>
<text x="641.3" y="382.0">ru/mail/po..</text>
</g>
<g>
<title>ru/mail/polis/service/re1nex/ApiController.sendReplica (357 samples, 7.20%)</title><rect x="638.3" y="355.0" width="85.0" height="15" fill="#50e150" rx="2" ry="2"/>
<text x="641.3" y="366.0">ru/mail/po..</text>
</g>
<g>
<title>ru/mail/polis/dao/re1nex/ConsistentHashingTopology.severalNodesForKey (11 samples, 0.22%)</title><rect x="638.3" y="339.0" width="2.6" height="15" fill="#51e251" rx="2" ry="2"/>
<text x="641.3" y="350.0"></text>
</g>
<g>
<title>ru/mail/polis/dao/re1nex/ConsistentHashingTopology.calculateHash (11 samples, 0.22%)</title><rect x="638.3" y="323.0" width="2.6" height="15" fill="#68f968" rx="2" ry="2"/>
<text x="641.3" y="334.0"></text>
</g>
<g>
<title>java/security/MessageDigest.getInstance (11 samples, 0.22%)</title><rect x="638.3" y="307.0" width="2.6" height="15" fill="#55e655" rx="2" ry="2"/>
<text x="641.3" y="318.0"></text>
</g>
<g>
<title>java/security/Security.getImpl (11 samples, 0.22%)</title><rect x="638.3" y="291.0" width="2.6" height="15" fill="#55e655" rx="2" ry="2"/>
<text x="641.3" y="302.0"></text>
</g>
<g>
<title>sun/security/jca/GetInstance.getInstance (11 samples, 0.22%)</title><rect x="638.3" y="275.0" width="2.6" height="15" fill="#58e958" rx="2" ry="2"/>
<text x="641.3" y="286.0"></text>
</g>
<g>
<title>sun/security/jca/ProviderList.getService (11 samples, 0.22%)</title><rect x="638.3" y="259.0" width="2.6" height="15" fill="#54e554" rx="2" ry="2"/>
<text x="641.3" y="270.0"></text>
</g>
<g>
<title>sun/security/jca/ProviderList.getProvider (11 samples, 0.22%)</title><rect x="638.3" y="243.0" width="2.6" height="15" fill="#64f564" rx="2" ry="2"/>
<text x="641.3" y="254.0"></text>
</g>
<g>
<title>sun/security/jca/ProviderConfig.getProvider (11 samples, 0.22%)</title><rect x="638.3" y="227.0" width="2.6" height="15" fill="#51e251" rx="2" ry="2"/>
<text x="641.3" y="238.0"></text>
</g>
<g>
<title>sun.security.jca.ProviderConfig (11 samples, 0.22%)</title><rect x="638.3" y="211.0" width="2.6" height="15" fill="#6ad8d8" rx="2" ry="2"/>
<text x="641.3" y="222.0"></text>
</g>
<g>
<title>ru/mail/polis/service/re1nex/ApiControllerImpl.handleResponses (346 samples, 6.98%)</title><rect x="640.9" y="339.0" width="82.4" height="15" fill="#65f665" rx="2" ry="2"/>
<text x="643.9" y="350.0">ru/mail/p..</text>
</g>
<g>
<title>ru/mail/polis/service/re1nex/ApiControllerImpl.handleResponses (346 samples, 6.98%)</title><rect x="640.9" y="323.0" width="82.4" height="15" fill="#69fa69" rx="2" ry="2"/>
<text x="643.9" y="334.0">ru/mail/p..</text>
</g>
<g>
<title>ru/mail/polis/service/re1nex/ApiControllerImpl.proxy (346 samples, 6.98%)</title><rect x="640.9" y="307.0" width="82.4" height="15" fill="#61f261" rx="2" ry="2"/>
<text x="643.9" y="318.0">ru/mail/p..</text>
</g>
<g>
<title>one/nio/http/HttpClient.invoke (346 samples, 6.98%)</title><rect x="640.9" y="291.0" width="82.4" height="15" fill="#62f362" rx="2" ry="2"/>
<text x="643.9" y="302.0">one/nio/h..</text>
</g>
<g>
<title>one/nio/http/HttpClient.invoke (346 samples, 6.98%)</title><rect x="640.9" y="275.0" width="82.4" height="15" fill="#62f362" rx="2" ry="2"/>
<text x="643.9" y="286.0">one/nio/h..</text>
</g>
<g>
<title>one/nio/pool/Pool.borrowObject (153 samples, 3.09%)</title><rect x="640.9" y="259.0" width="36.4" height="15" fill="#6cfd6c" rx="2" ry="2"/>
<text x="643.9" y="270.0">one..</text>
</g>
<g>
<title>one.nio.http.HttpClient (153 samples, 3.09%)</title><rect x="640.9" y="243.0" width="36.4" height="15" fill="#5dcbcb" rx="2" ry="2"/>
<text x="643.9" y="254.0">one..</text>
</g>
<g>
<title>one/nio/pool/Pool.returnObject (193 samples, 3.89%)</title><rect x="677.3" y="259.0" width="46.0" height="15" fill="#5bec5b" rx="2" ry="2"/>
<text x="680.3" y="270.0">one/..</text>
</g>
<g>
<title>one.nio.http.HttpClient (193 samples, 3.89%)</title><rect x="677.3" y="243.0" width="46.0" height="15" fill="#5ccaca" rx="2" ry="2"/>
<text x="680.3" y="254.0">one...</text>
</g>
<g>
<title>one/nio/server/SelectorThread.run (1,961 samples, 39.55%)</title><rect x="723.3" y="451.0" width="466.7" height="15" fill="#67f867" rx="2" ry="2"/>
<text x="726.3" y="462.0">one/nio/server/SelectorThread.run</text>
</g>
<g>
<title>one/nio/net/Session.process (1,961 samples, 39.55%)</title><rect x="723.3" y="435.0" width="466.7" height="15" fill="#5dee5d" rx="2" ry="2"/>
<text x="726.3" y="446.0">one/nio/net/Session.process</text>
</g>
<g>
<title>one.nio.http.HttpSession (79 samples, 1.59%)</title><rect x="723.3" y="419.0" width="18.8" height="15" fill="#5bc9c9" rx="2" ry="2"/>
<text x="726.3" y="430.0"></text>
</g>
<g>
<title>one/nio/http/HttpSession.processRead (1,882 samples, 37.96%)</title><rect x="742.1" y="419.0" width="447.9" height="15" fill="#50e150" rx="2" ry="2"/>
<text x="745.1" y="430.0">one/nio/http/HttpSession.processRead</text>
</g>
<g>
<title>one/nio/http/HttpSession.processHttpBuffer (1,882 samples, 37.96%)</title><rect x="742.1" y="403.0" width="447.9" height="15" fill="#62f362" rx="2" ry="2"/>
<text x="745.1" y="414.0">one/nio/http/HttpSession.processHttpBuffer</text>
</g>
<g>
<title>one/nio/http/HttpSession.handleParsedRequest (1,882 samples, 37.96%)</title><rect x="742.1" y="387.0" width="447.9" height="15" fill="#6cfd6c" rx="2" ry="2"/>
<text x="745.1" y="398.0">one/nio/http/HttpSession.handleParsedRequest</text>
</g>
<g>
<title>one/nio/http/HttpServer.handleRequest (1,882 samples, 37.96%)</title><rect x="742.1" y="371.0" width="447.9" height="15" fill="#55e655" rx="2" ry="2"/>
<text x="745.1" y="382.0">one/nio/http/HttpServer.handleRequest</text>
</g>
<g>
<title>RequestHandler3_handleRequest.handleRequest (1,882 samples, 37.96%)</title><rect x="742.1" y="355.0" width="447.9" height="15" fill="#51e251" rx="2" ry="2"/>
<text x="745.1" y="366.0">RequestHandler3_handleRequest.handleRequest</text>
</g>
<g>
<title>ru/mail/polis/service/re1nex/AsyncTopologyReplicaService.handleRequest (1,882 samples, 37.96%)</title><rect x="742.1" y="339.0" width="447.9" height="15" fill="#6cfd6c" rx="2" ry="2"/>
<text x="745.1" y="350.0">ru/mail/polis/service/re1nex/AsyncTopologyReplicaService.hand..</text>
</g>
<g>
<title>ru/mail/polis/service/re1nex/BaseService.handleRequest (1,882 samples, 37.96%)</title><rect x="742.1" y="323.0" width="447.9" height="15" fill="#5ced5c" rx="2" ry="2"/>
<text x="745.1" y="334.0">ru/mail/polis/service/re1nex/BaseService.handleRequest</text>
</g>
<g>
<title>ru/mail/polis/service/re1nex/BaseService.executeTask (1,882 samples, 37.96%)</title><rect x="742.1" y="307.0" width="447.9" height="15" fill="#61f261" rx="2" ry="2"/>
<text x="745.1" y="318.0">ru/mail/polis/service/re1nex/BaseService.executeTask</text>
</g>
<g>
<title>ch/qos/logback/classic/Logger.error (24 samples, 0.48%)</title><rect x="742.1" y="291.0" width="5.7" height="15" fill="#52e352" rx="2" ry="2"/>
<text x="745.1" y="302.0"></text>
</g>
<g>
<title>ch/qos/logback/classic/Logger.filterAndLog_0_Or3Plus (24 samples, 0.48%)</title><rect x="742.1" y="275.0" width="5.7" height="15" fill="#5dee5d" rx="2" ry="2"/>
<text x="745.1" y="286.0"></text>
</g>
<g>
<title>ch/qos/logback/classic/Logger.buildLoggingEventAndAppend (24 samples, 0.48%)</title><rect x="742.1" y="259.0" width="5.7" height="15" fill="#63f463" rx="2" ry="2"/>
<text x="745.1" y="270.0"></text>
</g>
<g>
<title>ch/qos/logback/classic/Logger.callAppenders (24 samples, 0.48%)</title><rect x="742.1" y="243.0" width="5.7" height="15" fill="#6afb6a" rx="2" ry="2"/>
<text x="745.1" y="254.0"></text>
</g>
<g>
<title>ch/qos/logback/classic/Logger.appendLoopOnAppenders (24 samples, 0.48%)</title><rect x="742.1" y="227.0" width="5.7" height="15" fill="#62f362" rx="2" ry="2"/>
<text x="745.1" y="238.0"></text>
</g>
<g>
<title>ch/qos/logback/core/spi/AppenderAttachableImpl.appendLoopOnAppenders (24 samples, 0.48%)</title><rect x="742.1" y="211.0" width="5.7" height="15" fill="#68f968" rx="2" ry="2"/>
<text x="745.1" y="222.0"></text>
</g>
<g>
<title>ch/qos/logback/core/UnsynchronizedAppenderBase.doAppend (24 samples, 0.48%)</title><rect x="742.1" y="195.0" width="5.7" height="15" fill="#54e554" rx="2" ry="2"/>
<text x="745.1" y="206.0"></text>
</g>
<g>
<title>ch/qos/logback/core/OutputStreamAppender.append (24 samples, 0.48%)</title><rect x="742.1" y="179.0" width="5.7" height="15" fill="#67f867" rx="2" ry="2"/>
<text x="745.1" y="190.0"></text>
</g>
<g>
<title>ch/qos/logback/core/OutputStreamAppender.subAppend (24 samples, 0.48%)</title><rect x="742.1" y="163.0" width="5.7" height="15" fill="#5ff05f" rx="2" ry="2"/>
<text x="745.1" y="174.0"></text>
</g>
<g>
<title>ch/qos/logback/core/OutputStreamAppender.writeBytes (13 samples, 0.26%)</title><rect x="742.1" y="147.0" width="3.1" height="15" fill="#55e655" rx="2" ry="2"/>
<text x="745.1" y="158.0"></text>
</g>
<g>
<title>java/util/concurrent/locks/ReentrantLock.lock (13 samples, 0.26%)</title><rect x="742.1" y="131.0" width="3.1" height="15" fill="#64f564" rx="2" ry="2"/>
<text x="745.1" y="142.0"></text>
</g>
<g>
<title>java/util/concurrent/locks/AbstractQueuedSynchronizer.acquire (13 samples, 0.26%)</title><rect x="742.1" y="115.0" width="3.1" height="15" fill="#57e857" rx="2" ry="2"/>
<text x="745.1" y="126.0"></text>
</g>
<g>
<title>java/util/concurrent/locks/AbstractQueuedSynchronizer.acquireQueued (13 samples, 0.26%)</title><rect x="742.1" y="99.0" width="3.1" height="15" fill="#51e251" rx="2" ry="2"/>
<text x="745.1" y="110.0"></text>
</g>
<g>
<title>java/util/concurrent/locks/AbstractQueuedSynchronizer.parkAndCheckInterrupt (13 samples, 0.26%)</title><rect x="742.1" y="83.0" width="3.1" height="15" fill="#57e857" rx="2" ry="2"/>
<text x="745.1" y="94.0"></text>
</g>
<g>
<title>java/util/concurrent/locks/LockSupport.park (13 samples, 0.26%)</title><rect x="742.1" y="67.0" width="3.1" height="15" fill="#69fa69" rx="2" ry="2"/>
<text x="745.1" y="78.0"></text>
</g>
<g>
<title>jdk/internal/misc/Unsafe.park (13 samples, 0.26%)</title><rect x="742.1" y="51.0" width="3.1" height="15" fill="#63f463" rx="2" ry="2"/>
<text x="745.1" y="62.0"></text>
</g>
<g>
<title>java.util.concurrent.locks.ReentrantLock$NonfairSync (13 samples, 0.26%)</title><rect x="742.1" y="35.0" width="3.1" height="15" fill="#55c3c3" rx="2" ry="2"/>
<text x="745.1" y="46.0"></text>
</g>
<g>
<title>ch/qos/logback/core/encoder/LayoutWrappingEncoder.encode (11 samples, 0.22%)</title><rect x="745.2" y="147.0" width="2.6" height="15" fill="#58e958" rx="2" ry="2"/>
<text x="748.2" y="158.0"></text>
</g>
<g>
<title>ch/qos/logback/classic/layout/TTLLLayout.doLayout (11 samples, 0.22%)</title><rect x="745.2" y="131.0" width="2.6" height="15" fill="#50e150" rx="2" ry="2"/>
<text x="748.2" y="142.0"></text>
</g>
<g>
<title>ch/qos/logback/classic/layout/TTLLLayout.doLayout (11 samples, 0.22%)</title><rect x="745.2" y="115.0" width="2.6" height="15" fill="#61f261" rx="2" ry="2"/>
<text x="748.2" y="126.0"></text>
</g>
<g>
<title>ch/qos/logback/core/util/CachingDateFormatter.format (11 samples, 0.22%)</title><rect x="745.2" y="99.0" width="2.6" height="15" fill="#51e251" rx="2" ry="2"/>
<text x="748.2" y="110.0"></text>
</g>
<g>
<title>ch.qos.logback.core.util.CachingDateFormatter (11 samples, 0.22%)</title><rect x="745.2" y="83.0" width="2.6" height="15" fill="#5ecccc" rx="2" ry="2"/>
<text x="748.2" y="94.0"></text>
</g>
<g>
<title>java/util/concurrent/ThreadPoolExecutor.execute (1,858 samples, 37.47%)</title><rect x="747.8" y="291.0" width="442.2" height="15" fill="#6dfe6d" rx="2" ry="2"/>
<text x="750.8" y="302.0">java/util/concurrent/ThreadPoolExecutor.execute</text>
</g>
<g>
<title>java/util/concurrent/ArrayBlockingQueue.offer (1,844 samples, 37.19%)</title><rect x="747.8" y="275.0" width="438.9" height="15" fill="#52e352" rx="2" ry="2"/>
<text x="750.8" y="286.0">java/util/concurrent/ArrayBlockingQueue.offer</text>
</g>
<g>
<title>java/util/concurrent/locks/ReentrantLock.lock (1,844 samples, 37.19%)</title><rect x="747.8" y="259.0" width="438.9" height="15" fill="#53e453" rx="2" ry="2"/>
<text x="750.8" y="270.0">java/util/concurrent/locks/ReentrantLock.lock</text>
</g>
<g>
<title>java/util/concurrent/locks/AbstractQueuedSynchronizer.acquire (1,844 samples, 37.19%)</title><rect x="747.8" y="243.0" width="438.9" height="15" fill="#6cfd6c" rx="2" ry="2"/>
<text x="750.8" y="254.0">java/util/concurrent/locks/AbstractQueuedSynchronizer.acquire</text>
</g>
<g>
<title>java/util/concurrent/locks/AbstractQueuedSynchronizer.acquireQueued (1,844 samples, 37.19%)</title><rect x="747.8" y="227.0" width="438.9" height="15" fill="#57e857" rx="2" ry="2"/>
<text x="750.8" y="238.0">java/util/concurrent/locks/AbstractQueuedSynchronizer.acquir..</text>
</g>
<g>
<title>java/util/concurrent/locks/AbstractQueuedSynchronizer.parkAndCheckInterrupt (1,844 samples, 37.19%)</title><rect x="747.8" y="211.0" width="438.9" height="15" fill="#54e554" rx="2" ry="2"/>
<text x="750.8" y="222.0">java/util/concurrent/locks/AbstractQueuedSynchronizer.parkAn..</text>
</g>
<g>
<title>java/util/concurrent/locks/LockSupport.park (1,844 samples, 37.19%)</title><rect x="747.8" y="195.0" width="438.9" height="15" fill="#6afb6a" rx="2" ry="2"/>
<text x="750.8" y="206.0">java/util/concurrent/locks/LockSupport.park</text>
</g>
<g>
<title>jdk/internal/misc/Unsafe.park (1,844 samples, 37.19%)</title><rect x="747.8" y="179.0" width="438.9" height="15" fill="#64f564" rx="2" ry="2"/>
<text x="750.8" y="190.0">jdk/internal/misc/Unsafe.park</text>
</g>
<g>
<title>java.util.concurrent.locks.ReentrantLock$NonfairSync (1,844 samples, 37.19%)</title><rect x="747.8" y="163.0" width="438.9" height="15" fill="#66d4d4" rx="2" ry="2"/>
<text x="750.8" y="174.0">java.util.concurrent.locks.ReentrantLock$NonfairSync</text>
</g>
<g>
<title>java/util/concurrent/ThreadPoolExecutor.addWorker (10 samples, 0.20%)</title><rect x="1186.7" y="275.0" width="2.3" height="15" fill="#6cfd6c" rx="2" ry="2"/>
<text x="1189.7" y="286.0"></text>
</g>
<g>
<title>java/util/concurrent/locks/ReentrantLock.lock (10 samples, 0.20%)</title><rect x="1186.7" y="259.0" width="2.3" height="15" fill="#53e453" rx="2" ry="2"/>
<text x="1189.7" y="270.0"></text>
</g>
<g>
<title>java/util/concurrent/locks/AbstractQueuedSynchronizer.acquire (10 samples, 0.20%)</title><rect x="1186.7" y="243.0" width="2.3" height="15" fill="#5ced5c" rx="2" ry="2"/>
<text x="1189.7" y="254.0"></text>
</g>
<g>
<title>java/util/concurrent/locks/AbstractQueuedSynchronizer.acquireQueued (10 samples, 0.20%)</title><rect x="1186.7" y="227.0" width="2.3" height="15" fill="#69fa69" rx="2" ry="2"/>
<text x="1189.7" y="238.0"></text>
</g>
<g>
<title>java/util/concurrent/locks/AbstractQueuedSynchronizer.parkAndCheckInterrupt (10 samples, 0.20%)</title><rect x="1186.7" y="211.0" width="2.3" height="15" fill="#66f766" rx="2" ry="2"/>
<text x="1189.7" y="222.0"></text>
</g>
<g>
<title>java/util/concurrent/locks/LockSupport.park (10 samples, 0.20%)</title><rect x="1186.7" y="195.0" width="2.3" height="15" fill="#56e756" rx="2" ry="2"/>
<text x="1189.7" y="206.0"></text>
</g>
<g>
<title>jdk/internal/misc/Unsafe.park (10 samples, 0.20%)</title><rect x="1186.7" y="179.0" width="2.3" height="15" fill="#6dfe6d" rx="2" ry="2"/>
<text x="1189.7" y="190.0"></text>
</g>
<g>
<title>java.util.concurrent.locks.ReentrantLock$NonfairSync (10 samples, 0.20%)</title><rect x="1186.7" y="163.0" width="2.3" height="15" fill="#5fcdcd" rx="2" ry="2"/>
<text x="1189.7" y="174.0"></text>
</g>
<g>
<title>java/util/concurrent/ThreadPoolExecutor.reject (4 samples, 0.08%)</title><rect x="1189.0" y="275.0" width="1.0" height="15" fill="#65f665" rx="2" ry="2"/>
<text x="1192.0" y="286.0"></text>
</g>
<g>
<title>java/util/concurrent/ThreadPoolExecutor$AbortPolicy.rejectedExecution (4 samples, 0.08%)</title><rect x="1189.0" y="259.0" width="1.0" height="15" fill="#55e655" rx="2" ry="2"/>
<text x="1192.0" y="270.0"></text>
</g>
<g>
<title>java/util/concurrent/ThreadPoolExecutor.toString (4 samples, 0.08%)</title><rect x="1189.0" y="243.0" width="1.0" height="15" fill="#56e756" rx="2" ry="2"/>
<text x="1192.0" y="254.0"></text>
</g>
<g>
<title>java/util/concurrent/locks/ReentrantLock.lock (3 samples, 0.06%)</title><rect x="1189.3" y="227.0" width="0.7" height="15" fill="#6cfd6c" rx="2" ry="2"/>
<text x="1192.3" y="238.0"></text>
</g>
<g>
<title>java/util/concurrent/locks/AbstractQueuedSynchronizer.acquire (3 samples, 0.06%)</title><rect x="1189.3" y="211.0" width="0.7" height="15" fill="#57e857" rx="2" ry="2"/>
<text x="1192.3" y="222.0"></text>
</g>
<g>
<title>java/util/concurrent/locks/AbstractQueuedSynchronizer.acquireQueued (3 samples, 0.06%)</title><rect x="1189.3" y="195.0" width="0.7" height="15" fill="#5dee5d" rx="2" ry="2"/>
<text x="1192.3" y="206.0"></text>
</g>
<g>
<title>java/util/concurrent/locks/AbstractQueuedSynchronizer.parkAndCheckInterrupt (3 samples, 0.06%)</title><rect x="1189.3" y="179.0" width="0.7" height="15" fill="#68f968" rx="2" ry="2"/>
<text x="1192.3" y="190.0"></text>
</g>
<g>
<title>java/util/concurrent/locks/LockSupport.park (3 samples, 0.06%)</title><rect x="1189.3" y="163.0" width="0.7" height="15" fill="#6afb6a" rx="2" ry="2"/>
<text x="1192.3" y="174.0"></text>
</g>
<g>
<title>jdk/internal/misc/Unsafe.park (3 samples, 0.06%)</title><rect x="1189.3" y="147.0" width="0.7" height="15" fill="#63f463" rx="2" ry="2"/>
<text x="1192.3" y="158.0"></text>
</g>
<g>
<title>java.util.concurrent.locks.ReentrantLock$NonfairSync (3 samples, 0.06%)</title><rect x="1189.3" y="131.0" width="0.7" height="15" fill="#53c1c1" rx="2" ry="2"/>
<text x="1192.3" y="142.0"></text>
</g>
</g>
</svg>
