<?xml version="1.0" standalone="no"?>
<!DOCTYPE svg PUBLIC "-//W3C//DTD SVG 1.1//EN" "http://www.w3.org/Graphics/SVG/1.1/DTD/svg11.dtd">
<svg version="1.1" width="1200" height="614" onload="init(evt)" viewBox="0 0 1200 614" xmlns="http://www.w3.org/2000/svg" xmlns:xlink="http://www.w3.org/1999/xlink">
<style type="text/css">
	text { font-family:Verdana; font-size:12px; fill:rgb(0,0,0); }
	#search { opacity:0.1; cursor:pointer; }
	#search:hover, #search.show { opacity:1; }
	#subtitle { text-anchor:middle; font-color:rgb(160,160,160); }
	#title { text-anchor:middle; font-size:17px}
	#unzoom { cursor:pointer; }
	#frames > *:hover { stroke:black; stroke-width:0.5; cursor:pointer; }
	.hide { display:none; }
	.parent { opacity:0.5; }
</style>
<script type="text/ecmascript">
<![CDATA[
	"use strict";
	var details, searchbtn, unzoombtn, matchedtxt, svg, searching;
	function init(evt) {
		details = document.getElementById("details").firstChild;
		searchbtn = document.getElementById("search");
		unzoombtn = document.getElementById("unzoom");
		matchedtxt = document.getElementById("matched");
		svg = document.getElementsByTagName("svg")[0];
		searching = 0;
	}

	window.addEventListener("click", function(e) {
		var target = find_group(e.target);
		if (target) {
			if (target.nodeName == "a") {
				if (e.ctrlKey === false) return;
				e.preventDefault();
			}
			if (target.classList.contains("parent")) unzoom();
			zoom(target);
		}
		else if (e.target.id == "unzoom") unzoom();
		else if (e.target.id == "search") search_prompt();
	}, false)

	// mouse-over for info
	// show
	window.addEventListener("mouseover", function(e) {
		var target = find_group(e.target);
		if (target) details.nodeValue = "Function: " + g_to_text(target);
	}, false)

	// clear
	window.addEventListener("mouseout", function(e) {
		var target = find_group(e.target);
		if (target) details.nodeValue = ' ';
	}, false)

	// ctrl-F for search
	window.addEventListener("keydown",function (e) {
		if (e.keyCode === 114 || (e.ctrlKey && e.keyCode === 70)) {
			e.preventDefault();
			search_prompt();
		}
	}, false)

	// functions
	function find_child(node, selector) {
		var children = node.querySelectorAll(selector);
		if (children.length) return children[0];
		return;
	}
	function find_group(node) {
		var parent = node.parentElement;
		if (!parent) return;
		if (parent.id == "frames") return node;
		return find_group(parent);
	}
	function orig_save(e, attr, val) {
		if (e.attributes["_orig_" + attr] != undefined) return;
		if (e.attributes[attr] == undefined) return;
		if (val == undefined) val = e.attributes[attr].value;
		e.setAttribute("_orig_" + attr, val);
	}
	function orig_load(e, attr) {
		if (e.attributes["_orig_"+attr] == undefined) return;
		e.attributes[attr].value = e.attributes["_orig_" + attr].value;
		e.removeAttribute("_orig_"+attr);
	}
	function g_to_text(e) {
		var text = find_child(e, "title").firstChild.nodeValue;
		return (text)
	}
	function g_to_func(e) {
		var func = g_to_text(e);
		// if there's any manipulation we want to do to the function
		// name before it's searched, do it here before returning.
		return (func);
	}
	function update_text(e) {
		var r = find_child(e, "rect");
		var t = find_child(e, "text");
		var w = parseFloat(r.attributes.width.value) -3;
		var txt = find_child(e, "title").textContent.replace(/\([^(]*\)$/,"");
		t.attributes.x.value = parseFloat(r.attributes.x.value) + 3;

		// Smaller than this size won't fit anything
		if (w < 2 * 12 * 0.59) {
			t.textContent = "";
			return;
		}

		t.textContent = txt;
		// Fit in full text width
		if (/^ *$/.test(txt) || t.getSubStringLength(0, txt.length) < w)
			return;

		for (var x = txt.length - 2; x > 0; x--) {
			if (t.getSubStringLength(0, x + 2) <= w) {
				t.textContent = txt.substring(0, x) + "..";
				return;
			}
		}
		t.textContent = "";
	}

	// zoom
	function zoom_reset(e) {
		if (e.attributes != undefined) {
			orig_load(e, "x");
			orig_load(e, "width");
		}
		if (e.childNodes == undefined) return;
		for (var i = 0, c = e.childNodes; i < c.length; i++) {
			zoom_reset(c[i]);
		}
	}
	function zoom_child(e, x, ratio) {
		if (e.attributes != undefined) {
			if (e.attributes.x != undefined) {
				orig_save(e, "x");
				e.attributes.x.value = (parseFloat(e.attributes.x.value) - x - 10) * ratio + 10;
				if (e.tagName == "text")
					e.attributes.x.value = find_child(e.parentNode, "rect[x]").attributes.x.value + 3;
			}
			if (e.attributes.width != undefined) {
				orig_save(e, "width");
				e.attributes.width.value = parseFloat(e.attributes.width.value) * ratio;
			}
		}

		if (e.childNodes == undefined) return;
		for (var i = 0, c = e.childNodes; i < c.length; i++) {
			zoom_child(c[i], x - 10, ratio);
		}
	}
	function zoom_parent(e) {
		if (e.attributes) {
			if (e.attributes.x != undefined) {
				orig_save(e, "x");
				e.attributes.x.value = 10;
			}
			if (e.attributes.width != undefined) {
				orig_save(e, "width");
				e.attributes.width.value = parseInt(svg.width.baseVal.value) - (10 * 2);
			}
		}
		if (e.childNodes == undefined) return;
		for (var i = 0, c = e.childNodes; i < c.length; i++) {
			zoom_parent(c[i]);
		}
	}
	function zoom(node) {
		var attr = find_child(node, "rect").attributes;
		var width = parseFloat(attr.width.value);
		var xmin = parseFloat(attr.x.value);
		var xmax = parseFloat(xmin + width);
		var ymin = parseFloat(attr.y.value);
		var ratio = (svg.width.baseVal.value - 2 * 10) / width;

		// XXX: Workaround for JavaScript float issues (fix me)
		var fudge = 0.0001;

		unzoombtn.classList.remove("hide");

		var el = document.getElementById("frames").children;
		for (var i = 0; i < el.length; i++) {
			var e = el[i];
			var a = find_child(e, "rect").attributes;
			var ex = parseFloat(a.x.value);
			var ew = parseFloat(a.width.value);
			var upstack;
			// Is it an ancestor
			if (0 == 0) {
				upstack = parseFloat(a.y.value) > ymin;
			} else {
				upstack = parseFloat(a.y.value) < ymin;
			}
			if (upstack) {
				// Direct ancestor
				if (ex <= xmin && (ex+ew+fudge) >= xmax) {
					e.classList.add("parent");
					zoom_parent(e);
					update_text(e);
				}
				// not in current path
				else
					e.classList.add("hide");
			}
			// Children maybe
			else {
				// no common path
				if (ex < xmin || ex + fudge >= xmax) {
					e.classList.add("hide");
				}
				else {
					zoom_child(e, xmin, ratio);
					update_text(e);
				}
			}
		}
	}
	function unzoom() {
		unzoombtn.classList.add("hide");
		var el = document.getElementById("frames").children;
		for(var i = 0; i < el.length; i++) {
			el[i].classList.remove("parent");
			el[i].classList.remove("hide");
			zoom_reset(el[i]);
			update_text(el[i]);
		}
	}

	// search
	function reset_search() {
		var el = document.querySelectorAll("#frames rect");
		for (var i = 0; i < el.length; i++) {
			orig_load(el[i], "fill")
		}
	}
	function search_prompt() {
		if (!searching) {
			var term = prompt("Enter a search term (regexp " +
			    "allowed, eg: ^ext4_)", "");
			if (term != null) {
				search(term)
			}
		} else {
			reset_search();
			searching = 0;
			searchbtn.classList.remove("show");
			searchbtn.firstChild.nodeValue = "Search"
			matchedtxt.classList.add("hide");
			matchedtxt.firstChild.nodeValue = ""
		}
	}
	function search(term) {
		var re = new RegExp(term);
		var el = document.getElementById("frames").children;
		var matches = new Object();
		var maxwidth = 0;
		for (var i = 0; i < el.length; i++) {
			var e = el[i];
			var func = g_to_func(e);
			var rect = find_child(e, "rect");
			if (func == null || rect == null)
				continue;

			// Save max width. Only works as we have a root frame
			var w = parseFloat(rect.attributes.width.value);
			if (w > maxwidth)
				maxwidth = w;

			if (func.match(re)) {
				// highlight
				var x = parseFloat(rect.attributes.x.value);
				orig_save(rect, "fill");
				rect.attributes.fill.value = "rgb(230,0,230)";

				// remember matches
				if (matches[x] == undefined) {
					matches[x] = w;
				} else {
					if (w > matches[x]) {
						// overwrite with parent
						matches[x] = w;
					}
				}
				searching = 1;
			}
		}
		if (!searching)
			return;

		searchbtn.classList.add("show");
		searchbtn.firstChild.nodeValue = "Reset Search";

		// calculate percent matched, excluding vertical overlap
		var count = 0;
		var lastx = -1;
		var lastw = 0;
		var keys = Array();
		for (k in matches) {
			if (matches.hasOwnProperty(k))
				keys.push(k);
		}
		// sort the matched frames by their x location
		// ascending, then width descending
		keys.sort(function(a, b){
			return a - b;
		});
		// Step through frames saving only the biggest bottom-up frames
		// thanks to the sort order. This relies on the tree property
		// where children are always smaller than their parents.
		var fudge = 0.0001;	// JavaScript floating point
		for (var k in keys) {
			var x = parseFloat(keys[k]);
			var w = matches[keys[k]];
			if (x >= lastx + lastw - fudge) {
				count += w;
				lastx = x;
				lastw = w;
			}
		}
		// display matched percent
		matchedtxt.classList.remove("hide");
		var pct = 100 * count / maxwidth;
		if (pct != 100) pct = pct.toFixed(1)
		matchedtxt.firstChild.nodeValue = "Matched: " + pct + "%";
	}
]]>
</script>
<rect x="0" y="0" width="100%" height="100%" fill="rgb(240,240,220)"/>
<text id="title" x="600" y="24">Flame Graph</text>
<text id="details" x="10" y="597"> </text>
<text id="unzoom" x="10" y="24" class="hide">Reset Zoom</text>
<text id="search" x="1090" y="24">Search</text>
<text id="matched" x="1090" y="597"> </text>
<g id="frames">
<g>
<title>all (971 samples, 100.00%)</title><rect x="10.0" y="563.0" width="1180.0" height="15" fill="#e96565" rx="2" ry="2"/>
<text x="13.0" y="574.0">all</text>
</g>
<g>
<title>java/lang/Thread.run (1 samples, 0.10%)</title><rect x="10.0" y="547.0" width="1.2" height="15" fill="#55e655" rx="2" ry="2"/>
<text x="13.0" y="558.0"></text>
</g>
<g>
<title>java/util/concurrent/ThreadPoolExecutor$Worker.run (1 samples, 0.10%)</title><rect x="10.0" y="531.0" width="1.2" height="15" fill="#50e150" rx="2" ry="2"/>
<text x="13.0" y="542.0"></text>
</g>
<g>
<title>java/util/concurrent/ThreadPoolExecutor.runWorker (1 samples, 0.10%)</title><rect x="10.0" y="515.0" width="1.2" height="15" fill="#6bfc6b" rx="2" ry="2"/>
<text x="13.0" y="526.0"></text>
</g>
<g>
<title>sun/rmi/transport/tcp/TCPTransport$ConnectionHandler.run (1 samples, 0.10%)</title><rect x="10.0" y="499.0" width="1.2" height="15" fill="#58e958" rx="2" ry="2"/>
<text x="13.0" y="510.0"></text>
</g>
<g>
<title>java/security/AccessController.doPrivileged (1 samples, 0.10%)</title><rect x="10.0" y="483.0" width="1.2" height="15" fill="#68f968" rx="2" ry="2"/>
<text x="13.0" y="494.0"></text>
</g>
<g>
<title>sun/rmi/transport/tcp/TCPTransport$ConnectionHandler$$Lambda$90/453267912.run (1 samples, 0.10%)</title><rect x="10.0" y="467.0" width="1.2" height="15" fill="#63f463" rx="2" ry="2"/>
<text x="13.0" y="478.0"></text>
</g>
<g>
<title>sun/rmi/transport/tcp/TCPTransport$ConnectionHandler.lambda$run$0 (1 samples, 0.10%)</title><rect x="10.0" y="451.0" width="1.2" height="15" fill="#64f564" rx="2" ry="2"/>
<text x="13.0" y="462.0"></text>
</g>
<g>
<title>sun/rmi/transport/tcp/TCPTransport$ConnectionHandler.run0 (1 samples, 0.10%)</title><rect x="10.0" y="435.0" width="1.2" height="15" fill="#55e655" rx="2" ry="2"/>
<text x="13.0" y="446.0"></text>
</g>
<g>
<title>sun/rmi/transport/tcp/TCPTransport.handleMessages (1 samples, 0.10%)</title><rect x="10.0" y="419.0" width="1.2" height="15" fill="#51e251" rx="2" ry="2"/>
<text x="13.0" y="430.0"></text>
</g>
<g>
<title>sun/rmi/transport/Transport.serviceCall (1 samples, 0.10%)</title><rect x="10.0" y="403.0" width="1.2" height="15" fill="#6cfd6c" rx="2" ry="2"/>
<text x="13.0" y="414.0"></text>
</g>
<g>
<title>java/rmi/server/ObjID.read (1 samples, 0.10%)</title><rect x="10.0" y="387.0" width="1.2" height="15" fill="#67f867" rx="2" ry="2"/>
<text x="13.0" y="398.0"></text>
</g>
<g>
<title>java/io/ObjectInputStream.readLong (1 samples, 0.10%)</title><rect x="10.0" y="371.0" width="1.2" height="15" fill="#53e453" rx="2" ry="2"/>
<text x="13.0" y="382.0"></text>
</g>
<g>
<title>java/io/ObjectInputStream$BlockDataInputStream.readLong (1 samples, 0.10%)</title><rect x="10.0" y="355.0" width="1.2" height="15" fill="#69fa69" rx="2" ry="2"/>
<text x="13.0" y="366.0"></text>
</g>
<g>
<title>java/io/DataInputStream.readLong (1 samples, 0.10%)</title><rect x="10.0" y="339.0" width="1.2" height="15" fill="#56e756" rx="2" ry="2"/>
<text x="13.0" y="350.0"></text>
</g>
<g>
<title>java/io/DataInputStream.readFully (1 samples, 0.10%)</title><rect x="10.0" y="323.0" width="1.2" height="15" fill="#6dfe6d" rx="2" ry="2"/>
<text x="13.0" y="334.0"></text>
</g>
<g>
<title>one/nio/server/SelectorThread.run (970 samples, 99.90%)</title><rect x="11.2" y="547.0" width="1178.8" height="15" fill="#60f160" rx="2" ry="2"/>
<text x="14.2" y="558.0">one/nio/server/SelectorThread.run</text>
</g>
<g>
<title>one/nio/net/Session.process (970 samples, 99.90%)</title><rect x="11.2" y="531.0" width="1178.8" height="15" fill="#64f564" rx="2" ry="2"/>
<text x="14.2" y="542.0">one/nio/net/Session.process</text>
</g>
<g>
<title>one/nio/http/HttpSession.processRead (970 samples, 99.90%)</title><rect x="11.2" y="515.0" width="1178.8" height="15" fill="#5dee5d" rx="2" ry="2"/>
<text x="14.2" y="526.0">one/nio/http/HttpSession.processRead</text>
</g>
<g>
<title>one/nio/http/HttpSession.processHttpBuffer (970 samples, 99.90%)</title><rect x="11.2" y="499.0" width="1178.8" height="15" fill="#68f968" rx="2" ry="2"/>
<text x="14.2" y="510.0">one/nio/http/HttpSession.processHttpBuffer</text>
</g>
<g>
<title>one/nio/http/HttpSession.handleParsedRequest (970 samples, 99.90%)</title><rect x="11.2" y="483.0" width="1178.8" height="15" fill="#6afb6a" rx="2" ry="2"/>
<text x="14.2" y="494.0">one/nio/http/HttpSession.handleParsedRequest</text>
</g>
<g>
<title>one/nio/http/HttpServer.handleRequest (970 samples, 99.90%)</title><rect x="11.2" y="467.0" width="1178.8" height="15" fill="#65f665" rx="2" ry="2"/>
<text x="14.2" y="478.0">one/nio/http/HttpServer.handleRequest</text>
</g>
<g>
<title>RequestHandler0_get.handleRequest (969 samples, 99.79%)</title><rect x="11.2" y="451.0" width="1177.6" height="15" fill="#5ced5c" rx="2" ry="2"/>
<text x="14.2" y="462.0">RequestHandler0_get.handleRequest</text>
</g>
<g>
<title>ru/mail/polis/service/re1nex/MyService.get (969 samples, 99.79%)</title><rect x="11.2" y="435.0" width="1177.6" height="15" fill="#55e655" rx="2" ry="2"/>
<text x="14.2" y="446.0">ru/mail/polis/service/re1nex/MyService.get</text>
</g>
<g>
<title>ch/qos/logback/classic/Logger.error (1 samples, 0.10%)</title><rect x="11.2" y="419.0" width="1.2" height="15" fill="#69fa69" rx="2" ry="2"/>
<text x="14.2" y="430.0"></text>
</g>
<g>
<title>ch/qos/logback/classic/Logger.filterAndLog_1 (1 samples, 0.10%)</title><rect x="11.2" y="403.0" width="1.2" height="15" fill="#54e554" rx="2" ry="2"/>
<text x="14.2" y="414.0"></text>
</g>
<g>
<title>ch/qos/logback/classic/Logger.buildLoggingEventAndAppend (1 samples, 0.10%)</title><rect x="11.2" y="387.0" width="1.2" height="15" fill="#64f564" rx="2" ry="2"/>
<text x="14.2" y="398.0"></text>
</g>
<g>
<title>ch/qos/logback/classic/Logger.callAppenders (1 samples, 0.10%)</title><rect x="11.2" y="371.0" width="1.2" height="15" fill="#59ea59" rx="2" ry="2"/>
<text x="14.2" y="382.0"></text>
</g>
<g>
<title>ru/mail/polis/dao/DAO.get (968 samples, 99.69%)</title><rect x="12.4" y="419.0" width="1176.4" height="15" fill="#5aeb5a" rx="2" ry="2"/>
<text x="15.4" y="430.0">ru/mail/polis/dao/DAO.get</text>
</g>
<g>
<title>com/google/common/collect/TransformedIterator.hasNext (4 samples, 0.41%)</title><rect x="12.4" y="403.0" width="4.9" height="15" fill="#5ff05f" rx="2" ry="2"/>
<text x="15.4" y="414.0"></text>
</g>
<g>
<title>com/google/common/collect/AbstractIterator.hasNext (4 samples, 0.41%)</title><rect x="12.4" y="387.0" width="4.9" height="15" fill="#5dee5d" rx="2" ry="2"/>
<text x="15.4" y="398.0"></text>
</g>
<g>
<title>com/google/common/collect/AbstractIterator.tryToComputeNext (4 samples, 0.41%)</title><rect x="12.4" y="371.0" width="4.9" height="15" fill="#63f463" rx="2" ry="2"/>
<text x="15.4" y="382.0"></text>
</g>
<g>
<title>com/google/common/collect/Iterators$5.computeNext (4 samples, 0.41%)</title><rect x="12.4" y="355.0" width="4.9" height="15" fill="#65f665" rx="2" ry="2"/>
<text x="15.4" y="366.0"></text>
</g>
<g>
<title>ru/mail/polis/dao/Iters$CollapseEqualsIterator.next (4 samples, 0.41%)</title><rect x="12.4" y="339.0" width="4.9" height="15" fill="#5dee5d" rx="2" ry="2"/>
<text x="15.4" y="350.0"></text>
</g>
<g>
<title>com/google/common/collect/Iterators$MergingIterator.next (4 samples, 0.41%)</title><rect x="12.4" y="323.0" width="4.9" height="15" fill="#60f160" rx="2" ry="2"/>
<text x="15.4" y="334.0"></text>
</g>
<g>
<title>java/util/PriorityQueue.add (4 samples, 0.41%)</title><rect x="12.4" y="307.0" width="4.9" height="15" fill="#50e150" rx="2" ry="2"/>
<text x="15.4" y="318.0"></text>
</g>
<g>
<title>java/util/PriorityQueue.offer (4 samples, 0.41%)</title><rect x="12.4" y="291.0" width="4.9" height="15" fill="#58e958" rx="2" ry="2"/>
<text x="15.4" y="302.0"></text>
</g>
<g>
<title>java/util/PriorityQueue.siftUp (4 samples, 0.41%)</title><rect x="12.4" y="275.0" width="4.9" height="15" fill="#55e655" rx="2" ry="2"/>
<text x="15.4" y="286.0"></text>
</g>
<g>
<title>java/util/PriorityQueue.siftUpUsingComparator (4 samples, 0.41%)</title><rect x="12.4" y="259.0" width="4.9" height="15" fill="#64f564" rx="2" ry="2"/>
<text x="15.4" y="270.0"></text>
</g>
<g>
<title>com/google/common/collect/Iterators$MergingIterator$1.compare (4 samples, 0.41%)</title><rect x="12.4" y="243.0" width="4.9" height="15" fill="#5dee5d" rx="2" ry="2"/>
<text x="15.4" y="254.0"></text>
</g>
<g>
<title>com/google/common/collect/Iterators$MergingIterator$1.compare (4 samples, 0.41%)</title><rect x="12.4" y="227.0" width="4.9" height="15" fill="#57e857" rx="2" ry="2"/>
<text x="15.4" y="238.0"></text>
</g>
<g>
<title>com/google/common/collect/Iterators$PeekingImpl.peek (4 samples, 0.41%)</title><rect x="12.4" y="211.0" width="4.9" height="15" fill="#63f463" rx="2" ry="2"/>
<text x="15.4" y="222.0"></text>
</g>
<g>
<title>ru/mail/polis/dao/re1nex/SSTable$1.next (4 samples, 0.41%)</title><rect x="12.4" y="195.0" width="4.9" height="15" fill="#56e756" rx="2" ry="2"/>
<text x="15.4" y="206.0"></text>
</g>
<g>
<title>ru/mail/polis/dao/re1nex/SSTable$1.next (4 samples, 0.41%)</title><rect x="12.4" y="179.0" width="4.9" height="15" fill="#5aeb5a" rx="2" ry="2"/>
<text x="15.4" y="190.0"></text>
</g>
<g>
<title>ru/mail/polis/dao/re1nex/SSTable.cell (4 samples, 0.41%)</title><rect x="12.4" y="163.0" width="4.9" height="15" fill="#5ff05f" rx="2" ry="2"/>
<text x="15.4" y="174.0"></text>
</g>
<g>
<title>ru/mail/polis/dao/re1nex/SSTable.key (2 samples, 0.21%)</title><rect x="12.4" y="147.0" width="2.5" height="15" fill="#5ced5c" rx="2" ry="2"/>
<text x="15.4" y="158.0"></text>
</g>
<g>
<title>sun/nio/ch/FileChannelImpl.read (2 samples, 0.21%)</title><rect x="12.4" y="131.0" width="2.5" height="15" fill="#5aeb5a" rx="2" ry="2"/>
<text x="15.4" y="142.0"></text>
</g>
<g>
<title>sun/nio/ch/FileChannelImpl.readInternal (2 samples, 0.21%)</title><rect x="12.4" y="115.0" width="2.5" height="15" fill="#51e251" rx="2" ry="2"/>
<text x="15.4" y="126.0"></text>
</g>
<g>
<title>sun/nio/ch/IOUtil.read (2 samples, 0.21%)</title><rect x="12.4" y="99.0" width="2.5" height="15" fill="#52e352" rx="2" ry="2"/>
<text x="15.4" y="110.0"></text>
</g>
<g>
<title>sun/nio/ch/IOUtil.readIntoNativeBuffer (2 samples, 0.21%)</title><rect x="12.4" y="83.0" width="2.5" height="15" fill="#68f968" rx="2" ry="2"/>
<text x="15.4" y="94.0"></text>
</g>
<g>
<title>sun/nio/ch/FileDispatcherImpl.pread (2 samples, 0.21%)</title><rect x="12.4" y="67.0" width="2.5" height="15" fill="#6afb6a" rx="2" ry="2"/>
<text x="15.4" y="78.0"></text>
</g>
<g>
<title>sun/nio/ch/FileDispatcherImpl.pread0 (2 samples, 0.21%)</title><rect x="12.4" y="51.0" width="2.5" height="15" fill="#6dfe6d" rx="2" ry="2"/>
<text x="15.4" y="62.0"></text>
</g>
<g>
<title>__libc_pread64 (2 samples, 0.21%)</title><rect x="12.4" y="35.0" width="2.5" height="15" fill="#f06e6e" rx="2" ry="2"/>
<text x="15.4" y="46.0"></text>
</g>
<g>
<title>sun/nio/ch/FileChannelImpl.read (2 samples, 0.21%)</title><rect x="14.9" y="147.0" width="2.4" height="15" fill="#58e958" rx="2" ry="2"/>
<text x="17.9" y="158.0"></text>
</g>
<g>
<title>sun/nio/ch/FileChannelImpl.readInternal (2 samples, 0.21%)</title><rect x="14.9" y="131.0" width="2.4" height="15" fill="#55e655" rx="2" ry="2"/>
<text x="17.9" y="142.0"></text>
</g>
<g>
<title>sun/nio/ch/IOUtil.read (2 samples, 0.21%)</title><rect x="14.9" y="115.0" width="2.4" height="15" fill="#5aeb5a" rx="2" ry="2"/>
<text x="17.9" y="126.0"></text>
</g>
<g>
<title>sun/nio/ch/IOUtil.readIntoNativeBuffer (2 samples, 0.21%)</title><rect x="14.9" y="99.0" width="2.4" height="15" fill="#5dee5d" rx="2" ry="2"/>
<text x="17.9" y="110.0"></text>
</g>
<g>
<title>sun/nio/ch/FileDispatcherImpl.pread (2 samples, 0.21%)</title><rect x="14.9" y="83.0" width="2.4" height="15" fill="#69fa69" rx="2" ry="2"/>
<text x="17.9" y="94.0"></text>
</g>
<g>
<title>sun/nio/ch/FileDispatcherImpl.pread0 (2 samples, 0.21%)</title><rect x="14.9" y="67.0" width="2.4" height="15" fill="#64f564" rx="2" ry="2"/>
<text x="17.9" y="78.0"></text>
</g>
<g>
<title>__libc_pread64 (2 samples, 0.21%)</title><rect x="14.9" y="51.0" width="2.4" height="15" fill="#f87979" rx="2" ry="2"/>
<text x="17.9" y="62.0"></text>
</g>
<g>
<title>ru/mail/polis/dao/re1nex/NewDAO.iterator (964 samples, 99.28%)</title><rect x="17.3" y="403.0" width="1171.5" height="15" fill="#5bec5b" rx="2" ry="2"/>
<text x="20.3" y="414.0">ru/mail/polis/dao/re1nex/NewDAO.iterator</text>
</g>
<g>
<title>ru/mail/polis/dao/re1nex/NewDAO.cellIterator (964 samples, 99.28%)</title><rect x="17.3" y="387.0" width="1171.5" height="15" fill="#54e554" rx="2" ry="2"/>
<text x="20.3" y="398.0">ru/mail/polis/dao/re1nex/NewDAO.cellIterator</text>
</g>
<g>
<title>com/google/common/collect/Iterators.mergeSorted (950 samples, 97.84%)</title><rect x="17.3" y="371.0" width="1154.5" height="15" fill="#5ced5c" rx="2" ry="2"/>
<text x="20.3" y="382.0">com/google/common/collect/Iterators.mergeSorted</text>
</g>
<g>
<title>com/google/common/collect/Iterators$MergingIterator.&lt;init&gt; (950 samples, 97.84%)</title><rect x="17.3" y="355.0" width="1154.5" height="15" fill="#53e453" rx="2" ry="2"/>
<text x="20.3" y="366.0">com/google/common/collect/Iterators$MergingIterator.&lt;init&gt;</text>
</g>
<g>
<title>java/util/PriorityQueue.add (1 samples, 0.10%)</title><rect x="70.8" y="339.0" width="1.2" height="15" fill="#62f362" rx="2" ry="2"/>
<text x="73.8" y="350.0"></text>
</g>
<g>
<title>java/util/PriorityQueue.offer (1 samples, 0.10%)</title><rect x="70.8" y="323.0" width="1.2" height="15" fill="#6dfe6d" rx="2" ry="2"/>
<text x="73.8" y="334.0"></text>
</g>
<g>
<title>java/util/PriorityQueue.siftUp (1 samples, 0.10%)</title><rect x="70.8" y="307.0" width="1.2" height="15" fill="#53e453" rx="2" ry="2"/>
<text x="73.8" y="318.0"></text>
</g>
<g>
<title>java/util/PriorityQueue.siftUpUsingComparator (1 samples, 0.10%)</title><rect x="70.8" y="291.0" width="1.2" height="15" fill="#6afb6a" rx="2" ry="2"/>
<text x="73.8" y="302.0"></text>
</g>
<g>
<title>com/google/common/collect/Iterators$MergingIterator$1.compare (1 samples, 0.10%)</title><rect x="70.8" y="275.0" width="1.2" height="15" fill="#54e554" rx="2" ry="2"/>
<text x="73.8" y="286.0"></text>
</g>
<g>
<title>com/google/common/collect/Iterators$MergingIterator$1.compare (1 samples, 0.10%)</title><rect x="70.8" y="259.0" width="1.2" height="15" fill="#68f968" rx="2" ry="2"/>
<text x="73.8" y="270.0"></text>
</g>
<g>
<title>com/google/common/collect/Iterators$PeekingImpl.peek (1 samples, 0.10%)</title><rect x="70.8" y="243.0" width="1.2" height="15" fill="#59ea59" rx="2" ry="2"/>
<text x="73.8" y="254.0"></text>
</g>
<g>
<title>ru/mail/polis/dao/re1nex/SSTable$1.next (1 samples, 0.10%)</title><rect x="70.8" y="227.0" width="1.2" height="15" fill="#5bec5b" rx="2" ry="2"/>
<text x="73.8" y="238.0"></text>
</g>
<g>
<title>ru/mail/polis/dao/re1nex/SSTable$1.next (1 samples, 0.10%)</title><rect x="70.8" y="211.0" width="1.2" height="15" fill="#5dee5d" rx="2" ry="2"/>
<text x="73.8" y="222.0"></text>
</g>
<g>
<title>ru/mail/polis/dao/re1nex/SSTable.cell (1 samples, 0.10%)</title><rect x="70.8" y="195.0" width="1.2" height="15" fill="#5ff05f" rx="2" ry="2"/>
<text x="73.8" y="206.0"></text>
</g>
<g>
<title>sun/nio/ch/FileChannelImpl.read (1 samples, 0.10%)</title><rect x="70.8" y="179.0" width="1.2" height="15" fill="#66f766" rx="2" ry="2"/>
<text x="73.8" y="190.0"></text>
</g>
<g>
<title>sun/nio/ch/FileChannelImpl.readInternal (1 samples, 0.10%)</title><rect x="70.8" y="163.0" width="1.2" height="15" fill="#6dfe6d" rx="2" ry="2"/>
<text x="73.8" y="174.0"></text>
</g>
<g>
<title>sun/nio/ch/IOUtil.read (1 samples, 0.10%)</title><rect x="70.8" y="147.0" width="1.2" height="15" fill="#6cfd6c" rx="2" ry="2"/>
<text x="73.8" y="158.0"></text>
</g>
<g>
<title>java/nio/HeapByteBuffer.put (1 samples, 0.10%)</title><rect x="70.8" y="131.0" width="1.2" height="15" fill="#52e352" rx="2" ry="2"/>
<text x="73.8" y="142.0"></text>
</g>
<g>
<title>java/util/Spliterators$1Adapter.hasNext (905 samples, 93.20%)</title><rect x="72.0" y="339.0" width="1099.8" height="15" fill="#50e150" rx="2" ry="2"/>
<text x="75.0" y="350.0">java/util/Spliterators$1Adapter.hasNext</text>
</g>
<g>
<title>java/util/stream/StreamSpliterators$WrappingSpliterator.tryAdvance (647 samples, 66.63%)</title><rect x="385.5" y="323.0" width="786.3" height="15" fill="#51e251" rx="2" ry="2"/>
<text x="388.5" y="334.0">java/util/stream/StreamSpliterators$WrappingSpliterator.tryAdvance</text>
</g>
<g>
<title>java/util/stream/StreamSpliterators$AbstractWrappingSpliterator.doAdvance (647 samples, 66.63%)</title><rect x="385.5" y="307.0" width="786.3" height="15" fill="#6afb6a" rx="2" ry="2"/>
<text x="388.5" y="318.0">java/util/stream/StreamSpliterators$AbstractWrappingSpliterator.doAdvance</text>
</g>
<g>
<title>java/util/Spliterator.getExactSizeIfKnown (593 samples, 61.07%)</title><rect x="413.5" y="291.0" width="720.6" height="15" fill="#6afb6a" rx="2" ry="2"/>
<text x="416.5" y="302.0">java/util/Spliterator.getExactSizeIfKnown</text>
</g>
<g>
<title>java/util/Spliterators$IteratorSpliterator.estimateSize (84 samples, 8.65%)</title><rect x="1032.0" y="275.0" width="102.1" height="15" fill="#51e251" rx="2" ry="2"/>
<text x="1035.0" y="286.0">java/util/Sp..</text>
</g>
<g>
<title>java/util/TreeMap$AscendingSubMap$AscendingEntrySetView.iterator (15 samples, 1.54%)</title><rect x="1057.5" y="259.0" width="18.3" height="15" fill="#5ced5c" rx="2" ry="2"/>
<text x="1060.5" y="270.0"></text>
</g>
<g>
<title>java/util/TreeMap$NavigableSubMap$SubMapEntryIterator.&lt;init&gt; (10 samples, 1.03%)</title><rect x="1063.6" y="243.0" width="12.2" height="15" fill="#55e655" rx="2" ry="2"/>
<text x="1066.6" y="254.0"></text>
</g>
<g>
<title>java/util/TreeMap$NavigableSubMap$SubMapIterator.&lt;init&gt; (10 samples, 1.03%)</title><rect x="1063.6" y="227.0" width="12.2" height="15" fill="#56e756" rx="2" ry="2"/>
<text x="1066.6" y="238.0"></text>
</g>
<g>
<title>java/util/TreeMap$NavigableSubMap$EntrySetView.size (48 samples, 4.94%)</title><rect x="1075.8" y="259.0" width="58.3" height="15" fill="#67f867" rx="2" ry="2"/>
<text x="1078.8" y="270.0">java/u..</text>
</g>
<g>
<title>java/util/TreeMap$NavigableSubMap$SubMapEntryIterator.next (48 samples, 4.94%)</title><rect x="1075.8" y="243.0" width="58.3" height="15" fill="#62f362" rx="2" ry="2"/>
<text x="1078.8" y="254.0">java/u..</text>
</g>
<g>
<title>java/util/TreeMap$NavigableSubMap$SubMapEntryIterator.next (48 samples, 4.94%)</title><rect x="1075.8" y="227.0" width="58.3" height="15" fill="#52e352" rx="2" ry="2"/>
<text x="1078.8" y="238.0">java/u..</text>
</g>
<g>
<title>java/util/TreeMap$NavigableSubMap$SubMapIterator.nextEntry (48 samples, 4.94%)</title><rect x="1075.8" y="211.0" width="58.3" height="15" fill="#5dee5d" rx="2" ry="2"/>
<text x="1078.8" y="222.0">java/u..</text>
</g>
<g>
<title>java/util/TreeMap.successor (28 samples, 2.88%)</title><rect x="1100.1" y="195.0" width="34.0" height="15" fill="#5ced5c" rx="2" ry="2"/>
<text x="1103.1" y="206.0">ja..</text>
</g>
<g>
<title>java/util/stream/StreamSpliterators$AbstractWrappingSpliterator.init (31 samples, 3.19%)</title><rect x="1134.1" y="291.0" width="37.7" height="15" fill="#5dee5d" rx="2" ry="2"/>
<text x="1137.1" y="302.0">jav..</text>
</g>
<g>
<title>java/util/stream/AbstractPipeline$$Lambda$104/173535273.get (14 samples, 1.44%)</title><rect x="1154.8" y="275.0" width="17.0" height="15" fill="#62f362" rx="2" ry="2"/>
<text x="1157.8" y="286.0"></text>
</g>
<g>
<title>java/util/stream/AbstractPipeline.lambda$spliterator$0 (14 samples, 1.44%)</title><rect x="1154.8" y="259.0" width="17.0" height="15" fill="#69fa69" rx="2" ry="2"/>
<text x="1157.8" y="270.0"></text>
</g>
<g>
<title>java/util/stream/AbstractPipeline.sourceSpliterator (14 samples, 1.44%)</title><rect x="1154.8" y="243.0" width="17.0" height="15" fill="#60f160" rx="2" ry="2"/>
<text x="1157.8" y="254.0"></text>
</g>
<g>
<title>java/lang/Iterable.forEach (13 samples, 1.34%)</title><rect x="1171.8" y="371.0" width="15.8" height="15" fill="#56e756" rx="2" ry="2"/>
<text x="1174.8" y="382.0"></text>
</g>
<g>
<title>ru/mail/polis/dao/re1nex/NewDAO$$Lambda$107/2037690967.accept (13 samples, 1.34%)</title><rect x="1171.8" y="355.0" width="15.8" height="15" fill="#68f968" rx="2" ry="2"/>
<text x="1174.8" y="366.0"></text>
</g>
<g>
<title>ru/mail/polis/dao/re1nex/NewDAO.lambda$cellIterator$5 (13 samples, 1.34%)</title><rect x="1171.8" y="339.0" width="15.8" height="15" fill="#64f564" rx="2" ry="2"/>
<text x="1174.8" y="350.0"></text>
</g>
<g>
<title>ru/mail/polis/dao/re1nex/SSTable.iterator (13 samples, 1.34%)</title><rect x="1171.8" y="323.0" width="15.8" height="15" fill="#52e352" rx="2" ry="2"/>
<text x="1174.8" y="334.0"></text>
</g>
<g>
<title>ru/mail/polis/dao/re1nex/SSTable$1.&lt;init&gt; (13 samples, 1.34%)</title><rect x="1171.8" y="307.0" width="15.8" height="15" fill="#6cfd6c" rx="2" ry="2"/>
<text x="1174.8" y="318.0"></text>
</g>
<g>
<title>ru/mail/polis/dao/re1nex/SSTable.binarySearch (13 samples, 1.34%)</title><rect x="1171.8" y="291.0" width="15.8" height="15" fill="#5eef5e" rx="2" ry="2"/>
<text x="1174.8" y="302.0"></text>
</g>
<g>
<title>ru/mail/polis/dao/re1nex/SSTable.key (13 samples, 1.34%)</title><rect x="1171.8" y="275.0" width="15.8" height="15" fill="#5bec5b" rx="2" ry="2"/>
<text x="1174.8" y="286.0"></text>
</g>
<g>
<title>ru/mail/polis/dao/re1nex/SSTable.getOffset (5 samples, 0.51%)</title><rect x="1171.8" y="259.0" width="6.0" height="15" fill="#5aeb5a" rx="2" ry="2"/>
<text x="1174.8" y="270.0"></text>
</g>
<g>
<title>sun/nio/ch/FileChannelImpl.read (5 samples, 0.51%)</title><rect x="1171.8" y="243.0" width="6.0" height="15" fill="#6bfc6b" rx="2" ry="2"/>
<text x="1174.8" y="254.0"></text>
</g>
<g>
<title>sun/nio/ch/FileChannelImpl.readInternal (5 samples, 0.51%)</title><rect x="1171.8" y="227.0" width="6.0" height="15" fill="#6bfc6b" rx="2" ry="2"/>
<text x="1174.8" y="238.0"></text>
</g>
<g>
<title>sun/nio/ch/IOUtil.read (4 samples, 0.41%)</title><rect x="1171.8" y="211.0" width="4.8" height="15" fill="#53e453" rx="2" ry="2"/>
<text x="1174.8" y="222.0"></text>
</g>
<g>
<title>sun/nio/ch/IOUtil.readIntoNativeBuffer (4 samples, 0.41%)</title><rect x="1171.8" y="195.0" width="4.8" height="15" fill="#6bfc6b" rx="2" ry="2"/>
<text x="1174.8" y="206.0"></text>
</g>
<g>
<title>sun/nio/ch/FileDispatcherImpl.pread (4 samples, 0.41%)</title><rect x="1171.8" y="179.0" width="4.8" height="15" fill="#6afb6a" rx="2" ry="2"/>
<text x="1174.8" y="190.0"></text>
</g>
<g>
<title>sun/nio/ch/FileDispatcherImpl.pread0 (4 samples, 0.41%)</title><rect x="1171.8" y="163.0" width="4.8" height="15" fill="#55e655" rx="2" ry="2"/>
<text x="1174.8" y="174.0"></text>
</g>
<g>
<title>Java_sun_nio_ch_FileDispatcherImpl_pread0 (1 samples, 0.10%)</title><rect x="1171.8" y="147.0" width="1.2" height="15" fill="#fc7e7e" rx="2" ry="2"/>
<text x="1174.8" y="158.0"></text>
</g>
<g>
<title>__libc_pread64 (3 samples, 0.31%)</title><rect x="1173.0" y="147.0" width="3.6" height="15" fill="#fc7f7f" rx="2" ry="2"/>
<text x="1176.0" y="158.0"></text>
</g>
<g>
<title>sun/nio/ch/NativeThreadSet.add (1 samples, 0.10%)</title><rect x="1176.6" y="211.0" width="1.2" height="15" fill="#52e352" rx="2" ry="2"/>
<text x="1179.6" y="222.0"></text>
</g>
<g>
<title>sun/nio/ch/FileChannelImpl.read (8 samples, 0.82%)</title><rect x="1177.8" y="259.0" width="9.8" height="15" fill="#68f968" rx="2" ry="2"/>
<text x="1180.8" y="270.0"></text>
</g>
<g>
<title>sun/nio/ch/FileChannelImpl.readInternal (8 samples, 0.82%)</title><rect x="1177.8" y="243.0" width="9.8" height="15" fill="#6dfe6d" rx="2" ry="2"/>
<text x="1180.8" y="254.0"></text>
</g>
<g>
<title>sun/nio/ch/IOUtil.read (8 samples, 0.82%)</title><rect x="1177.8" y="227.0" width="9.8" height="15" fill="#5ff05f" rx="2" ry="2"/>
<text x="1180.8" y="238.0"></text>
</g>
<g>
<title>sun/nio/ch/IOUtil.readIntoNativeBuffer (8 samples, 0.82%)</title><rect x="1177.8" y="211.0" width="9.8" height="15" fill="#50e150" rx="2" ry="2"/>
<text x="1180.8" y="222.0"></text>
</g>
<g>
<title>sun/nio/ch/FileDispatcherImpl.pread (8 samples, 0.82%)</title><rect x="1177.8" y="195.0" width="9.8" height="15" fill="#55e655" rx="2" ry="2"/>
<text x="1180.8" y="206.0"></text>
</g>
<g>
<title>sun/nio/ch/FileDispatcherImpl.pread0 (8 samples, 0.82%)</title><rect x="1177.8" y="179.0" width="9.8" height="15" fill="#58e958" rx="2" ry="2"/>
<text x="1180.8" y="190.0"></text>
</g>
<g>
<title>__libc_pread64 (8 samples, 0.82%)</title><rect x="1177.8" y="163.0" width="9.8" height="15" fill="#f37373" rx="2" ry="2"/>
<text x="1180.8" y="174.0"></text>
</g>
<g>
<title>ru/mail/polis/dao/re1nex/MemTable.iterator (1 samples, 0.10%)</title><rect x="1187.6" y="371.0" width="1.2" height="15" fill="#57e857" rx="2" ry="2"/>
<text x="1190.6" y="382.0"></text>
</g>
<g>
<title>java/util/Collection.stream (1 samples, 0.10%)</title><rect x="1187.6" y="355.0" width="1.2" height="15" fill="#66f766" rx="2" ry="2"/>
<text x="1190.6" y="366.0"></text>
</g>
<g>
<title>java/util/stream/StreamSupport.stream (1 samples, 0.10%)</title><rect x="1187.6" y="339.0" width="1.2" height="15" fill="#51e251" rx="2" ry="2"/>
<text x="1190.6" y="350.0"></text>
</g>
<g>
<title>one/nio/http/HttpServer.findHandlerByHost (1 samples, 0.10%)</title><rect x="1188.8" y="451.0" width="1.2" height="15" fill="#65f665" rx="2" ry="2"/>
<text x="1191.8" y="462.0"></text>
</g>
</g>
</svg>
